<svg width="20" height="20" viewBox="0 0 20 20" fill="none" xmlns="http://www.w3.org/2000/svg">
<path d="M4.27203 10.7773L10.4305 16.9357C10.6818 17.1871 10.8025 17.4804 10.7924 17.8155C10.7824 18.1507 10.6513 18.4439 10.3991 18.6953C10.1477 18.9257 9.85443 19.0464 9.51927 19.0572C9.18412 19.0681 8.89086 18.9475 8.6395 18.6953L0.344447 10.4002C0.218765 10.2745 0.12953 10.1384 0.0767435 9.99176C0.0239569 9.84513 -0.00159842 9.68803 7.73436e-05 9.52045C0.00175311 9.35288 0.0281461 9.19577 0.079257 9.04914C0.130368 8.90252 0.219184 8.76636 0.345704 8.64068L8.64075 0.345627C8.87117 0.115209 9.1594 0 9.50545 0C9.8515 0 10.1498 0.115209 10.4003 0.345627C10.6517 0.596992 10.7774 0.895698 10.7774 1.24174C10.7774 1.58779 10.6517 1.88608 10.4003 2.1366L4.27203 8.26363H18.3171C18.6732 8.26363 18.9719 8.38428 19.2132 8.62559C19.4545 8.86691 19.5747 9.16519 19.5739 9.52045C19.573 9.87572 19.4524 10.1744 19.2119 10.4166C18.9714 10.6587 18.6732 10.779 18.3171 10.7773H4.27203Z" fill="currentColor"/>
</svg>
