<svg width="21" height="20" viewBox="0 0 21 20" fill="none" xmlns="http://www.w3.org/2000/svg">
<path d="M1.53857 9.76914C1.53857 6.28821 1.53857 4.54729 2.62042 3.46637C3.70227 2.38544 5.44227 2.38452 8.92319 2.38452H12.6155C16.0964 2.38452 17.8373 2.38452 18.9183 3.46637C19.9992 4.54821 20.0001 6.28821 20.0001 9.76914V11.6153C20.0001 15.0962 20.0001 16.8371 18.9183 17.9181C17.8364 18.999 16.0964 18.9999 12.6155 18.9999H8.92319C5.44227 18.9999 3.70134 18.9999 2.62042 17.9181C1.5395 16.8362 1.53857 15.0962 1.53857 11.6153V9.76914Z" stroke="currentColor" stroke-width="1.5"/>
<path d="M6.15433 2.38462V1M15.3851 2.38462V1M2.00049 7H19.5389" stroke="currentColor" stroke-width="1.5" stroke-linecap="round"/>
<path d="M6.15381 13.9617C6.26602 13.9617 6.37427 14.0064 6.45361 14.0857C6.53273 14.165 6.57662 14.2725 6.57666 14.3845C6.57666 14.4965 6.53267 14.6041 6.45361 14.6833C6.37427 14.7627 6.26602 14.8074 6.15381 14.8074C6.04168 14.8073 5.93427 14.7626 5.85498 14.6833C5.77576 14.604 5.73096 14.4966 5.73096 14.3845C5.731 14.2724 5.7757 14.165 5.85498 14.0857C5.93427 14.0064 6.04168 13.9617 6.15381 13.9617ZM10.769 13.9617C10.8813 13.9617 10.9895 14.0064 11.0688 14.0857C11.148 14.165 11.1928 14.2725 11.1929 14.3845C11.1929 14.4966 11.148 14.604 11.0688 14.6833C10.9895 14.7627 10.8813 14.8074 10.769 14.8074C10.657 14.8073 10.5495 14.7626 10.4702 14.6833C10.391 14.604 10.3462 14.4966 10.3462 14.3845C10.3462 14.2724 10.391 14.165 10.4702 14.0857C10.5495 14.0064 10.657 13.9618 10.769 13.9617ZM15.3853 13.9617C15.4973 13.9618 15.6048 14.0065 15.6841 14.0857C15.7633 14.165 15.8081 14.2724 15.8081 14.3845C15.8081 14.4966 15.7632 14.604 15.6841 14.6833C15.6048 14.7626 15.4973 14.8073 15.3853 14.8074C15.273 14.8074 15.1648 14.7627 15.0854 14.6833C15.0063 14.604 14.9614 14.4966 14.9614 14.3845C14.9615 14.2725 15.0063 14.165 15.0854 14.0857C15.1648 14.0064 15.273 13.9617 15.3853 13.9617ZM6.15381 10.2693C6.26602 10.2693 6.37427 10.314 6.45361 10.3933C6.53274 10.4726 6.5766 10.5801 6.57666 10.6921C6.57666 10.8043 6.53296 10.9126 6.45361 10.9919C6.37427 11.0713 6.26602 11.115 6.15381 11.115C6.04181 11.1149 5.93424 11.0711 5.85498 10.9919C5.77564 10.9126 5.73096 10.8043 5.73096 10.6921C5.73102 10.58 5.77569 10.4726 5.85498 10.3933C5.93427 10.314 6.04168 10.2693 6.15381 10.2693ZM10.769 10.2693C10.8812 10.2693 10.9895 10.314 11.0688 10.3933C11.148 10.4726 11.1928 10.5801 11.1929 10.6921C11.1929 10.8043 11.1482 10.9126 11.0688 10.9919C10.9895 11.0712 10.8812 11.115 10.769 11.115C10.6571 11.1149 10.5495 11.0711 10.4702 10.9919C10.3909 10.9126 10.3462 10.8043 10.3462 10.6921C10.3463 10.58 10.391 10.4726 10.4702 10.3933C10.5495 10.3141 10.657 10.2694 10.769 10.2693ZM15.3853 10.2693C15.4973 10.2694 15.6048 10.3141 15.6841 10.3933C15.7633 10.4726 15.808 10.5801 15.8081 10.6921C15.8081 10.8043 15.7634 10.9126 15.6841 10.9919C15.6049 11.0711 15.4972 11.1149 15.3853 11.115C15.2731 11.115 15.1648 11.0712 15.0854 10.9919C15.0061 10.9126 14.9614 10.8043 14.9614 10.6921C14.9615 10.5801 15.0063 10.4726 15.0854 10.3933C15.1648 10.314 15.273 10.2693 15.3853 10.2693Z" stroke="currentColor"/>
</svg>
