<svg width="26" height="32" viewBox="0 0 26 32" fill="none" xmlns="http://www.w3.org/2000/svg">
<path d="M8.2 31H1V1H22.6V13.6923M4.6 7.92308H19M4.6 12.5385H14.2M17.8 19.4615V24.0769L21.4 27.5385M25 24.0769C25 25.913 24.2414 27.6739 22.8912 28.9723C21.5409 30.2706 19.7096 31 17.8 31C15.8904 31 14.0591 30.2706 12.7088 28.9723C11.3586 27.6739 10.6 25.913 10.6 24.0769C10.6 22.2408 11.3586 20.4799 12.7088 19.1816C14.0591 17.8832 15.8904 17.1538 17.8 17.1538C19.7096 17.1538 21.5409 17.8832 22.8912 19.1816C24.2414 20.4799 25 22.2408 25 24.0769Z" stroke="currentColor" stroke-width="1.5" stroke-linejoin="round"/>
</svg>
