<svg width="330" height="305" viewBox="0 0 330 305" fill="none" xmlns="http://www.w3.org/2000/svg">
<path d="M164.789 305C255.8 305 329.579 262.779 329.579 210.697C329.579 158.615 255.8 116.394 164.789 116.394C73.7787 116.394 0 158.615 0 210.697C0 262.779 73.7787 305 164.789 305Z" fill="#F2F2FF"/>
<path d="M130.69 282.156C162.074 282.156 187.515 267.598 187.515 249.64C187.515 231.682 162.074 217.124 130.69 217.124C99.3063 217.124 73.8647 231.682 73.8647 249.64C73.8647 267.598 99.3063 282.156 130.69 282.156Z" fill="#F9F8FD"/>
<path d="M200.574 188.393L197.923 186.875C197.481 186.591 197.114 186.207 196.85 185.755C196.586 185.303 196.434 184.796 196.405 184.275V75.066C196.434 74.5457 196.586 74.0393 196.848 73.5877C197.111 73.1362 197.476 72.752 197.916 72.4661L271.606 30.2995C272.075 30.0638 272.594 29.9409 273.12 29.9409C273.646 29.9409 274.165 30.0638 274.635 30.2995L277.286 31.8178C277.727 32.1021 278.095 32.4857 278.359 32.9375C278.622 33.3893 278.775 33.8965 278.803 34.4177V143.627C278.775 144.147 278.623 144.653 278.36 145.105C278.098 145.557 277.732 145.941 277.293 146.227L203.603 188.4C203.133 188.636 202.614 188.759 202.088 188.758C201.561 188.757 201.042 188.632 200.574 188.393Z" fill="#8085EF"/>
<path d="M278.804 34.175C278.699 33.3986 278.062 33.1143 277.3 33.5511L203.603 75.7247C203.157 76.0018 202.789 76.3857 202.533 76.8409L196.846 73.5893C197.1 73.1306 197.469 72.744 197.916 72.4661L271.606 30.2995C272.075 30.0638 272.594 29.9409 273.12 29.9409C273.647 29.9409 274.165 30.0638 274.635 30.2995L277.286 31.8178C277.695 32.0791 278.043 32.425 278.305 32.8319C278.567 33.2387 278.737 33.6969 278.804 34.175Z" fill="#8085EF"/>
<path d="M203.344 188.518C202.896 188.698 202.415 188.78 201.932 188.76C201.45 188.74 200.977 188.617 200.546 188.4L197.888 186.875C197.449 186.589 197.083 186.205 196.82 185.753C196.558 185.302 196.406 184.795 196.377 184.275V75.0661C196.395 74.5447 196.547 74.0365 196.818 73.5894L202.505 76.8409C202.228 77.2887 202.074 77.8 202.057 78.3246V187.534C202.085 188.393 202.631 188.789 203.344 188.518Z" fill="#8085EF"/>
<path d="M202.085 78.3383V187.533C202.085 188.49 202.785 188.878 203.603 188.4L277.293 146.227C277.732 145.941 278.098 145.556 278.361 145.105C278.623 144.653 278.775 144.147 278.804 143.627V34.4176C278.804 33.4609 278.104 33.0726 277.293 33.551L203.603 75.7246C203.16 76.0102 202.791 76.396 202.527 76.8504C202.263 77.3048 202.112 77.8147 202.085 78.3383Z" fill="#8085EF"/>
<path d="M184.878 119.937C183.927 119.375 179.513 116.886 179.282 116.754C179.102 116.648 178.949 116.503 178.833 116.33C178.717 116.157 178.642 115.96 178.613 115.755C178.585 115.549 178.603 115.34 178.666 115.142C178.73 114.944 178.838 114.763 178.981 114.612L196.405 96.0869L202.085 99.3177L184.668 117.857C184.531 118.001 184.427 118.173 184.363 118.36C184.299 118.548 184.276 118.747 184.296 118.944C184.316 119.141 184.378 119.331 184.478 119.503C184.579 119.674 184.715 119.822 184.878 119.937Z" fill="#8085EF"/>
<path d="M202.085 99.3384L184.668 117.856C184.475 118.061 184.349 118.319 184.306 118.596C184.264 118.874 184.307 119.157 184.431 119.41C184.554 119.662 184.752 119.871 184.998 120.01C185.244 120.148 185.527 120.21 185.809 120.186L202.085 118.855V99.3384Z" fill="#8085EF"/>
<path d="M240.444 65.9977C249.034 61.0822 255.994 65.0687 255.994 74.8997C255.994 84.7307 249.034 96.6763 240.444 101.592C231.855 106.507 224.895 102.521 224.895 92.6968C224.895 82.8727 231.855 70.9132 240.444 65.9977Z" fill="black"/>
<path d="M240.332 73.7348C243.13 72.1402 245.376 73.4297 245.376 76.6189C245.28 78.3525 244.774 80.0395 243.898 81.5428C243.021 83.0461 241.8 84.3235 240.332 85.2713C237.534 86.8659 235.282 85.5764 235.282 82.3872C235.378 80.653 235.886 78.9657 236.763 77.4623C237.641 75.9589 238.863 74.6818 240.332 73.7348Z" fill="white"/>
<path d="M250.279 90.7344C250.279 85.5 246.565 83.3715 241.99 85.9922L239.129 87.6284C234.555 90.2491 230.84 96.6414 230.84 101.862V103.297C231.704 103.571 232.606 103.709 233.512 103.706C235.966 103.623 238.356 102.906 240.444 101.626C244.42 99.1986 247.784 95.9024 250.279 91.9893V90.7344Z" fill="white"/>
<path d="M230.596 150.255L250.293 138.982C251.132 138.503 251.811 138.891 251.811 139.848V146.136C251.782 146.658 251.63 147.165 251.366 147.617C251.102 148.068 250.735 148.452 250.293 148.736L230.596 160.009C229.756 160.488 229.078 160.1 229.078 159.143V152.855C229.106 152.333 229.259 151.826 229.522 151.374C229.786 150.923 230.154 150.539 230.596 150.255Z" fill="black"/>
<path d="M220.95 136.208L259.918 113.898C260.918 113.322 261.736 113.787 261.736 114.938V117.274C261.702 117.899 261.52 118.508 261.204 119.05C260.888 119.592 260.447 120.052 259.918 120.394L220.929 142.704C219.929 143.28 219.117 142.815 219.117 141.665V139.349C219.149 138.719 219.332 138.105 219.651 137.559C219.97 137.013 220.415 136.55 220.95 136.208Z" fill="#F2F2FF"/>
<path d="M225.511 120.061C226.042 119.756 226.455 119.708 226.749 119.923C227.042 120.137 227.189 120.616 227.189 121.351C227.204 122.021 227.053 122.686 226.749 123.285C226.474 123.827 226.043 124.276 225.511 124.575L224.461 125.178V127.417C224.459 127.494 224.44 127.57 224.405 127.639C224.381 127.702 224.337 127.755 224.279 127.791L223.748 128.097C223.73 128.11 223.708 128.117 223.685 128.117C223.662 128.117 223.64 128.11 223.622 128.097C223.584 128.05 223.567 127.99 223.573 127.93V121.448C223.572 121.371 223.589 121.295 223.622 121.226C223.649 121.164 223.692 121.111 223.748 121.073L225.511 120.061ZM224.461 123.923L225.476 123.34C225.721 123.203 225.927 123.008 226.077 122.772C226.236 122.494 226.314 122.177 226.301 121.857C226.301 121.482 226.224 121.268 226.077 121.205C225.973 121.18 225.865 121.179 225.761 121.202C225.657 121.225 225.559 121.271 225.476 121.337L224.461 121.919V123.923Z" fill="#F2F2FF"/>
<path d="M230.12 117.42C230.19 117.379 230.246 117.379 230.281 117.42C230.326 117.482 230.357 117.553 230.372 117.628L231.988 123.05C231.988 123.05 231.988 123.091 231.988 123.112C231.987 123.189 231.967 123.265 231.932 123.334C231.907 123.397 231.863 123.45 231.806 123.487L231.33 123.757C231.246 123.805 231.183 123.812 231.148 123.757C231.114 123.722 231.09 123.679 231.078 123.632L230.791 122.682L228.693 123.875L228.413 125.15C228.393 125.219 228.368 125.287 228.336 125.351C228.302 125.436 228.237 125.505 228.154 125.546L227.679 125.816C227.661 125.831 227.639 125.839 227.616 125.839C227.593 125.839 227.571 125.831 227.553 125.816C227.516 125.771 227.499 125.714 227.504 125.657C227.5 125.631 227.5 125.606 227.504 125.58L229.113 118.314C229.132 118.208 229.163 118.103 229.204 118.002C229.238 117.93 229.294 117.869 229.365 117.829L230.12 117.42ZM230.484 121.622L229.784 119.174L229.085 122.447L230.484 121.622Z" fill="#F2F2FF"/>
<path d="M234.436 114.848C234.67 114.701 234.936 114.613 235.212 114.591C235.407 114.574 235.603 114.618 235.772 114.716C235.925 114.815 236.045 114.957 236.115 115.125C236.191 115.296 236.234 115.479 236.241 115.666C236.245 115.743 236.228 115.82 236.192 115.888C236.167 115.95 236.123 116.004 236.066 116.04L235.604 116.304C235.527 116.345 235.471 116.352 235.436 116.304C235.393 116.275 235.357 116.237 235.331 116.193C235.303 116.13 235.263 116.074 235.212 116.028C235.162 115.981 235.102 115.945 235.037 115.922C234.825 115.892 234.608 115.947 234.436 116.075C234.323 116.147 234.215 116.229 234.114 116.318C234.01 116.412 233.919 116.519 233.841 116.637C233.767 116.749 233.706 116.87 233.66 116.997C233.618 117.118 233.597 117.244 233.597 117.371C233.588 117.488 233.61 117.605 233.66 117.711C233.681 117.748 233.711 117.78 233.748 117.803C233.785 117.826 233.826 117.839 233.869 117.843C233.999 117.865 234.131 117.865 234.261 117.843L234.87 117.711C235.096 117.645 235.333 117.616 235.569 117.628C235.738 117.627 235.902 117.681 236.038 117.78C236.166 117.887 236.258 118.03 236.304 118.189C236.372 118.414 236.403 118.648 236.394 118.883C236.394 119.193 236.349 119.501 236.262 119.798C236.176 120.104 236.052 120.397 235.891 120.672C235.721 120.953 235.52 121.213 235.289 121.448C235.054 121.69 234.786 121.898 234.492 122.065C234.277 122.195 234.04 122.287 233.792 122.335C233.591 122.374 233.383 122.357 233.191 122.287C233.016 122.206 232.872 122.073 232.778 121.906C232.664 121.692 232.602 121.454 232.596 121.212C232.596 121.133 232.612 121.055 232.645 120.984C232.676 120.924 232.722 120.874 232.778 120.838L233.24 120.574C233.31 120.533 233.366 120.519 233.408 120.54C233.45 120.561 233.478 120.595 233.506 120.658C233.534 120.729 233.572 120.797 233.618 120.859C233.661 120.919 233.722 120.965 233.792 120.99C233.884 121.011 233.98 121.011 234.072 120.99C234.221 120.956 234.362 120.897 234.492 120.817C234.628 120.74 234.756 120.652 234.877 120.554C235.112 120.369 235.299 120.131 235.422 119.86C235.478 119.721 235.507 119.573 235.506 119.424C235.513 119.369 235.508 119.314 235.492 119.262C235.477 119.209 235.451 119.161 235.415 119.119C235.377 119.085 235.333 119.061 235.285 119.047C235.236 119.032 235.185 119.028 235.135 119.035C234.977 119.042 234.819 119.067 234.667 119.112C234.485 119.153 234.275 119.202 234.03 119.243C233.843 119.29 233.649 119.304 233.457 119.285C233.305 119.275 233.162 119.214 233.051 119.112C232.93 118.994 232.845 118.845 232.806 118.682C232.75 118.441 232.724 118.194 232.729 117.947C232.729 117.642 232.774 117.338 232.862 117.046C232.946 116.745 233.068 116.456 233.226 116.186C233.377 115.918 233.56 115.669 233.771 115.444C233.963 115.215 234.187 115.014 234.436 114.848Z" fill="#F2F2FF"/>
<path d="M239.031 112.227C239.264 112.076 239.531 111.986 239.808 111.964C240.003 111.947 240.198 111.991 240.367 112.088C240.517 112.19 240.633 112.332 240.703 112.497C240.78 112.668 240.822 112.852 240.829 113.038C240.837 113.115 240.82 113.193 240.78 113.26C240.755 113.323 240.711 113.376 240.654 113.413L240.193 113.676C240.123 113.718 240.067 113.732 240.025 113.676C239.98 113.648 239.946 113.607 239.927 113.558C239.863 113.437 239.756 113.343 239.626 113.295C239.522 113.28 239.415 113.285 239.313 113.311C239.211 113.338 239.115 113.384 239.031 113.447C238.915 113.518 238.805 113.599 238.703 113.69C238.601 113.785 238.512 113.892 238.437 114.009C238.36 114.12 238.299 114.241 238.255 114.369C238.211 114.49 238.188 114.616 238.185 114.744C238.177 114.86 238.198 114.977 238.248 115.083C238.27 115.121 238.3 115.152 238.336 115.175C238.373 115.198 238.415 115.212 238.458 115.215C238.587 115.238 238.72 115.238 238.85 115.215L239.458 115.083C239.686 115.021 239.921 114.993 240.158 115C240.326 114.999 240.491 115.052 240.626 115.153C240.754 115.261 240.849 115.403 240.899 115.562C240.961 115.788 240.989 116.021 240.983 116.255C240.982 116.565 240.938 116.873 240.85 117.17C240.765 117.476 240.64 117.77 240.479 118.044C240.311 118.328 240.109 118.591 239.878 118.827C239.642 119.063 239.376 119.268 239.087 119.437C238.872 119.567 238.635 119.658 238.388 119.708C238.189 119.746 237.983 119.729 237.793 119.659C237.615 119.581 237.468 119.447 237.374 119.278C237.259 119.065 237.199 118.826 237.199 118.585C237.191 118.507 237.208 118.43 237.248 118.363C237.272 118.3 237.316 118.247 237.374 118.21L237.835 117.947C237.905 117.905 237.968 117.891 238.003 117.912C238.028 117.923 238.049 117.939 238.066 117.96C238.083 117.98 238.095 118.004 238.101 118.03C238.133 118.1 238.17 118.167 238.213 118.231C238.259 118.292 238.322 118.338 238.395 118.363C238.487 118.384 238.583 118.384 238.675 118.363C238.823 118.328 238.965 118.27 239.094 118.189C239.227 118.111 239.353 118.023 239.472 117.926C239.595 117.831 239.703 117.719 239.794 117.593C239.884 117.473 239.96 117.343 240.018 117.205C240.074 117.066 240.102 116.918 240.102 116.768C240.108 116.714 240.104 116.659 240.088 116.606C240.072 116.554 240.046 116.505 240.011 116.463C239.973 116.43 239.928 116.406 239.88 116.391C239.832 116.377 239.781 116.373 239.731 116.38C239.575 116.389 239.42 116.415 239.269 116.456C239.087 116.498 238.871 116.546 238.633 116.588C238.443 116.634 238.247 116.648 238.052 116.63C237.9 116.622 237.756 116.56 237.646 116.456C237.528 116.338 237.445 116.189 237.409 116.026C237.346 115.789 237.318 115.544 237.325 115.298C237.327 114.991 237.372 114.686 237.458 114.39C237.544 114.09 237.666 113.802 237.821 113.53C237.973 113.261 238.158 113.011 238.374 112.789C238.562 112.569 238.784 112.379 239.031 112.227Z" fill="#F2F2FF"/>
<path d="M244.131 113.093L243.564 116.414C243.548 116.514 243.519 116.612 243.48 116.705C243.453 116.78 243.401 116.844 243.333 116.886L242.802 117.191C242.732 117.232 242.683 117.232 242.648 117.191C242.601 117.134 242.574 117.063 242.571 116.99L241.732 111.131C241.732 111.131 241.732 111.076 241.732 111.055C241.734 110.978 241.753 110.902 241.788 110.833C241.814 110.772 241.858 110.719 241.914 110.681L242.396 110.403C242.437 110.387 242.482 110.387 242.522 110.403C242.564 110.403 242.592 110.459 242.606 110.57L243.159 114.515L243.641 111.554C243.654 111.48 243.675 111.408 243.704 111.339C243.732 111.252 243.792 111.177 243.872 111.131L244.411 110.819C244.488 110.778 244.544 110.785 244.579 110.819C244.609 110.863 244.63 110.913 244.642 110.965L245.131 113.371L245.684 108.795C245.69 108.705 245.717 108.617 245.761 108.538C245.793 108.487 245.836 108.442 245.887 108.407L246.369 108.129C246.387 108.116 246.409 108.109 246.432 108.109C246.455 108.109 246.477 108.116 246.495 108.129C246.515 108.152 246.53 108.178 246.54 108.207C246.549 108.236 246.553 108.266 246.551 108.296C246.554 108.323 246.554 108.351 246.551 108.379L245.712 115.194C245.698 115.294 245.672 115.392 245.635 115.485C245.603 115.559 245.549 115.622 245.481 115.666L244.942 115.971C244.879 116.005 244.83 116.005 244.795 115.971C244.76 115.907 244.732 115.839 244.711 115.77L244.131 113.093Z" fill="#F2F2FF"/>
<path d="M247.404 110.154C247.42 109.77 247.466 109.387 247.544 109.01C247.624 108.642 247.746 108.284 247.908 107.943C248.062 107.611 248.259 107.301 248.495 107.02C248.734 106.742 249.021 106.508 249.342 106.327C249.588 106.161 249.876 106.068 250.174 106.057C250.396 106.059 250.609 106.146 250.769 106.299C250.938 106.488 251.06 106.714 251.125 106.958C251.216 107.276 251.265 107.605 251.272 107.936C251.272 108.06 251.272 108.199 251.272 108.352C251.272 108.504 251.272 108.664 251.272 108.83C251.272 108.996 251.272 109.156 251.272 109.308C251.272 109.461 251.272 109.606 251.272 109.738C251.257 110.12 251.21 110.501 251.132 110.875C251.052 111.243 250.932 111.6 250.776 111.943C250.617 112.273 250.417 112.583 250.181 112.865C249.942 113.141 249.658 113.375 249.342 113.558C249.09 113.723 248.797 113.816 248.495 113.829C248.386 113.831 248.278 113.811 248.177 113.771C248.076 113.73 247.984 113.67 247.908 113.593C247.725 113.399 247.6 113.159 247.544 112.9C247.461 112.58 247.414 112.252 247.404 111.922C247.404 111.797 247.404 111.659 247.404 111.506C247.404 111.354 247.404 111.194 247.404 111.028C247.404 110.861 247.404 110.709 247.404 110.549C247.404 110.39 247.397 110.279 247.404 110.154ZM250.384 108.497C250.399 108.328 250.38 108.157 250.327 107.995C250.274 107.832 250.189 107.683 250.076 107.554C249.894 107.395 249.642 107.402 249.342 107.554C249.015 107.745 248.756 108.03 248.6 108.372C248.402 108.777 248.297 109.219 248.292 109.669C248.292 109.925 248.292 110.21 248.292 110.522C248.292 110.834 248.292 111.111 248.292 111.361C248.277 111.53 248.296 111.701 248.349 111.863C248.402 112.025 248.487 112.175 248.6 112.303C248.782 112.456 249.034 112.442 249.342 112.269C249.663 112.077 249.919 111.795 250.076 111.458C250.275 111.056 250.38 110.615 250.384 110.168C250.384 109.905 250.384 109.62 250.384 109.308C250.384 108.996 250.391 108.747 250.384 108.497Z" fill="#F2F2FF"/>
<path d="M254.322 103.561C254.875 103.249 255.287 103.2 255.574 103.429C255.744 103.614 255.871 103.835 255.944 104.075C256.018 104.314 256.037 104.567 256.001 104.815C256.007 105.286 255.933 105.755 255.784 106.202C255.642 106.618 255.421 107.004 255.134 107.339L256.043 109.301C256.046 109.333 256.046 109.366 256.043 109.398C256.043 109.461 256.029 109.522 256.001 109.578C255.982 109.629 255.947 109.672 255.903 109.703L255.343 110.022C255.252 110.071 255.19 110.078 255.148 110.022C255.111 109.986 255.08 109.944 255.057 109.897L254.196 108.046L253.322 108.545V110.889C253.323 110.965 253.306 111.041 253.273 111.111C253.244 111.171 253.201 111.223 253.147 111.263L252.615 111.568C252.598 111.583 252.576 111.591 252.553 111.591C252.529 111.591 252.507 111.583 252.49 111.568C252.47 111.547 252.454 111.522 252.445 111.494C252.435 111.467 252.431 111.438 252.434 111.409V104.926C252.436 104.849 252.455 104.773 252.49 104.704C252.514 104.642 252.558 104.588 252.615 104.552L254.322 103.561ZM253.336 107.29L254.322 106.764C254.563 106.63 254.769 106.443 254.924 106.216C255.086 105.949 255.164 105.64 255.148 105.328C255.148 104.954 255.071 104.746 254.924 104.704C254.711 104.676 254.495 104.73 254.322 104.857L253.371 105.398L253.336 107.29Z" fill="#F2F2FF"/>
<path d="M259.008 100.891C259.262 100.727 259.553 100.627 259.855 100.6C260.074 100.592 260.287 100.669 260.449 100.815C260.635 101.008 260.763 101.248 260.82 101.508C260.914 101.852 260.966 102.206 260.974 102.562C260.974 103.048 260.974 103.547 260.974 104.053C260.96 104.466 260.908 104.876 260.82 105.28C260.74 105.655 260.618 106.02 260.456 106.368C260.3 106.688 260.103 106.987 259.869 107.256C259.635 107.532 259.356 107.766 259.043 107.949L257.386 108.844C257.368 108.858 257.346 108.866 257.323 108.866C257.3 108.866 257.277 108.858 257.26 108.844C257.239 108.823 257.224 108.797 257.214 108.77C257.204 108.742 257.201 108.713 257.204 108.684V102.202C257.206 102.125 257.225 102.049 257.26 101.98C257.284 101.917 257.328 101.864 257.386 101.827L259.008 100.891ZM260.086 103.048C260.082 102.86 260.054 102.673 260.002 102.493C259.969 102.356 259.899 102.232 259.799 102.132C259.755 102.089 259.702 102.055 259.645 102.032C259.587 102.009 259.525 101.999 259.463 102.001C259.288 102.012 259.119 102.07 258.973 102.167L258.092 102.666V107.187L259.008 106.667C259.186 106.564 259.344 106.433 259.477 106.278C259.607 106.126 259.718 105.959 259.806 105.779C259.893 105.588 259.959 105.388 260.002 105.183C260.05 104.969 260.078 104.751 260.086 104.531C260.107 104.025 260.107 103.533 260.086 103.048Z" fill="#F2F2FF"/>
<path d="M162.957 0.265732C164.164 0.532015 165.328 0.966159 166.412 1.55527C167.451 2.10872 168.382 2.84121 169.161 3.71838C169.907 4.56217 170.46 5.55534 170.784 6.63025C171.114 7.78087 171.138 8.99657 170.854 10.1592C170.666 11.0809 170.298 11.9572 169.77 12.7382C169.288 13.4062 168.713 14.0036 168.063 14.5131C167.425 15.0043 166.744 15.4382 166.028 15.8096L164.013 16.8703C163.406 17.184 162.83 17.5531 162.292 17.9727C161.806 18.3426 161.433 18.8396 161.215 19.4078C161.109 19.6674 160.932 19.8929 160.705 20.0595C160.597 20.1424 160.472 20.1998 160.339 20.2274C160.205 20.2551 160.067 20.2522 159.935 20.219L156.969 19.5673C156.827 19.5376 156.691 19.48 156.571 19.3979C156.451 19.3157 156.349 19.2107 156.27 19.0889C156.186 18.9757 156.131 18.8445 156.107 18.706C156.084 18.5675 156.095 18.4255 156.137 18.2916C156.376 17.3812 156.797 16.5277 157.375 15.7818C157.903 15.1221 158.514 14.5325 159.194 14.0278C159.856 13.5473 160.558 13.1228 161.292 12.759C161.992 12.4055 162.691 12.0657 163.3 11.726C163.866 11.4244 164.398 11.0642 164.887 10.6514C165.317 10.295 165.615 9.80725 165.734 9.2648C165.845 8.79376 165.84 8.30302 165.718 7.83455C165.596 7.36609 165.361 6.93384 165.034 6.57479C164.216 5.68965 163.123 5.10143 161.929 4.90393C159.718 4.41861 157.853 5.15583 156.333 7.11556C156.186 7.32948 156.001 7.51508 155.787 7.66327C155.546 7.7819 155.267 7.80181 155.011 7.71873L151.856 7.02543C151.631 6.98234 151.433 6.85273 151.304 6.66491C151.235 6.56457 151.189 6.45072 151.168 6.33109C151.148 6.21146 151.153 6.08886 151.185 5.97161C151.453 5.00823 151.952 4.12339 152.64 3.39253C153.415 2.54493 154.336 1.84068 155.361 1.31262C156.48 0.731908 157.687 0.33393 158.935 0.134005C160.272 -0.0814805 161.638 -0.0367384 162.957 0.265732ZM159.606 22.5762C159.884 22.6408 160.125 22.8104 160.278 23.0488C160.431 23.2872 160.484 23.5754 160.425 23.8519L159.669 27.2491C159.644 27.3913 159.588 27.5266 159.506 27.6461C159.424 27.7655 159.318 27.8665 159.194 27.9424C159.077 28.0224 158.944 28.0773 158.804 28.1036C158.665 28.1298 158.521 28.1269 158.382 28.0949L154.997 27.3253C154.853 27.3013 154.716 27.2467 154.595 27.1653C154.474 27.084 154.373 26.9777 154.297 26.8539C154.219 26.7368 154.166 26.6051 154.14 26.4668C154.115 26.3285 154.119 26.1866 154.151 26.0497L154.913 22.6525C154.978 22.3771 155.149 22.1377 155.389 21.985C155.629 21.8322 155.92 21.7782 156.2 21.8344L159.606 22.5762Z" fill="black"/>
<path d="M166.692 32.7884C167.534 32.6545 168.391 32.6381 169.238 32.7398C170.047 32.8352 170.833 33.0698 171.561 33.4332C172.253 33.7894 172.863 34.2853 173.351 34.8891C173.79 35.48 174.099 36.1555 174.258 36.872C174.417 37.5885 174.422 38.3301 174.274 39.0489C174.141 39.6016 173.927 40.1318 173.638 40.6227C173.36 41.1002 173.036 41.5505 172.673 41.9677C172.316 42.3837 171.973 42.7789 171.658 43.1602C171.35 43.5154 171.076 43.8984 170.84 44.3041C170.618 44.6597 170.507 45.0718 170.518 45.4897C170.512 45.685 170.457 45.8756 170.357 46.0443C170.307 46.1221 170.24 46.1882 170.162 46.2384C170.083 46.2887 169.995 46.3217 169.903 46.3355L167.804 46.6683C167.706 46.6859 167.606 46.684 167.508 46.6625C167.411 46.6411 167.319 46.6006 167.238 46.5435C167.155 46.492 167.086 46.4218 167.036 46.3386C166.986 46.2554 166.957 46.1617 166.951 46.0651C166.863 45.42 166.911 44.7638 167.091 44.1377C167.255 43.5835 167.49 43.0523 167.79 42.557C168.084 42.0817 168.422 41.6338 168.798 41.2189C169.168 40.803 169.497 40.4147 169.819 40.0403C170.106 39.706 170.355 39.3409 170.56 38.9518C170.742 38.617 170.809 38.2322 170.749 37.8564C170.697 37.5257 170.564 37.2124 170.363 36.9432C170.162 36.6741 169.899 36.4569 169.595 36.3104C168.843 35.9503 167.992 35.8479 167.175 36.0192C166.435 36.1264 165.747 36.4578 165.205 36.9679C164.662 37.4781 164.293 38.142 164.146 38.8686C164.105 39.0434 164.034 39.2099 163.936 39.3609C163.811 39.4925 163.642 39.5739 163.461 39.5897L161.25 39.9433C161.095 39.9727 160.934 39.9403 160.803 39.8531C160.735 39.8073 160.679 39.7477 160.636 39.6783C160.594 39.609 160.567 39.5315 160.558 39.451C160.492 38.763 160.6 38.0697 160.873 37.4335C161.149 36.6933 161.557 36.0077 162.076 35.4091C162.645 34.7535 163.315 34.1919 164.062 33.7451C164.868 33.2606 165.761 32.9357 166.692 32.7884ZM170.301 47.937C170.398 47.9219 170.496 47.9257 170.591 47.9483C170.686 47.9709 170.775 48.0119 170.854 48.0688C170.937 48.1225 171.007 48.1929 171.06 48.2753C171.113 48.3578 171.147 48.4504 171.162 48.5471L171.554 50.9252C171.584 51.1181 171.536 51.3151 171.421 51.4734C171.306 51.6317 171.132 51.7387 170.938 51.771L168.595 52.1523C168.4 52.1821 168.202 52.1348 168.042 52.0206C167.961 51.9662 167.892 51.8955 167.841 51.8131C167.789 51.7307 167.755 51.6384 167.741 51.5422L167.35 49.1642C167.332 49.0688 167.335 48.9707 167.357 48.8763C167.38 48.782 167.423 48.6935 167.483 48.6165C167.537 48.5361 167.609 48.468 167.692 48.4166C167.775 48.3652 167.868 48.3318 167.965 48.3184L170.301 47.937Z" fill="black"/>
<g opacity="0.2">
<path d="M166.692 32.7884C167.534 32.6545 168.391 32.6381 169.238 32.7398C170.047 32.8352 170.833 33.0698 171.561 33.4332C172.253 33.7894 172.863 34.2853 173.351 34.8891C173.79 35.48 174.099 36.1555 174.258 36.872C174.417 37.5885 174.422 38.3301 174.274 39.0489C174.141 39.6016 173.927 40.1318 173.638 40.6227C173.36 41.1002 173.036 41.5505 172.673 41.9677C172.316 42.3837 171.973 42.7789 171.658 43.1602C171.35 43.5154 171.076 43.8984 170.84 44.3041C170.618 44.6597 170.507 45.0718 170.518 45.4897C170.512 45.685 170.457 45.8756 170.357 46.0443C170.307 46.1221 170.24 46.1882 170.162 46.2384C170.083 46.2887 169.995 46.3217 169.903 46.3355L167.804 46.6683C167.706 46.6859 167.606 46.684 167.508 46.6625C167.411 46.6411 167.319 46.6006 167.238 46.5435C167.155 46.492 167.086 46.4218 167.036 46.3386C166.986 46.2554 166.957 46.1617 166.951 46.0651C166.863 45.42 166.911 44.7638 167.091 44.1377C167.255 43.5835 167.49 43.0523 167.79 42.557C168.084 42.0817 168.422 41.6338 168.798 41.2189C169.168 40.803 169.497 40.4147 169.819 40.0403C170.106 39.706 170.355 39.3409 170.56 38.9518C170.742 38.617 170.809 38.2322 170.749 37.8564C170.697 37.5257 170.564 37.2124 170.363 36.9432C170.162 36.6741 169.899 36.4569 169.595 36.3104C168.843 35.9503 167.992 35.8479 167.175 36.0192C166.435 36.1264 165.747 36.4578 165.205 36.9679C164.662 37.4781 164.293 38.142 164.146 38.8686C164.105 39.0434 164.034 39.2099 163.936 39.3609C163.811 39.4925 163.642 39.5739 163.461 39.5897L161.25 39.9433C161.095 39.9727 160.934 39.9403 160.803 39.8531C160.735 39.8073 160.679 39.7477 160.636 39.6783C160.594 39.609 160.567 39.5315 160.558 39.451C160.492 38.763 160.6 38.0697 160.873 37.4335C161.149 36.6933 161.557 36.0077 162.076 35.4091C162.645 34.7535 163.315 34.1919 164.062 33.7451C164.868 33.2606 165.761 32.9357 166.692 32.7884ZM170.301 47.937C170.398 47.9219 170.496 47.9257 170.591 47.9483C170.686 47.9709 170.775 48.0119 170.854 48.0688C170.937 48.1225 171.007 48.1929 171.06 48.2753C171.113 48.3578 171.147 48.4504 171.162 48.5471L171.554 50.9252C171.584 51.1181 171.536 51.3151 171.421 51.4734C171.306 51.6317 171.132 51.7387 170.938 51.771L168.595 52.1523C168.4 52.1821 168.202 52.1348 168.042 52.0206C167.961 51.9662 167.892 51.8955 167.841 51.8131C167.789 51.7307 167.755 51.6384 167.741 51.5422L167.35 49.1642C167.332 49.0688 167.335 48.9707 167.357 48.8763C167.38 48.782 167.423 48.6935 167.483 48.6165C167.537 48.5361 167.609 48.468 167.692 48.4166C167.775 48.3652 167.868 48.3318 167.965 48.3184L170.301 47.937Z" fill="black"/>
</g>
<path d="M186.473 36.5255C186.569 36.5913 186.649 36.6756 186.711 36.7733C186.772 36.8711 186.813 36.9802 186.83 37.0941C186.852 37.2068 186.851 37.323 186.825 37.4352C186.8 37.5473 186.752 37.6531 186.683 37.7458L185.018 40.0683C184.952 40.1628 184.867 40.243 184.768 40.3038C184.67 40.3646 184.56 40.4048 184.445 40.4219C184.331 40.444 184.214 40.4424 184.101 40.4174C183.988 40.3923 183.881 40.3443 183.787 40.2763L181.493 38.6609C181.397 38.5961 181.317 38.5119 181.257 38.4139C181.196 38.3159 181.158 38.2063 181.143 38.0924C181.121 37.9796 181.123 37.8635 181.148 37.7513C181.173 37.6391 181.222 37.5334 181.29 37.4407L182.976 35.1181C183.112 34.9299 183.318 34.8025 183.548 34.7635C183.779 34.7246 184.015 34.7773 184.207 34.9101L186.473 36.5255ZM196.154 20.7945C196.991 21.3756 197.735 22.0765 198.364 22.8744C198.978 23.6166 199.452 24.462 199.763 25.3703C200.054 26.2407 200.151 27.1629 200.05 28.0742C199.932 29.0459 199.56 29.9705 198.973 30.7573C198.536 31.3934 197.975 31.9358 197.322 32.3519C196.748 32.7089 196.123 32.9799 195.469 33.1561C194.831 33.3213 194.18 33.4326 193.524 33.4889L191.663 33.6553C191.105 33.6995 190.553 33.7946 190.013 33.9395C189.514 34.0517 189.058 34.3017 188.698 34.6606C188.535 34.8245 188.329 34.9398 188.103 34.9933C187.996 35.0239 187.883 35.0285 187.773 35.0068C187.663 34.985 187.561 34.9377 187.474 34.8686L185.445 33.4403C185.251 33.3031 185.118 33.0969 185.074 32.8649C185.048 32.7525 185.049 32.6355 185.077 32.5235C185.105 32.4115 185.159 32.3075 185.235 32.2201C185.709 31.6107 186.301 31.1015 186.977 30.7226C187.585 30.3934 188.234 30.144 188.907 29.9808C189.557 29.8245 190.22 29.7248 190.887 29.6826C191.544 29.641 192.16 29.5925 192.734 29.5371C193.258 29.4911 193.777 29.3888 194.279 29.232C194.719 29.0869 195.098 28.8017 195.357 28.4208C195.59 28.0993 195.742 27.7265 195.8 27.3342C195.857 26.9419 195.818 26.5417 195.685 26.1676C195.354 25.2436 194.722 24.4554 193.888 23.9282C192.377 22.8605 190.728 22.8259 188.942 23.8242C188.763 23.9376 188.564 24.0175 188.355 24.06C188.246 24.0675 188.137 24.0536 188.034 24.019C187.931 23.9845 187.835 23.9301 187.753 23.8589L185.599 22.3406C185.521 22.2892 185.454 22.2229 185.402 22.1455C185.351 22.0681 185.315 21.9812 185.298 21.8899C185.281 21.7956 185.285 21.6988 185.307 21.6057C185.33 21.5127 185.372 21.4253 185.431 21.3492C185.939 20.7036 186.6 20.1918 187.355 19.8586C188.212 19.4736 189.13 19.239 190.069 19.1652C191.101 19.0797 192.141 19.1617 193.146 19.4079C194.232 19.6672 195.254 20.1386 196.154 20.7945Z" fill="black"/>
<g opacity="0.6">
<path d="M186.473 36.5255C186.569 36.5913 186.649 36.6756 186.711 36.7733C186.772 36.8711 186.813 36.9802 186.83 37.0941C186.852 37.2068 186.851 37.323 186.825 37.4352C186.8 37.5473 186.752 37.6531 186.683 37.7458L185.018 40.0683C184.952 40.1628 184.867 40.243 184.768 40.3038C184.67 40.3646 184.56 40.4048 184.445 40.4219C184.331 40.444 184.214 40.4424 184.101 40.4174C183.988 40.3923 183.881 40.3443 183.787 40.2763L181.493 38.6609C181.397 38.5961 181.317 38.5119 181.257 38.4139C181.196 38.3159 181.158 38.2063 181.143 38.0924C181.121 37.9796 181.123 37.8635 181.148 37.7513C181.173 37.6391 181.222 37.5334 181.29 37.4407L182.976 35.1181C183.112 34.9299 183.318 34.8025 183.548 34.7635C183.779 34.7246 184.015 34.7773 184.207 34.9101L186.473 36.5255ZM196.154 20.7945C196.991 21.3756 197.735 22.0765 198.364 22.8744C198.978 23.6166 199.452 24.462 199.763 25.3703C200.054 26.2407 200.151 27.1629 200.05 28.0742C199.932 29.0459 199.56 29.9705 198.973 30.7573C198.536 31.3934 197.975 31.9358 197.322 32.3519C196.748 32.7089 196.123 32.9799 195.469 33.1561C194.831 33.3213 194.18 33.4326 193.524 33.4889L191.663 33.6553C191.105 33.6995 190.553 33.7946 190.013 33.9395C189.514 34.0517 189.058 34.3017 188.698 34.6606C188.535 34.8245 188.329 34.9398 188.103 34.9933C187.996 35.0239 187.883 35.0285 187.773 35.0068C187.663 34.985 187.561 34.9377 187.474 34.8686L185.445 33.4403C185.251 33.3031 185.118 33.0969 185.074 32.8649C185.048 32.7525 185.049 32.6355 185.077 32.5235C185.105 32.4115 185.159 32.3075 185.235 32.2201C185.709 31.6107 186.301 31.1015 186.977 30.7226C187.585 30.3934 188.234 30.144 188.907 29.9808C189.557 29.8245 190.22 29.7248 190.887 29.6826C191.544 29.641 192.16 29.5925 192.734 29.5371C193.258 29.4911 193.777 29.3888 194.279 29.232C194.719 29.0869 195.098 28.8017 195.357 28.4208C195.59 28.0993 195.742 27.7265 195.8 27.3342C195.857 26.9419 195.818 26.5417 195.685 26.1676C195.354 25.2436 194.722 24.4554 193.888 23.9282C192.377 22.8605 190.728 22.8259 188.942 23.8242C188.763 23.9376 188.564 24.0175 188.355 24.06C188.246 24.0675 188.137 24.0536 188.034 24.019C187.931 23.9845 187.835 23.9301 187.753 23.8589L185.599 22.3406C185.521 22.2892 185.454 22.2229 185.402 22.1455C185.351 22.0681 185.315 21.9812 185.298 21.8899C185.281 21.7956 185.285 21.6988 185.307 21.6057C185.33 21.5127 185.372 21.4253 185.431 21.3492C185.939 20.7036 186.6 20.1918 187.355 19.8586C188.212 19.4736 189.13 19.239 190.069 19.1652C191.101 19.0797 192.141 19.1617 193.146 19.4079C194.232 19.6672 195.254 20.1386 196.154 20.7945Z" fill="white"/>
</g>
<path d="M154.546 248.223L160.158 245.842L156.103 232.336L150.492 234.71L154.546 248.223Z" fill="#FFC3BD"/>
<path d="M108.271 250.957H114.372L114.688 236.958H108.587L108.271 250.957Z" fill="#FFC3BD"/>
<path d="M115.202 250.26H107.765C107.643 250.261 107.525 250.302 107.431 250.377C107.336 250.453 107.27 250.558 107.243 250.675L106.042 256.049C106.013 256.18 106.015 256.316 106.046 256.446C106.078 256.576 106.139 256.698 106.225 256.801C106.311 256.904 106.42 256.987 106.543 257.043C106.666 257.098 106.8 257.126 106.935 257.123C109.306 257.123 111.076 256.942 114.088 256.942C115.937 256.942 121.533 257.13 124.094 257.13C126.654 257.13 126.986 254.624 125.943 254.396C121.201 253.378 117.7 251.968 116.19 250.628C115.918 250.388 115.566 250.257 115.202 250.26Z" fill="#8085EF"/>
<path d="M160.023 245.012L154.001 247.832C153.892 247.885 153.805 247.972 153.752 248.08C153.699 248.188 153.684 248.31 153.708 248.427L154.941 253.801C154.971 253.931 155.029 254.053 155.113 254.157C155.196 254.261 155.302 254.345 155.424 254.402C155.545 254.459 155.677 254.489 155.811 254.488C155.946 254.487 156.078 254.456 156.198 254.397C158.356 253.347 161.43 251.749 164.165 250.48C167.326 248.983 167.453 248.983 171.199 247.229C173.46 246.171 173.009 243.609 171.989 243.844C167.247 244.933 166.402 245.364 161.588 244.831C161.06 244.747 160.518 244.809 160.023 245.012Z" fill="#8085EF"/>
<path d="M126.172 59.1525L128.678 59.7714C129.547 59.975 130.409 60.1552 131.27 60.3197C132.929 60.6494 134.604 60.8925 136.289 61.0483C137.028 61.1096 137.769 61.1253 138.51 61.0953C138.997 61.0828 139.482 61.0198 139.956 60.9073C140.059 60.9073 140.051 60.9073 139.956 60.9935C139.812 61.1558 139.706 61.3487 139.648 61.5575C139.593 61.7769 139.648 61.8787 139.648 61.8317C139.678 61.6843 139.678 61.5326 139.648 61.3852C139.256 60.0216 138.648 58.7285 137.846 57.5544C136.902 56.0894 135.881 54.6747 134.787 53.3162C132.543 50.5195 130.045 47.715 127.54 45.0358L130.401 41.4871C133.777 43.5605 136.952 45.9391 139.885 48.5924C141.412 49.9691 142.835 51.4536 144.145 53.0342C145.698 54.8322 146.904 56.8982 147.702 59.129C147.952 59.8911 148.108 60.6801 148.168 61.4792C148.242 62.5135 148.107 63.5519 147.773 64.5344C147.381 65.633 146.728 66.6219 145.868 67.4173C145.156 68.0696 144.338 68.5991 143.45 68.984C142.142 69.5384 140.756 69.8898 139.34 70.0259C138.182 70.1427 137.017 70.1793 135.854 70.1356C133.731 70.0524 131.617 69.8089 129.531 69.4071C128.52 69.219 127.524 68.9997 126.536 68.7647C125.548 68.5297 124.607 68.279 123.525 67.9813L126.172 59.1525Z" fill="#FFC3BD"/>
<path d="M117.707 61.6981C120.869 56.8568 137.98 60.4212 137.98 60.4212L138.968 75.0706C134.333 74.3913 129.667 73.9442 124.987 73.731C120.158 73.5195 113.74 67.7146 117.707 61.6981Z" fill="#8085EF"/>
<path d="M128.48 45.6234L122.75 42.5838L128.283 38.2595C129.063 38.7444 129.731 39.3873 130.243 40.146C130.755 40.9048 131.1 41.7622 131.254 42.6622L128.48 45.6234Z" fill="#FFC3BD"/>
<path d="M119.257 39.4184L124.845 35.9872L128.314 38.259L122.75 42.5833L119.257 39.4184Z" fill="#FFC3BD"/>
<path opacity="0.2" d="M156.103 232.344L158.19 239.301L152.578 241.682L150.484 234.718L156.103 232.344Z" fill="black"/>
<path opacity="0.2" d="M108.587 236.958H114.688L114.523 244.181H108.421L108.587 236.958Z" fill="black"/>
<path d="M103.402 74.9298L95.9648 85.5604C95.4859 86.2351 95.2116 87.0315 95.1745 87.8557L94.5896 101.957C94.5478 103.007 94.8903 104.036 95.5538 104.855L98.7864 108.835C99.2266 109.364 99.7871 109.782 100.422 110.054C101.057 110.326 101.748 110.446 102.438 110.402L112.215 109.869C113.334 109.809 114.387 109.325 115.156 108.517C115.925 107.709 116.352 106.64 116.348 105.529L116.261 77.2095C116.261 76.6312 116.143 76.0589 115.915 75.5264C115.688 74.9939 115.355 74.512 114.937 74.109C114.518 73.7059 114.023 73.39 113.479 73.1798C112.936 72.9697 112.355 72.8695 111.772 72.8851L106.856 73.0183C106.169 73.0459 105.499 73.2333 104.899 73.5654C104.299 73.8975 103.786 74.3649 103.402 74.9298Z" fill="black"/>
<path opacity="0.3" d="M103.402 74.9298L95.9648 85.5604C95.4859 86.2351 95.2116 87.0315 95.1745 87.8557L94.5896 101.957C94.5478 103.007 94.8903 104.036 95.5538 104.855L98.7864 108.835C99.2266 109.364 99.7871 109.782 100.422 110.054C101.057 110.326 101.748 110.446 102.438 110.402L112.215 109.869C113.334 109.809 114.387 109.325 115.156 108.517C115.925 107.709 116.352 106.64 116.348 105.529L116.261 77.2095C116.261 76.6312 116.143 76.0589 115.915 75.5264C115.688 74.9939 115.355 74.512 114.937 74.109C114.518 73.7059 114.023 73.39 113.479 73.1798C112.936 72.9697 112.355 72.8695 111.772 72.8851L106.856 73.0183C106.169 73.0459 105.499 73.2333 104.899 73.5654C104.299 73.8975 103.786 74.3649 103.402 74.9298Z" fill="black"/>
<path d="M123.204 56.3189L101.683 56.9036C99.3005 56.9683 97.4221 58.935 97.4874 61.2964L97.6537 67.3106C97.719 69.672 99.7032 71.5339 102.086 71.4691L123.607 70.8845C125.99 70.8197 127.868 68.853 127.803 66.4916L127.636 60.4774C127.571 58.116 125.587 56.2542 123.204 56.3189Z" fill="black"/>
<path opacity="0.3" d="M123.204 56.3189L101.683 56.9036C99.3005 56.9683 97.4221 58.935 97.4874 61.2964L97.6537 67.3106C97.719 69.672 99.7032 71.5339 102.086 71.4691L123.607 70.8845C125.99 70.8197 127.868 68.853 127.803 66.4916L127.636 60.4774C127.571 58.116 125.587 56.2542 123.204 56.3189Z" fill="black"/>
<path d="M96.7155 60.8443C98.3674 67.4065 99.5271 74.0809 100.185 80.8128C100.667 85.5132 100.92 89.9785 101.055 94.0443C101.363 103.555 101.007 110.793 101.244 113.253L133.831 111.686C134.795 64.1658 130.859 59.5047 130.859 59.5047C128.295 58.977 125.7 58.6055 123.09 58.3922C122.563 58.3452 122.002 58.3139 121.406 58.2982C116.779 58.2565 112.153 58.4814 107.551 58.972C106.682 59.0581 105.797 59.1678 104.935 59.2853C100.565 59.8728 96.7155 60.8443 96.7155 60.8443Z" fill="#8085EF"/>
<path d="M129.373 75.3448C121.504 73.6077 113.291 74.2211 105.773 77.1075L105.109 74.8435C113.033 71.8021 121.688 71.1561 129.982 72.9868C129.792 73.7702 129.579 74.5615 129.373 75.3448Z" fill="black"/>
<path opacity="0.2" d="M104.753 69.7126C104.712 74.6703 103.212 79.5083 100.438 83.6335C100.367 82.7091 100.28 81.7768 100.185 80.8368C99.8214 77.3115 99.3314 73.6531 98.6675 69.9555L104.753 69.7126Z" fill="black"/>
<path d="M123.999 58.4472L123.09 58.3689C122.537 58.3219 121.975 58.2905 121.414 58.2592C116.786 58.2237 112.161 58.4513 107.559 58.9407C106.682 59.0269 105.805 59.1366 104.943 59.2541H104.888L105.512 60.2177C106.476 61.7296 109.559 65.294 117.439 65.9991L118.229 66.0618L118.885 65.6936C120.576 64.7378 123.319 62.4268 123.935 59.967C124.054 59.4689 124.075 58.9532 123.999 58.4472Z" fill="white"/>
<path d="M103.094 34.1779C100.019 32.6581 96.5177 37.0373 97.561 39.7713C98.3378 39.6243 99.1407 39.6986 99.8765 39.9856C100.612 40.2726 101.251 40.7606 101.718 41.3929C101.718 41.3929 99.6713 43.8841 100.928 46.5946C103.425 45.0279 105.978 47.19 105.978 47.19C105.679 47.9198 105.609 48.7221 105.776 49.4922C105.944 50.2622 106.342 50.9642 106.919 51.5065C107.583 49.736 110.08 51.3342 111.092 49.9397C112.744 47.6601 110.839 45.2394 110.839 45.2394L110.151 44.1113C109.646 38.7059 107.875 36.5359 103.094 34.1779Z" fill="#8085EF"/>
<path d="M108.144 43.4139C109.243 47.7931 110.515 55.8385 107.551 58.9407C108.784 60.8757 111.954 63.1005 117.644 63.6411C119.668 62.5051 122.331 59.7241 121.399 58.2983C116.372 57.3661 116.317 53.7077 117.012 50.2294L108.144 43.4139Z" fill="#FFC3BD"/>
<path d="M123.778 58.604C124.133 61.5417 126.718 81.0716 133.507 89.4226C133.559 89.4844 133.63 89.529 133.708 89.5505C133.787 89.572 133.87 89.5695 133.947 89.5432C134.024 89.5169 134.091 89.4681 134.139 89.4032C134.188 89.3383 134.215 89.2604 134.218 89.1797C134.218 87.4641 134.218 85.8425 134.218 85.5526C134.223 85.5214 134.223 85.4898 134.218 85.4586C133.981 84.6047 130.519 71.6475 130.053 59.1994C130.051 59.1324 130.032 59.0669 129.998 59.0093C129.963 58.9517 129.914 58.9039 129.856 58.8704C128.029 58.1763 126.059 57.9369 124.118 58.1732C124.066 58.179 124.017 58.1948 123.972 58.2196C123.928 58.2445 123.888 58.278 123.857 58.3181C123.825 58.3582 123.802 58.4041 123.788 58.4532C123.775 58.5023 123.771 58.5536 123.778 58.604Z" fill="black"/>
<path opacity="0.2" d="M111.772 46.1794L117.012 50.1904C116.839 51 116.739 51.8231 116.712 52.6502C114.799 52.4701 112.088 50.5351 111.788 48.5688C111.634 47.7801 111.629 46.9701 111.772 46.1794Z" fill="black"/>
<path d="M119.059 36.1833C120.695 36.3478 123.09 30.9346 120.363 27.0647C117.842 23.5003 112.87 27.1979 112.246 27.8481C111.622 28.4983 113.186 35.5801 119.059 36.1833Z" fill="#8085EF"/>
<path d="M105.299 37.5385C106.816 43.3434 107.409 46.8216 110.997 49.2893C116.395 52.9634 123.193 48.8506 123.453 42.7088C123.683 37.1859 121.161 28.6078 114.894 27.3936C113.517 27.1211 112.092 27.2012 110.755 27.6263C109.418 28.0513 108.212 28.8073 107.252 29.8228C106.291 30.8382 105.608 32.0797 105.266 33.4297C104.924 34.7798 104.936 36.1939 105.299 37.5385Z" fill="#FFC3BD"/>
<path d="M107.891 42.1606C109.535 42.3251 110.096 34.9143 109.195 33.0419C108.294 31.1696 101.553 33.0419 101.086 33.8253C98.4781 38.2593 102.027 41.5574 107.891 42.1606Z" fill="#8085EF"/>
<path d="M121.122 24.0958C120.885 21.8553 118.222 20.6567 115.376 20.9622C115.242 22.6152 112.499 23.8607 112.499 23.8607C111.668 23.2049 110.7 22.7409 109.665 22.5024C108.63 22.2639 107.554 22.2569 106.516 22.482C106.69 24.9888 104.319 26.916 104.319 26.916C104.319 26.916 101.853 25.8741 99.3319 28.2086C101.371 29.1643 98.0436 31.2716 99.901 33.6139C102.003 36.2696 105.734 34.7655 105.734 34.7655L107.315 33.9351C115.044 33.0421 121.762 29.9398 121.122 24.0958Z" fill="#8085EF"/>
<path d="M120.545 43.1245C119.35 43.9769 118.012 44.6134 116.593 45.0046C116.573 45.0105 116.552 45.0118 116.531 45.0084C116.51 45.005 116.49 44.997 116.472 44.985C116.455 44.973 116.44 44.9572 116.43 44.9389C116.419 44.9206 116.413 44.9003 116.412 44.8793C116.41 44.8325 116.425 44.7867 116.454 44.7496C116.483 44.7125 116.524 44.6864 116.57 44.6756C117.922 44.2954 119.197 43.6858 120.34 42.8738C120.372 42.8441 120.414 42.8275 120.458 42.8275C120.502 42.8275 120.545 42.8441 120.577 42.8738C120.597 42.8897 120.612 42.9104 120.621 42.9338C120.631 42.9573 120.634 42.9827 120.631 43.0078C120.628 43.0329 120.618 43.0568 120.603 43.0772C120.588 43.0976 120.568 43.1139 120.545 43.1245Z" fill="#8085EF"/>
<path d="M103.892 43.892C104.938 44.9879 106.378 45.6299 107.899 45.6781C109.915 45.7251 110.428 43.8215 109.48 42.1921C108.603 40.7193 106.492 38.9331 104.667 39.6617C102.841 40.3902 102.612 42.5289 103.892 43.892Z" fill="#FFC3BD"/>
<path d="M146.698 177.436C143.489 159.262 133.831 111.632 133.831 111.632L112.412 112.681C112.412 112.681 127.113 166.077 131.333 181.557C135.554 197.037 150.302 241.306 150.302 241.306L159.636 236.935C159.636 236.935 150.033 196.34 146.698 177.436Z" fill="black"/>
<path opacity="0.2" d="M121.098 130.637L118.087 133.347C120.671 142.748 123.738 153.919 126.378 163.523C127.113 152.681 125.769 136.387 121.098 130.637Z" fill="black"/>
<path d="M124.845 112.094C124.845 112.094 120.553 162.685 120.015 180.398C119.423 199.786 117.431 242.779 117.431 242.779H106.255C106.255 242.779 104.54 203.492 104.192 184.424C103.766 162.881 101.276 113.253 101.276 113.253L124.845 112.094Z" fill="black"/>
<path d="M117.874 243.022H105.607L105.054 239.128L118.87 238.87L117.874 243.022Z" fill="#8085EF"/>
<path d="M160.3 236.903L149.765 241.847L147.504 238.337L159.518 232.689L160.3 236.903Z" fill="#8085EF"/>
<path d="M114.617 37.4134C114.712 37.8913 115.044 38.1968 115.36 38.1968C115.676 38.1968 115.858 37.7033 115.763 37.2254C115.669 36.7475 115.337 36.442 115.02 36.442C114.704 36.442 114.522 36.9669 114.617 37.4134Z" fill="#8085EF"/>
<path d="M120.079 36.3871C120.173 36.8649 120.505 37.1705 120.822 37.1705C121.138 37.1705 121.312 36.6691 121.217 36.1912C121.122 35.7134 120.79 35.4078 120.474 35.4078C120.158 35.4078 120 35.9092 120.079 36.3871Z" fill="#8085EF"/>
<path d="M118.419 36.9589C119.283 38.3115 120.331 39.5399 121.533 40.6095C120.83 41.5652 119.217 41.3928 119.217 41.3928L118.419 36.9589Z" fill="#ED847E"/>
<path d="M115.399 34.6636C115.349 34.6505 115.295 34.6516 115.245 34.6668C115.195 34.6821 115.15 34.7107 115.115 34.7497C114.88 35.0215 114.584 35.2341 114.25 35.3703C113.916 35.5065 113.554 35.5623 113.194 35.5331C113.119 35.5241 113.043 35.5444 112.983 35.5897C112.922 35.635 112.882 35.7018 112.87 35.776C112.864 35.8136 112.865 35.8523 112.873 35.8895C112.882 35.9268 112.899 35.9618 112.922 35.9926C112.944 36.0234 112.973 36.0492 113.007 36.0685C113.04 36.0879 113.077 36.1003 113.115 36.105C113.573 36.1413 114.033 36.0685 114.456 35.8927C114.88 35.7169 115.255 35.4432 115.55 35.0944C115.577 35.0688 115.599 35.0378 115.614 35.0035C115.629 34.9691 115.637 34.9321 115.637 34.8947C115.637 34.8572 115.629 34.8202 115.614 34.7858C115.599 34.7515 115.577 34.7205 115.55 34.6949C115.505 34.667 115.452 34.6559 115.399 34.6636Z" fill="#8085EF"/>
<path d="M122.118 32.0157C122.174 31.9996 122.223 31.9668 122.26 31.9217C122.284 31.8919 122.301 31.8577 122.312 31.8211C122.323 31.7845 122.326 31.7462 122.321 31.7083C122.317 31.6705 122.305 31.6339 122.286 31.6006C122.268 31.5673 122.243 31.538 122.212 31.5144C121.86 31.2232 121.441 31.0212 120.992 30.9257C120.543 30.8302 120.078 30.844 119.636 30.966C119.564 30.991 119.505 31.0425 119.471 31.1098C119.438 31.177 119.431 31.2547 119.454 31.3264C119.479 31.3973 119.531 31.4557 119.599 31.4893C119.667 31.5229 119.745 31.5291 119.818 31.5065C120.17 31.4196 120.539 31.4161 120.893 31.4964C121.247 31.5767 121.577 31.7385 121.857 31.9687C121.894 31.9953 121.937 32.0133 121.982 32.0215C122.027 32.0296 122.073 32.0276 122.118 32.0157Z" fill="#8085EF"/>
<path d="M117.217 251.318C117.635 251.35 118.05 251.239 118.395 251.004C118.509 250.91 118.596 250.789 118.649 250.652C118.702 250.514 118.718 250.366 118.695 250.221C118.697 250.136 118.673 250.053 118.629 249.981C118.584 249.909 118.519 249.851 118.443 249.813C117.771 249.469 115.803 250.667 115.581 250.808C115.557 250.822 115.538 250.844 115.527 250.869C115.516 250.894 115.513 250.922 115.518 250.949C115.522 250.977 115.533 251.003 115.552 251.023C115.57 251.044 115.594 251.059 115.621 251.067C116.142 251.21 116.677 251.294 117.217 251.318ZM118.126 250.064C118.189 250.05 118.254 250.05 118.316 250.064C118.345 250.082 118.368 250.108 118.383 250.138C118.399 250.169 118.406 250.203 118.403 250.237C118.418 250.332 118.407 250.43 118.372 250.521C118.338 250.611 118.28 250.691 118.205 250.754C117.525 251.067 116.749 251.106 116.04 250.863C116.678 250.467 117.386 250.196 118.126 250.064Z" fill="black"/>
<path d="M115.661 251.099C115.681 251.107 115.703 251.107 115.724 251.099C116.356 250.762 117.581 249.438 117.447 248.749C117.427 248.643 117.37 248.547 117.286 248.479C117.202 248.41 117.097 248.372 116.988 248.373C116.879 248.358 116.767 248.367 116.661 248.398C116.555 248.429 116.456 248.482 116.372 248.553C115.668 249.132 115.518 250.903 115.51 250.95C115.51 250.975 115.516 251 115.529 251.022C115.541 251.044 115.559 251.063 115.582 251.075C115.605 251.091 115.632 251.099 115.661 251.099ZM116.886 248.655H116.957C117.139 248.655 117.162 248.764 117.162 248.803C117.241 249.195 116.467 250.198 115.834 250.668C115.879 249.982 116.13 249.324 116.554 248.78C116.646 248.7 116.763 248.656 116.886 248.655Z" fill="black"/>
<path d="M160.924 245.544C161.896 245.301 163.58 244.761 163.928 243.978C163.989 243.854 164.016 243.716 164.006 243.579C163.997 243.441 163.95 243.308 163.872 243.194C163.836 243.124 163.782 243.065 163.716 243.022C163.649 242.98 163.572 242.955 163.493 242.951C162.655 242.904 160.964 245.043 160.774 245.301C160.757 245.325 160.747 245.354 160.747 245.384C160.747 245.413 160.757 245.442 160.774 245.466C160.786 245.494 160.808 245.517 160.835 245.532C160.863 245.546 160.894 245.55 160.924 245.544ZM163.469 243.257C163.5 243.26 163.529 243.271 163.554 243.289C163.579 243.307 163.599 243.331 163.612 243.359C163.659 243.43 163.688 243.511 163.697 243.596C163.705 243.68 163.692 243.766 163.659 243.844C163.461 244.307 162.576 244.784 161.288 245.153C161.983 244.322 162.979 243.288 163.469 243.257Z" fill="black"/>
<path d="M160.924 245.544C160.943 245.544 160.961 245.539 160.977 245.531C160.993 245.523 161.008 245.511 161.019 245.497C161.549 244.886 162.3 243.084 161.904 242.513C161.81 242.379 161.62 242.254 161.248 242.379C161.112 242.427 160.986 242.502 160.878 242.599C160.771 242.695 160.685 242.813 160.624 242.943C160.197 243.844 160.751 245.388 160.774 245.45C160.783 245.474 160.798 245.495 160.817 245.511C160.837 245.528 160.86 245.539 160.885 245.544H160.924ZM161.509 242.614C161.539 242.609 161.57 242.612 161.598 242.623C161.626 242.634 161.65 242.653 161.667 242.677C161.904 243.022 161.454 244.369 160.964 245.09C160.729 244.44 160.704 243.733 160.893 243.069C160.933 242.971 160.994 242.884 161.072 242.812C161.15 242.741 161.242 242.686 161.343 242.654C161.396 242.631 161.452 242.618 161.509 242.614Z" fill="black"/>
<path d="M103.102 69.8376L101.339 72.2348C100.738 73.0573 100.153 73.8956 99.5765 74.7338C98.4147 76.4102 97.3002 78.1102 96.2095 79.8101C95.1188 81.5101 94.1309 83.2571 93.1745 84.9962C92.2588 86.7059 91.4305 88.4603 90.6928 90.2527C90.6928 90.2527 90.6928 90.3311 90.6928 90.3232C90.6928 90.3859 90.6928 90.3232 90.6928 90.4642C90.6966 90.5059 90.6966 90.5479 90.6928 90.5896C90.6928 90.6366 90.6928 90.7149 90.6928 90.7776V90.9734L90.7323 91.2085C90.8729 91.9926 91.0981 92.7595 91.4041 93.496C92.1447 95.2765 93.0137 97.0018 94.0044 98.6585C95.0082 100.398 96.1226 102.129 97.2686 103.852C98.4147 105.576 99.6397 107.307 100.786 108.984L97.4267 112.07C94.0513 109.15 90.9581 105.924 88.1873 102.434C86.7308 100.618 85.4376 98.6778 84.3225 96.6374C83.6953 95.4636 83.1896 94.23 82.8129 92.9554L82.6627 92.4227L82.552 91.8352C82.552 91.6315 82.4809 91.4435 82.4572 91.232L82.4098 90.5661C82.3805 90.0828 82.3937 89.5978 82.4493 89.1168C82.4775 88.8526 82.5251 88.5908 82.5916 88.3334L82.6864 87.9261C82.7114 87.8146 82.7431 87.7047 82.7813 87.597C84.1512 83.2611 86.0069 79.0909 88.3138 75.1646C89.4203 73.2297 90.6059 71.3574 91.8467 69.5321C92.4711 68.6155 93.1113 67.7146 93.7673 66.8215C94.4233 65.9285 95.0714 65.0746 95.8381 64.1345L103.102 69.8376Z" fill="#FFC3BD"/>
<path d="M96.7156 60.8444C90.9697 61.8785 85.6505 75.6348 85.6505 75.6348L97.3874 85.5055C97.3874 85.5055 101.442 78.5411 104.706 71.804C108.287 64.4715 103.663 59.5988 96.7156 60.8444Z" fill="#8085EF"/>
<path d="M98.3434 108.13L104.485 107.347L102.113 114.71C102.113 114.71 96.739 114.209 96.6915 111.35L98.3434 108.13Z" fill="#FFC3BD"/>
<path d="M108.871 109.947L106.642 115.94L102.137 114.734L104.485 107.378L108.871 109.947Z" fill="#FFC3BD"/>
<path d="M100.446 60.2569C101.11 63.5236 103.971 79.1914 100.612 91.8275C100.607 91.8482 100.607 91.8695 100.612 91.8902C100.609 92.645 100.662 93.3991 100.77 94.1463C100.781 94.1978 100.805 94.2455 100.84 94.285C100.875 94.3244 100.92 94.3543 100.97 94.3716C101.02 94.3889 101.074 94.3932 101.126 94.3839C101.178 94.3746 101.227 94.3522 101.268 94.3187C102.92 92.9634 109.006 87.1507 109.045 74.6869C109.085 64.7614 107.536 60.3979 106.951 59.0975C106.888 58.969 106.784 58.8644 106.656 58.7994C106.527 58.7344 106.381 58.7125 106.239 58.7371L100.999 59.5205C100.913 59.5299 100.829 59.5568 100.754 59.5996C100.678 59.6424 100.613 59.7001 100.561 59.7692C100.509 59.8383 100.472 59.9173 100.452 60.0012C100.432 60.0851 100.43 60.1722 100.446 60.2569Z" fill="black"/>
</svg>
