<svg width="294" height="332" viewBox="0 0 294 332" fill="none" xmlns="http://www.w3.org/2000/svg">
<g clip-path="url(#clip0_10_1511)">
<path d="M287.206 209.369C278.896 234.628 260.99 262.307 234.633 271.324C194.817 284.941 191.263 317.715 118.998 317.456C108.448 317.474 97.9269 316.341 87.6208 314.078C82.5819 312.955 77.6195 311.511 72.7637 309.755C29.9542 294.273 6.51673 257.453 3.15972 218.108C-1.25058 166.361 33.8779 140.251 56.7487 124.855C79.6194 109.459 105.736 52.3211 176.782 51.9814C187.627 51.8894 198.447 53.0498 209.027 55.4398C233.149 60.9979 257.972 74.3806 272.885 94.779C273.997 96.3106 275.071 97.8792 276.106 99.4849C296.242 130.876 298.54 174.933 287.206 209.369Z" fill="#F2F2FF"/>
<path d="M78.2154 163.595H17.1548V253.062H78.2154V163.595Z" stroke="black" stroke-width="0.516112" stroke-linecap="round" stroke-linejoin="round"/>
<path d="M74.8459 168.535H20.5239V248.128H74.8459V168.535Z" stroke="black" stroke-width="0.516112" stroke-linecap="round" stroke-linejoin="round"/>
<path d="M61.6088 187.927H33.7549V228.736H61.6088V187.927Z" stroke="black" stroke-width="0.516112" stroke-linecap="round" stroke-linejoin="round"/>
<path d="M280.966 163.595H219.905V253.062H280.966V163.595Z" stroke="black" stroke-width="0.516112" stroke-linecap="round" stroke-linejoin="round"/>
<path d="M277.597 168.535H223.275V248.128H277.597V168.535Z" stroke="black" stroke-width="0.516112" stroke-linecap="round" stroke-linejoin="round"/>
<path d="M264.36 187.927H236.512V228.736H264.36V187.927Z" stroke="black" stroke-width="0.516112" stroke-linecap="round" stroke-linejoin="round"/>
<path d="M253.433 72.0771H45.0826C44.4228 72.0771 43.7695 72.2075 43.1601 72.4609C42.5506 72.7142 41.9969 73.0855 41.5307 73.5535C41.0644 74.0215 40.6948 74.5771 40.4429 75.1885C40.1909 75.7999 40.0617 76.455 40.0625 77.1165V239.729C40.0625 240.39 40.1924 241.044 40.4446 241.655C40.6969 242.266 41.0667 242.82 41.5329 243.288C41.999 243.755 42.5524 244.126 43.1615 244.379C43.7706 244.632 44.4234 244.762 45.0826 244.762H171.46L186.243 256.286L184.007 244.762H253.433C254.764 244.762 256.041 244.232 256.982 243.288C257.924 242.344 258.453 241.064 258.453 239.729V77.1165C258.454 76.455 258.324 75.7999 258.072 75.1885C257.821 74.5771 257.451 74.0215 256.985 73.5535C256.518 73.0855 255.965 72.7142 255.355 72.4609C254.746 72.2075 254.092 72.0771 253.433 72.0771Z" fill="black" stroke="black" stroke-width="0.516112" stroke-linecap="round" stroke-linejoin="round"/>
<path d="M257.091 67.0378H48.7413C47.4099 67.0378 46.133 67.5681 45.1915 68.512C44.2501 69.4559 43.7212 70.7362 43.7212 72.071V234.683C43.7212 236.018 44.2501 237.298 45.1915 238.242C46.133 239.186 47.4099 239.717 48.7413 239.717H175.113L189.896 251.24L187.666 239.717H257.091C258.423 239.717 259.7 239.186 260.641 238.242C261.583 237.298 262.112 236.018 262.112 234.683V72.071C262.112 70.7362 261.583 69.4559 260.641 68.512C259.7 67.5681 258.423 67.0378 257.091 67.0378Z" fill="#8085EF"/>
<path d="M100.901 146.377C100.901 146.377 95.2957 137.015 86.7338 136.496C78.1719 135.977 76.595 143.45 73.663 145.327C70.731 147.205 68.3288 143.722 64.5899 145.055C60.851 146.389 61.3869 148.532 58.4302 149.873C55.4736 151.213 53.3608 147.73 50.4227 149.07C47.4845 150.41 46.6899 152.009 46.6899 152.009H112.598C112.598 152.009 110.75 146.927 107.794 146.13C104.837 145.333 104.104 148.786 100.901 146.377Z" fill="white"/>
<path d="M249.78 111.694C249.78 111.694 245.684 104.845 239.432 104.45C233.18 104.055 232.009 109.545 229.866 110.916C227.722 112.287 225.961 109.737 223.226 110.719C220.491 111.701 220.879 113.263 218.735 114.245C216.592 115.227 215.039 112.676 212.877 113.627C210.715 114.578 210.143 115.783 210.143 115.783H258.403C258.403 115.783 257.036 112.077 254.892 111.46C252.749 110.842 252.151 113.461 249.78 111.694Z" fill="white"/>
<path d="M230.968 85.7071C230.968 85.7071 223.398 73.0531 211.874 72.3305C200.349 71.608 198.162 81.7299 194.195 84.2743C190.229 86.8187 186.982 82.1067 181.938 83.9161C176.893 85.7256 177.626 88.6158 173.647 90.4191C169.668 92.2224 166.797 87.5289 162.83 89.3384C158.864 91.1479 157.786 93.3155 157.786 93.3155H246.83C246.83 93.3155 244.304 86.4482 240.343 85.3612C236.383 84.2743 235.292 88.9555 230.968 85.7071Z" fill="white"/>
<g opacity="0.15">
<path d="M66.5857 215.533C66.4462 215.266 66.2521 215.033 66.016 214.848C65.7799 214.663 65.5073 214.53 65.2163 214.458C64.9252 214.386 64.6222 214.377 64.3274 214.431C64.0325 214.486 63.7525 214.602 63.5059 214.773C62.4341 215.446 61.9783 216.941 61.8736 218.139C61.7504 219.541 62.8283 222.505 62.8283 222.505C62.8283 222.505 64.5653 221.202 64.6762 221.109C65.8219 219.985 67.3865 217.144 66.5857 215.533Z" fill="black"/>
<path d="M49.5914 231.188C49.8624 230.824 50.1027 230.496 50.1335 230.447C50.9465 229.064 51.698 225.914 50.5031 224.568C50.2988 224.351 50.0512 224.179 49.7764 224.065C49.5016 223.95 49.2058 223.894 48.9083 223.902C48.6108 223.91 48.3182 223.98 48.0496 224.108C47.7809 224.237 47.5424 224.421 47.3493 224.648C46.4931 225.58 46.4438 227.118 46.6594 228.322C46.875 229.527 48.2609 231.602 48.6367 232.145L47.8359 232.948C46.604 234.183 45.3721 235.468 44.1401 236.653C44.244 236.891 44.3655 237.12 44.5036 237.339L44.559 237.29C45.7909 236.017 47.0598 234.69 48.3041 233.368L49.4559 232.17C49.5853 232.38 51.1129 234.862 52.2339 235.61C53.2256 236.277 54.6978 236.845 55.8743 236.437C56.1585 236.348 56.421 236.2 56.6448 236.003C56.8686 235.806 57.0487 235.564 57.1735 235.293C57.2983 235.022 57.365 234.728 57.3693 234.429C57.3736 234.13 57.3155 233.834 57.1986 233.559C56.441 231.929 53.2564 231.373 51.6549 231.571C51.5379 231.571 49.9179 231.972 49.5114 232.096C50.3552 231.213 51.2053 230.342 52.0738 229.521C53.2395 228.405 54.4739 227.363 55.7695 226.402C55.8311 226.501 57.4203 229.101 58.566 229.866C59.5577 230.533 61.0299 231.102 62.2064 230.694C62.4912 230.606 62.7544 230.458 62.9787 230.261C63.203 230.064 63.3834 229.822 63.5083 229.551C63.6333 229.28 63.6998 228.985 63.7036 228.686C63.7075 228.387 63.6486 228.091 63.5307 227.816C62.7731 226.186 59.5885 225.63 57.987 225.827C57.8638 225.827 56.1391 226.266 55.8127 226.365C55.8866 226.309 55.9605 226.241 56.0406 226.192C57.3745 225.266 58.7887 224.462 60.2661 223.789C61.0792 223.413 61.8738 223.092 62.656 222.801C62.9024 223.314 64.0604 225.648 65.009 226.457C65.9576 227.266 67.3066 227.958 68.5385 227.693C68.8317 227.636 69.1097 227.519 69.3546 227.348C69.5994 227.176 69.8055 226.955 69.9595 226.699C70.1135 226.443 70.2119 226.157 70.2483 225.86C70.2847 225.563 70.2583 225.261 70.1708 224.975C69.598 223.271 66.475 222.369 64.892 222.394C64.8058 222.394 63.9188 222.499 63.2782 222.591C63.6354 222.462 63.9988 222.326 64.3376 222.215C65.625 221.776 66.8015 221.461 67.8979 221.19C68.5139 221.035 69.0621 220.912 69.5795 220.8C70.0846 221.183 72.1357 222.653 73.3307 222.95C74.5257 223.246 76.0594 223.221 77.0265 222.4C77.2599 222.215 77.4518 221.983 77.5898 221.719C77.7277 221.454 77.8086 221.164 77.8272 220.866C77.8458 220.568 77.8017 220.27 77.6977 219.991C77.5937 219.711 77.4321 219.457 77.2236 219.244C75.9301 218.009 72.7579 218.627 71.3473 219.386C71.2241 219.448 69.4378 220.695 69.4624 220.714H69.4932C68.9882 220.807 68.4523 220.918 67.8733 221.047C66.7953 221.301 65.5819 221.591 64.2822 221.999C62.8756 222.42 61.4954 222.925 60.1491 223.512C58.6467 224.162 57.204 224.943 55.8373 225.846L55.788 225.883C56.1206 225.469 57.02 224.29 57.0569 224.197C57.87 222.808 58.6276 219.658 57.4327 218.312C57.2278 218.094 56.9797 217.923 56.7044 217.808C56.4291 217.694 56.1329 217.638 55.8349 217.646C55.5368 217.653 55.2437 217.724 54.9746 217.852C54.7055 217.981 54.4664 218.165 54.2728 218.392C53.4227 219.324 53.3673 220.862 53.5829 222.066C53.8293 223.4 55.4985 225.803 55.634 225.994C54.2589 226.95 52.95 227.998 51.7165 229.131C51.002 229.817 50.2936 230.496 49.5914 231.188Z" fill="black"/>
<path d="M43.7212 231.824V234.683C43.7205 235.011 43.7515 235.338 43.8136 235.659C44.177 234.344 44.2879 232.794 43.7212 231.824Z" fill="black"/>
<path d="M70.2387 175.674C71.8525 173.365 73.6141 167.955 71.7108 165.435C71.383 165.025 70.9727 164.69 70.5067 164.45C70.0407 164.21 69.5295 164.071 69.0064 164.042C68.4833 164.014 67.96 164.096 67.4708 164.284C66.9816 164.472 66.5374 164.761 66.1671 165.133C64.541 166.646 64.233 169.375 64.4486 171.469C64.7011 173.939 67.5284 178.694 67.5284 178.694C67.5284 178.694 70.097 175.897 70.2387 175.674Z" fill="black"/>
<path d="M91.329 168.362C88.6989 166.633 83.4324 168.77 81.2457 170.536C81.0609 170.691 78.3753 173.426 78.4307 173.451H78.4862C77.6546 173.778 76.7676 174.143 75.8006 174.563C74.0266 175.347 72.0309 176.249 69.9181 177.379C67.6333 178.571 65.4202 179.897 63.2903 181.35C60.8941 182.96 58.6471 184.783 56.5763 186.797L56.5024 186.871C56.9397 186.056 58.0731 183.734 58.1408 183.548C59.0894 180.893 59.3728 175.205 56.8658 173.284C56.4441 172.972 55.9609 172.753 55.4483 172.642C54.9357 172.531 54.4055 172.531 53.8928 172.641C53.3801 172.752 52.8967 172.97 52.4747 173.282C52.0527 173.594 51.7018 173.993 51.4453 174.452C50.275 176.348 50.7 179.059 51.4453 181.023C52.2953 183.233 55.9665 186.834 56.2622 187.124C54.204 189.223 52.2881 191.457 50.5275 193.812C49.4927 195.177 48.4948 196.591 47.5093 198.012C47.8604 197.296 48.1745 196.653 48.2053 196.554C49.1539 193.905 49.4373 188.217 46.9303 186.297C46.48 185.946 45.9506 185.712 45.3888 185.615C44.827 185.518 44.25 185.561 43.7088 185.741V197.302C44.7128 198.494 45.7538 199.55 46.1727 199.976C45.8031 200.525 45.4273 201.069 45.0578 201.625L43.7026 203.644V205.793C44.4603 204.608 45.2241 203.422 45.9817 202.23C46.5053 201.409 47.035 200.599 47.5647 199.76C47.8542 200.081 51.3098 203.86 53.4842 204.787C55.4183 205.608 58.1101 206.121 60.038 205.009C60.5029 204.767 60.911 204.428 61.2354 204.015C61.5597 203.602 61.7928 203.125 61.9192 202.616C62.0456 202.106 62.0624 201.575 61.9685 201.058C61.8746 200.541 61.6722 200.05 61.3747 199.618C59.5268 197.055 53.8661 197.147 51.1866 198.006C50.9895 198.067 48.3224 199.272 47.6633 199.611C48.8275 197.814 50.0101 196.036 51.242 194.331C52.897 192.017 54.7015 189.813 56.6441 187.736C56.7796 187.884 60.3398 191.842 62.5943 192.793C64.5222 193.615 67.214 194.127 69.142 193.016C69.6074 192.774 70.0161 192.435 70.341 192.023C70.666 191.611 70.8997 191.134 71.0267 190.624C71.1537 190.114 71.1711 189.583 71.0776 189.066C70.9842 188.548 70.7821 188.057 70.4848 187.624C68.6369 185.061 62.97 185.154 60.2967 186.013C60.0873 186.074 57.2169 187.377 56.718 187.649C56.835 187.526 56.9397 187.39 57.0506 187.272C59.0547 185.244 61.2334 183.396 63.5613 181.751C64.8364 180.825 66.1114 180.016 67.3618 179.281C67.9778 180.09 70.7065 183.746 72.616 184.839C74.5255 185.932 77.0633 186.692 79.1021 185.784C79.5911 185.595 80.0342 185.303 80.4021 184.929C80.7701 184.554 81.0543 184.106 81.2361 183.613C81.4178 183.12 81.4929 182.594 81.4564 182.069C81.4198 181.545 81.2724 181.035 81.0239 180.572C79.484 177.817 73.8295 177.28 71.0761 177.842C70.9221 177.873 69.4376 178.355 68.3597 178.719C68.9264 178.386 69.5116 178.027 70.0659 177.719C72.1417 176.545 74.1128 175.6 75.8622 174.779C76.8662 174.322 77.7778 173.927 78.6402 173.544C79.6319 174.025 83.6603 175.94 85.81 176.014C87.9597 176.088 90.6022 175.588 91.9696 173.853C92.3104 173.46 92.5656 173 92.7189 172.503C92.8723 172.006 92.9203 171.482 92.86 170.965C92.7997 170.449 92.6324 169.95 92.3687 169.502C92.1051 169.054 91.751 168.665 91.329 168.362Z" fill="black"/>
<path d="M43.7212 211.148V218.04C43.8947 218.142 44.0736 218.235 44.2571 218.318C46.1912 219.139 48.883 219.652 50.8109 218.54C51.2758 218.298 51.684 217.959 52.0083 217.546C52.3326 217.134 52.5657 216.657 52.6921 216.147C52.8185 215.637 52.8353 215.106 52.7414 214.589C52.6476 214.072 52.4451 213.581 52.1476 213.149C50.657 211.061 46.6162 210.728 43.7212 211.148Z" fill="black"/>
<path d="M45.1011 238.142C45.5683 238.64 46.1324 239.036 46.7585 239.307C47.3847 239.578 48.0595 239.717 48.7414 239.716H50.3121C49.265 238.426 46.5548 237.975 45.1011 238.142Z" fill="black"/>
<path d="M222.93 160.766C222.998 160.766 220.152 157.061 219.943 156.839C217.559 154.368 211.504 151.04 208.067 152.75C205.603 153.985 205.036 157.073 206.447 159.315C207.857 161.557 211.067 162.601 213.617 162.817C216.604 163.076 222.93 160.766 222.93 160.766Z" fill="black"/>
<path d="M262.099 234.535V232.015C260.96 231.453 259.777 230.891 258.564 230.323C259.096 228.46 259.518 226.567 259.826 224.654C260.598 224.57 261.359 224.411 262.099 224.178V216.15C260.462 215.35 258.706 214.823 256.9 214.588C256.641 214.375 256.363 214.187 256.069 214.026C253.747 212.747 250.704 213.501 249.632 216.051C248.141 219.59 251.837 225.444 254.43 227.686C254.578 227.816 256.402 229.063 257.56 229.835C256.808 229.483 256.087 229.138 255.305 228.792C253.778 228.094 252.225 227.439 250.562 226.729L248.098 225.778C247.279 225.444 246.374 225.197 245.499 224.895C243.472 224.246 241.378 223.66 239.265 223.166C239.881 221.819 241.957 216.99 241.976 214.433C241.994 211.876 241.292 208.603 239.148 206.954C237.005 205.305 233.925 205.627 232.477 207.98C230.463 211.253 233.235 217.601 235.459 220.214C235.594 220.374 237.399 222.066 238.409 222.974C237.134 222.672 235.865 222.357 234.566 222.103C230.808 221.344 226.989 220.695 223.176 220.028C222.012 219.825 220.848 219.608 219.69 219.411C219.912 218.935 222.517 213.266 222.53 210.388C222.53 207.825 221.852 204.552 219.702 202.909C219.211 202.503 218.639 202.206 218.025 202.037C217.411 201.867 216.768 201.83 216.138 201.926C215.509 202.023 214.907 202.252 214.371 202.598C213.836 202.944 213.379 203.399 213.031 203.934C211.023 207.208 213.789 213.556 216.013 216.162C216.185 216.36 218.785 218.787 219.474 219.374C216.912 218.904 214.368 218.41 211.873 217.824C208.505 217.048 205.191 216.056 201.95 214.853C202.055 214.631 204.802 208.727 204.821 205.775C204.821 203.212 204.137 199.945 201.987 198.296C201.496 197.891 200.925 197.595 200.311 197.426C199.697 197.257 199.055 197.22 198.427 197.317C197.798 197.413 197.196 197.642 196.661 197.987C196.127 198.333 195.67 198.787 195.322 199.321C193.308 202.594 196.08 208.943 198.304 211.549C198.476 211.753 201.279 214.365 201.821 214.804C201.63 214.736 201.427 214.68 201.242 214.606C198.029 213.306 194.937 211.723 192.002 209.876C190.37 208.875 188.861 207.825 187.42 206.788C188.036 205.738 190.838 200.921 191.146 198.265C191.442 195.721 191.115 192.398 189.157 190.521C187.198 188.643 184.112 188.625 182.418 190.811C180.059 193.837 182.116 200.458 184.038 203.292C184.143 203.447 185.381 204.898 186.299 205.942C185.652 205.454 184.98 204.966 184.371 204.49C182.085 202.706 180.102 200.927 178.359 199.34C177.373 198.432 176.511 197.586 175.692 196.789C175.772 195.443 176.018 189.996 175.076 187.526C174.133 185.055 172.347 182.332 169.748 181.572C167.148 180.813 164.395 182.19 163.896 184.938C163.2 188.718 168.06 193.64 171.072 195.264C171.337 195.406 175.655 197.117 175.661 197.067C175.667 197.018 175.661 197.005 175.661 196.987C176.425 197.771 177.25 198.599 178.168 199.488C179.88 201.118 181.864 202.946 184.087 204.787C186.499 206.797 189.024 208.665 191.651 210.382C194.576 212.321 197.668 213.993 200.891 215.378L201.008 215.421C199.893 215.316 196.758 215.131 196.511 215.143C193.099 215.322 186.6 217.694 185.621 221.406C185.475 222.027 185.462 222.673 185.581 223.3C185.7 223.927 185.95 224.522 186.313 225.046C186.677 225.57 187.147 226.012 187.692 226.342C188.237 226.673 188.845 226.884 189.477 226.964C192.15 227.39 194.99 225.642 196.832 223.876C198.907 221.869 201.211 216.045 201.396 215.582C204.726 216.918 208.142 218.028 211.621 218.904C213.641 219.423 215.686 219.886 217.744 220.325C216.777 220.263 215.896 220.22 215.785 220.226C212.366 220.411 205.874 222.777 204.895 226.488C204.186 229.168 206.127 231.626 208.751 232.046C211.375 232.466 214.263 230.725 216.105 228.958C217.947 227.192 220.035 222.227 220.565 220.93L222.936 221.412C226.737 222.165 230.531 222.9 234.233 223.728C235.539 224.024 236.814 224.345 238.089 224.691C237.227 224.642 236.5 224.605 236.389 224.611C232.976 224.79 226.478 227.161 225.499 230.873C224.79 233.547 226.731 236.011 229.355 236.431C231.979 236.851 234.898 235.109 236.709 233.343C238.52 231.577 240.436 227.093 241.076 225.537C242.37 225.914 243.67 226.297 244.908 226.723C245.745 227.032 246.577 227.272 247.402 227.631L249.866 228.631C251.4 229.329 252.989 230.039 254.467 230.756C255.502 231.243 256.475 231.731 257.461 232.219C256.167 231.91 253.617 231.361 253.396 231.342C249.996 231.003 243.214 232.355 241.692 235.881C241.421 236.503 241.302 237.181 241.346 237.858C241.39 238.534 241.596 239.191 241.945 239.772H252.675C254.936 237.919 257.757 233.17 258.12 232.546C259.5 233.183 260.867 233.862 262.099 234.535Z" fill="black"/>
<path d="M256.26 198.883C256.26 199.093 256.876 201.501 257.202 202.817C256.303 201.86 255.416 200.902 254.473 199.964C251.763 197.252 248.93 194.597 246.121 191.935C245.258 191.12 244.408 190.299 243.558 189.465C244.002 189.187 249.293 185.902 250.894 183.505C252.317 181.381 253.537 178.268 252.65 175.705C251.763 173.143 249.028 171.704 246.49 172.871C243.016 174.489 241.834 181.313 242.253 184.722C242.283 184.975 243.115 188.427 243.374 189.311C241.526 187.507 239.641 185.685 237.885 183.82C235.522 181.312 233.322 178.653 231.301 175.86C231.51 175.736 237.048 172.327 238.692 169.876C240.109 167.745 241.335 164.639 240.448 162.076C239.561 159.513 236.82 158.074 234.319 159.241C230.839 160.859 229.656 167.683 230.075 171.092C230.112 171.358 231.005 175.088 231.221 175.749C231.104 175.588 230.962 175.428 230.845 175.267C228.881 172.403 227.172 169.371 225.738 166.207C224.925 164.466 224.248 162.761 223.62 161.081C224.716 160.556 229.699 158.086 231.418 156.042C233.136 153.998 234.621 151.102 234.023 148.483C233.426 145.865 230.857 144.104 228.239 144.988C224.605 146.223 222.696 152.868 222.696 156.301C222.696 156.487 222.93 158.383 223.121 159.754C222.85 158.994 222.56 158.216 222.314 157.481C221.39 154.727 220.712 152.151 220.133 149.86C219.813 148.557 219.548 147.39 219.314 146.26C220.121 145.179 223.312 140.782 223.884 138.231C224.457 135.681 224.5 132.395 222.72 130.32C220.94 128.245 217.903 127.899 215.988 129.894C213.327 132.661 214.676 139.454 216.29 142.48C216.431 142.74 219.08 146.575 219.123 146.519L219.172 146.457C219.382 147.532 219.61 148.681 219.887 149.928C220.423 152.238 221.045 154.869 221.913 157.623C222.816 160.63 223.894 163.58 225.141 166.46C226.52 169.69 228.184 172.79 230.112 175.724C230.138 175.755 230.163 175.788 230.186 175.823C229.311 175.119 226.804 173.229 226.595 173.106C223.644 171.37 216.924 169.746 214.06 172.303C213.593 172.741 213.223 173.274 212.976 173.866C212.728 174.458 212.609 175.095 212.624 175.737C212.64 176.378 212.791 177.009 213.067 177.588C213.343 178.167 213.738 178.681 214.226 179.096C216.222 180.949 219.548 181.035 222.061 180.572C224.901 180.053 230.026 176.465 230.432 176.181C232.471 179.125 234.701 181.931 237.109 184.58C238.507 186.13 239.961 187.668 241.421 189.15C240.651 188.563 239.949 188.045 239.844 187.983C236.894 186.247 230.173 184.629 227.315 187.186C225.252 189.039 225.523 192.127 227.476 193.979C229.428 195.832 232.804 195.919 235.317 195.455C237.83 194.992 242.296 192.022 243.46 191.219L245.172 192.936C247.932 195.665 250.716 198.376 253.321 201.112C254.245 202.082 255.126 203.064 256.007 204.046C255.317 203.527 254.732 203.095 254.633 203.039C251.683 201.304 244.963 199.686 242.105 202.242C240.041 204.095 240.312 207.183 242.265 209.005C244.217 210.827 247.593 210.95 250.106 210.487C252.619 210.024 256.654 207.337 258.04 206.393C258.914 207.424 259.789 208.455 260.59 209.48C261.095 210.172 261.625 210.808 262.099 211.518V208.431C262.08 208.409 262.064 208.387 262.05 208.363C260.713 206.695 259.278 205.071 257.793 203.471C259.282 202.532 260.721 201.516 262.105 200.427V186.655C261.549 186.68 261.002 186.814 260.497 187.05C257.023 188.644 255.841 195.474 256.26 198.883Z" fill="black"/>
<path d="M118.469 238.846C117.557 238.284 116.713 237.697 115.906 237.11C116.257 236.493 117.822 233.831 117.994 232.343C118.167 230.854 117.994 229.057 116.88 228.02C116.63 227.765 116.33 227.565 115.999 227.434C115.667 227.303 115.312 227.243 114.956 227.258C114.6 227.273 114.251 227.363 113.932 227.522C113.613 227.681 113.331 227.905 113.104 228.18C111.786 229.879 112.937 233.578 114.015 235.165C114.071 235.251 114.767 236.067 115.247 236.647C114.884 236.375 114.508 236.104 114.169 235.838C112.888 234.838 111.779 233.843 110.806 232.954C110.252 232.448 109.765 231.972 109.316 231.527C109.359 230.774 109.494 227.736 108.977 226.358C108.459 224.981 107.449 223.456 105.995 223.03C105.659 222.917 105.303 222.877 104.95 222.911C104.598 222.945 104.256 223.053 103.947 223.227C103.639 223.402 103.37 223.639 103.158 223.925C102.946 224.21 102.797 224.536 102.719 224.882C102.33 226.994 105.053 229.749 106.735 230.663C106.882 230.743 109.297 231.707 109.303 231.67V231.626C109.734 232.065 110.196 232.528 110.708 233.028C111.669 233.936 112.759 234.955 114.022 235.986C115.368 237.116 116.781 238.164 118.253 239.124L119.177 239.698H119.935C119.454 239.432 118.949 239.142 118.469 238.846Z" fill="black"/>
<path d="M115.499 237.166C115.499 237.135 113.036 236.289 112.894 236.258C111.046 235.85 107.172 236.165 106.118 238.024C105.824 238.536 105.732 239.14 105.86 239.716H113.362C114.125 238.91 114.839 238.058 115.499 237.166Z" fill="black"/>
<path d="M148.762 228.785C148.275 228.328 147.801 227.865 147.326 227.408C147.573 227.254 150.536 225.413 151.429 224.073C152.223 222.881 152.907 221.146 152.414 219.707C152.309 219.366 152.133 219.051 151.898 218.783C151.663 218.514 151.374 218.299 151.05 218.15C150.727 218.001 150.376 217.921 150.019 217.917C149.663 217.913 149.31 217.984 148.983 218.126C147.037 219.028 146.378 222.851 146.612 224.753C146.612 224.895 147.092 226.834 147.228 227.322C146.175 226.315 145.14 225.296 144.148 224.234C142.824 222.825 141.589 221.334 140.452 219.769C140.569 219.701 143.668 217.793 144.585 216.422C145.38 215.23 146.064 213.488 145.565 212.055C145.46 211.715 145.284 211.4 145.05 211.131C144.816 210.863 144.528 210.647 144.205 210.497C143.882 210.347 143.531 210.268 143.176 210.263C142.82 210.258 142.467 210.328 142.14 210.468C140.194 211.376 139.528 215.199 139.762 217.101C139.762 217.249 140.286 219.337 140.378 219.707L140.169 219.435C139.069 217.833 138.113 216.136 137.311 214.365C136.855 213.396 136.479 212.438 136.128 211.5C136.744 211.203 139.528 209.826 140.489 208.684C141.45 207.541 142.282 205.929 141.949 204.453C141.882 204.102 141.741 203.769 141.537 203.476C141.333 203.182 141.07 202.935 140.764 202.751C140.459 202.566 140.118 202.448 139.764 202.404C139.41 202.36 139.05 202.391 138.709 202.495C136.676 203.181 135.629 206.905 135.629 208.826C135.629 208.931 135.759 209.987 135.863 210.759C135.715 210.332 135.549 209.9 135.414 209.486C134.896 207.949 134.514 206.503 134.182 205.225C134.003 204.49 133.855 203.829 133.72 203.206C134.169 202.588 135.962 200.118 136.282 198.71C136.602 197.302 136.609 195.443 135.629 194.282C135.409 194.001 135.131 193.77 134.816 193.604C134.5 193.438 134.154 193.341 133.798 193.318C133.442 193.295 133.086 193.348 132.752 193.473C132.418 193.597 132.114 193.791 131.86 194.041C130.369 195.591 131.127 199.395 132.032 201.087C132.106 201.229 133.59 203.379 133.615 203.348V203.311C133.726 203.928 133.855 204.546 134.015 205.256C134.311 206.547 134.662 207.998 135.149 209.579C135.654 211.259 136.255 212.908 136.947 214.52C137.723 216.329 138.655 218.067 139.732 219.713L139.775 219.769C139.288 219.374 137.884 218.318 137.767 218.25C136.116 217.274 132.352 216.397 130.751 217.799C130.492 218.044 130.288 218.342 130.152 218.671C130.015 219.001 129.949 219.355 129.958 219.712C129.967 220.069 130.05 220.42 130.202 220.743C130.355 221.065 130.573 221.352 130.843 221.585C131.958 222.61 133.824 222.671 135.229 222.412C136.818 222.122 139.682 220.115 139.91 219.942C141.051 221.59 142.3 223.16 143.649 224.642C144.431 225.512 145.244 226.358 146.07 227.198C145.639 226.871 145.244 226.581 145.189 226.55C143.532 225.574 139.775 224.697 138.173 226.099C137.915 226.345 137.711 226.642 137.574 226.971C137.438 227.301 137.371 227.656 137.38 228.012C137.389 228.369 137.472 228.72 137.625 229.043C137.777 229.365 137.996 229.652 138.266 229.885C139.38 230.91 141.247 230.972 142.651 230.712C144.056 230.453 146.556 228.792 147.209 228.341L148.17 229.304C149.71 230.83 151.25 232.343 152.728 233.88C153.246 234.418 153.739 234.967 154.231 235.523C153.843 235.227 153.517 234.986 153.461 234.955C151.811 233.985 148.053 233.102 146.452 234.51C146.193 234.755 145.988 235.052 145.851 235.382C145.713 235.712 145.647 236.067 145.656 236.424C145.664 236.781 145.748 237.132 145.901 237.455C146.054 237.777 146.273 238.064 146.544 238.296C147.659 239.321 149.519 239.383 150.93 239.124C152.34 238.864 154.595 237.357 155.371 236.832C155.858 237.407 156.344 237.987 156.794 238.568C157.065 238.944 157.354 239.29 157.613 239.673H158.919L158.549 239.154C158.272 238.747 157.933 238.352 157.607 237.919C156.862 236.987 156.061 236.067 155.229 235.177C155.931 234.739 158.383 233.139 159.184 231.941C159.985 230.743 160.662 229.008 160.169 227.575C160.064 227.234 159.888 226.919 159.653 226.651C159.418 226.382 159.129 226.166 158.806 226.016C158.482 225.867 158.131 225.787 157.775 225.782C157.419 225.777 157.066 225.847 156.738 225.988C154.792 226.896 154.127 230.718 154.367 232.62C154.367 232.738 154.7 234.09 154.89 234.825C154.392 234.288 153.893 233.751 153.363 233.226C151.909 231.781 150.326 230.292 148.762 228.785Z" fill="black"/>
<path d="M135.555 239.13C135.555 237.697 135.173 235.869 133.972 234.943C133.696 234.717 133.376 234.552 133.033 234.458C132.69 234.365 132.33 234.344 131.979 234.398C131.627 234.452 131.29 234.58 130.991 234.773C130.691 234.965 130.435 235.219 130.239 235.517C129.586 236.585 129.839 238.234 130.412 239.716H135.5C135.532 239.522 135.551 239.326 135.555 239.13Z" fill="black"/>
<path d="M172.168 214.791C174.632 215.909 177.835 214.971 180.077 213.742C182.714 212.303 186.717 206.887 186.717 206.88C186.717 206.874 182.332 205.318 182.024 205.256C178.679 204.527 171.793 205.089 169.865 208.412C169.563 208.976 169.383 209.598 169.337 210.236C169.291 210.874 169.379 211.515 169.597 212.117C169.814 212.719 170.155 213.268 170.598 213.729C171.042 214.19 171.576 214.552 172.168 214.791Z" fill="black"/>
<path d="M165.954 236.196C165.798 235.875 165.577 235.59 165.305 235.36C165.033 235.129 164.715 234.959 164.373 234.86C164.031 234.761 163.672 234.736 163.319 234.785C162.966 234.834 162.628 234.957 162.326 235.146C161.131 235.943 160.706 237.944 160.706 239.729H166.009C166.454 238.59 166.434 237.321 165.954 236.196Z" fill="black"/>
<path d="M130.566 212.513C132.236 212.655 135.777 211.364 135.777 211.364C135.777 211.364 134.219 209.283 134.108 209.165C132.772 207.788 129.384 205.917 127.462 206.874C127.143 207.041 126.863 207.274 126.64 207.558C126.418 207.842 126.258 208.17 126.172 208.521C126.086 208.871 126.075 209.236 126.14 209.591C126.205 209.946 126.345 210.283 126.55 210.58C127.357 211.833 129.137 212.389 130.566 212.513Z" fill="black"/>
<path d="M144.85 237.221C144.575 236.995 144.255 236.829 143.911 236.735C143.568 236.641 143.208 236.62 142.856 236.674C142.504 236.728 142.167 236.856 141.868 237.049C141.568 237.243 141.313 237.497 141.118 237.796C140.801 238.383 140.672 239.053 140.748 239.716H146.261C146.095 238.745 145.596 237.863 144.85 237.221Z" fill="black"/>
<path d="M125.645 236.548C125.645 235.116 125.263 233.288 124.061 232.367C123.786 232.14 123.467 231.974 123.123 231.879C122.779 231.784 122.419 231.763 122.067 231.817C121.715 231.871 121.378 231.999 121.078 232.193C120.778 232.387 120.523 232.642 120.329 232.942C119.22 234.745 120.711 238.222 121.949 239.735H124.838C125.267 238.72 125.539 237.646 125.645 236.548Z" fill="black"/>
<path d="M44.4356 106.581C44.8976 105.827 45.3781 105.136 45.8585 104.469C46.339 104.759 48.5441 106.05 49.7637 106.192C50.9833 106.334 52.4555 106.192 53.3117 105.272C53.5182 105.067 53.6798 104.821 53.786 104.551C53.8923 104.28 53.9409 103.99 53.9287 103.699C53.9165 103.408 53.8438 103.123 53.7153 102.862C53.5868 102.601 53.4052 102.37 53.1823 102.184C51.7964 101.097 48.7597 102.048 47.46 102.931C47.3923 102.98 46.727 103.549 46.2281 103.975C46.4498 103.678 46.6716 103.357 46.8933 103.085C47.7126 102.029 48.5256 101.115 49.2525 100.312C49.6713 99.8616 50.0594 99.4602 50.4228 99.0773C51.0388 99.1144 53.5334 99.2255 54.6606 98.7994C55.7879 98.3733 57.0383 97.5643 57.3894 96.3291C57.4805 96.0507 57.5121 95.7561 57.4821 95.4645C57.4522 95.173 57.3613 94.891 57.2155 94.637C57.0696 94.383 56.8721 94.1627 56.6356 93.9903C56.3992 93.8179 56.1293 93.6974 55.8433 93.6365C54.1124 93.3154 51.8518 95.5572 51.1065 96.9405C51.0449 97.0641 50.2503 99.0526 50.2811 99.0588H50.3181C49.9608 99.4108 49.5789 99.7937 49.1724 100.214C48.4209 101.004 47.5894 101.906 46.7455 102.943C45.8202 104.054 44.9625 105.219 44.1769 106.433C44.0168 106.68 43.8566 106.933 43.7026 107.192V107.81C43.9552 107.396 44.1954 106.982 44.4356 106.581Z" fill="black"/>
<path d="M45.8093 104.135C45.8093 104.135 46.53 102.128 46.5546 101.992C46.8934 100.448 46.6347 97.2741 45.1071 96.3909C44.6888 96.1464 44.1938 96.0692 43.7212 96.1748V102.35C44.3815 102.986 45.0788 103.582 45.8093 104.135Z" fill="black"/>
<path d="M52.6713 131.524L53.7986 130.345C53.9279 130.555 55.4309 132.988 56.5273 133.729C57.5067 134.384 58.9295 134.964 60.106 134.538C60.3857 134.452 60.644 134.308 60.8643 134.115C61.0845 133.922 61.2618 133.684 61.3844 133.418C61.507 133.152 61.5723 132.862 61.576 132.569C61.5796 132.276 61.5216 131.985 61.4057 131.716C60.6666 130.11 57.5375 129.567 55.9729 129.758C55.8559 129.758 54.2667 130.16 53.8663 130.277C54.6979 129.406 55.5294 128.554 56.3856 127.745C57.5373 126.64 58.7572 125.608 60.0383 124.657C60.0999 124.756 61.6583 127.306 62.7855 128.066C63.7649 128.721 65.1878 129.301 66.3642 128.875C66.6435 128.787 66.9013 128.642 67.1211 128.448C67.3409 128.254 67.5177 128.017 67.6401 127.75C67.7626 127.483 67.828 127.194 67.8321 126.901C67.8362 126.607 67.7789 126.316 67.6639 126.047C66.9186 124.447 63.7895 123.897 62.2311 124.095C62.1079 124.095 60.3832 124.521 60.0937 124.62L60.3155 124.447C61.6262 123.54 63.0157 122.752 64.4671 122.094C65.2678 121.717 66.0501 121.409 66.8201 121.118C67.0603 121.625 68.1937 123.922 69.1299 124.713C70.0662 125.503 71.3844 126.189 72.5978 125.911C72.8847 125.855 73.1568 125.74 73.3963 125.572C73.6359 125.404 73.8377 125.188 73.9887 124.937C74.1396 124.686 74.2364 124.406 74.2727 124.115C74.3089 123.825 74.284 123.529 74.1993 123.249C73.6326 121.575 70.5836 120.686 69.0129 120.705C68.9267 120.705 68.0581 120.816 67.4237 120.902C67.7748 120.779 68.1321 120.643 68.4708 120.532C69.7028 120.106 70.9347 119.791 71.9634 119.525C72.5793 119.377 73.1029 119.253 73.6141 119.148C74.1069 119.519 76.1273 121.001 77.3099 121.254C78.4926 121.507 79.9894 121.526 80.938 120.717C81.1647 120.535 81.351 120.307 81.485 120.049C81.619 119.791 81.6979 119.507 81.7164 119.217C81.735 118.926 81.6928 118.635 81.5927 118.361C81.4926 118.088 81.3368 117.839 81.1351 117.629C79.8662 116.394 76.7494 117.012 75.3635 117.771C75.2465 117.839 73.4848 119.062 73.5156 119.08C73.0228 119.179 72.4992 119.284 71.9264 119.414C70.8669 119.661 69.672 119.945 68.3969 120.346C67.0159 120.762 65.6605 121.259 64.3377 121.835C62.8525 122.467 61.4278 123.234 60.0814 124.126L60.0321 124.157C60.3586 123.755 61.2271 122.601 61.2641 122.502C62.0586 121.143 62.804 118.043 61.6275 116.727C61.4272 116.517 61.1854 116.351 60.9174 116.24C60.6494 116.129 60.3612 116.075 60.0712 116.082C59.7813 116.089 59.4959 116.156 59.2336 116.28C58.9712 116.404 58.7376 116.582 58.5476 116.802C57.7038 117.722 57.6545 119.272 57.8701 120.414C58.1103 121.724 59.718 124.083 59.8843 124.274C58.5328 125.215 57.2466 126.247 56.0345 127.362C55.32 127.98 54.624 128.677 53.9341 129.357C54.2051 128.999 54.4453 128.677 54.47 128.628C55.2707 127.269 56.0099 124.169 54.8395 122.854C54.6388 122.644 54.3968 122.479 54.1289 122.368C53.861 122.258 53.573 122.204 53.2834 122.211C52.9937 122.218 52.7086 122.285 52.4463 122.409C52.184 122.532 51.9502 122.709 51.7597 122.928C50.922 123.848 50.8727 125.398 51.0822 126.541C51.2916 127.683 52.659 129.758 53.0224 130.295L52.2402 131.086C51.0082 132.352 49.7763 133.63 48.4889 134.841C48.0454 135.267 47.5958 135.668 47.1461 136.076L47.6081 135.458C48.4027 134.1 49.1419 131 47.9715 129.684C47.7713 129.474 47.5294 129.308 47.2615 129.196C46.9935 129.085 46.7052 129.031 46.4153 129.038C46.1253 129.045 45.84 129.113 45.5776 129.237C45.3153 129.361 45.0816 129.538 44.8917 129.758C44.0478 130.678 43.9986 132.228 44.208 133.371C44.4174 134.513 45.6555 136.391 46.0559 137.027C45.5816 137.428 45.1073 137.836 44.633 138.2C44.325 138.429 44.017 138.664 43.7275 138.874V139.954L44.1526 139.645C44.4852 139.417 44.8116 139.133 45.1443 138.874C45.9142 138.256 46.6534 137.595 47.3925 136.916C47.7498 137.49 49.0618 139.51 50.0412 140.17C51.0206 140.831 52.4434 141.406 53.6199 140.979C53.8995 140.893 54.1579 140.749 54.3782 140.556C54.5984 140.363 54.7757 140.126 54.8983 139.859C55.0209 139.593 55.0862 139.304 55.0899 139.01C55.0935 138.717 55.0355 138.426 54.9196 138.157C54.1805 136.551 51.0452 136.008 49.4868 136.199C49.3883 136.199 48.2857 136.477 47.682 136.638C48.1194 136.224 48.5567 135.81 48.9879 135.403C50.2075 134.124 51.4394 132.821 52.6713 131.524Z" fill="black"/>
<path d="M44.2016 120.655C45.3781 120.655 46.8749 120.346 47.6326 119.352C47.8207 119.125 47.9586 118.86 48.0371 118.576C48.1157 118.291 48.1331 117.993 48.0883 117.701C48.0435 117.409 47.9374 117.13 47.7771 116.883C47.6167 116.635 47.4058 116.424 47.1583 116.264C46.2836 115.727 44.9346 115.937 43.7212 116.406V120.6C43.8799 120.629 44.0404 120.648 44.2016 120.655Z" fill="black"/>
<path d="M46.6162 145.698C46.8797 145.57 47.1133 145.388 47.3018 145.163C47.4904 144.939 47.6296 144.677 47.7104 144.395C47.7912 144.113 47.8117 143.817 47.7707 143.526C47.7297 143.236 47.6281 142.957 47.4724 142.709C46.8565 141.727 45.1872 141.368 43.7212 141.375V145.735C44.6538 146.103 45.6933 146.09 46.6162 145.698Z" fill="black"/>
<path d="M66.0129 116.548C65.8959 117.925 66.9554 120.871 66.9554 120.871C66.9554 120.871 68.6616 119.587 68.7601 119.494C69.8812 118.395 71.4149 115.603 70.608 114.022C70.4707 113.763 70.2806 113.536 70.05 113.355C69.8193 113.174 69.5534 113.044 69.2694 112.973C68.9853 112.902 68.6896 112.892 68.4013 112.943C68.113 112.994 67.8386 113.105 67.596 113.269C66.5673 113.917 66.1176 115.369 66.0129 116.548Z" fill="black"/>
<path d="M45.7662 128.313C45.9546 128.086 46.0929 127.822 46.1719 127.538C46.2509 127.253 46.2689 126.955 46.2247 126.664C46.1804 126.372 46.075 126.093 45.9152 125.845C45.7555 125.597 45.5452 125.386 45.2981 125.225C44.818 124.958 44.2661 124.85 43.7212 124.916V129.456C44.5143 129.324 45.2372 128.92 45.7662 128.313Z" fill="black"/>
<path d="M46.3143 112.491C47.4908 112.491 48.9876 112.182 49.7452 111.188C49.9336 110.961 50.0719 110.697 50.1509 110.413C50.2299 110.128 50.2479 109.83 50.2037 109.539C50.1595 109.247 50.054 108.968 49.8943 108.72C49.7345 108.472 49.5242 108.261 49.2771 108.1C47.7926 107.186 44.9653 108.415 43.7334 109.428V111.812C44.5541 112.169 45.4245 112.398 46.3143 112.491Z" fill="black"/>
</g>
<path d="M257.091 67.0378H48.7413C47.4099 67.0378 46.133 67.5681 45.1915 68.512C44.2501 69.4559 43.7212 70.7362 43.7212 72.071V234.683C43.7212 236.018 44.2501 237.298 45.1915 238.242C46.133 239.186 47.4099 239.717 48.7413 239.717H175.113L189.896 251.24L187.666 239.717H257.091C258.423 239.717 259.7 239.186 260.641 238.242C261.583 237.298 262.112 236.018 262.112 234.683V72.071C262.112 70.7362 261.583 69.4559 260.641 68.512C259.7 67.5681 258.423 67.0378 257.091 67.0378Z" stroke="black" stroke-width="0.516112" stroke-linecap="round" stroke-linejoin="round"/>
<path d="M212.674 102.832H167.271C165.299 100.328 162.786 98.3034 159.922 96.9117C157.057 95.5201 153.916 94.7971 150.733 94.7971C147.55 94.7971 144.408 95.5201 141.544 96.9117C138.679 98.3034 136.166 100.328 134.194 102.832H88.7912C87.324 102.842 85.9195 103.431 84.882 104.471C83.8444 105.511 83.2572 106.919 83.2476 108.39V204.114C83.2492 205.59 83.8327 207.006 84.8712 208.053C85.9096 209.1 87.3186 209.693 88.7912 209.703H212.674C214.147 209.693 215.556 209.1 216.594 208.053C217.633 207.006 218.216 205.59 218.218 204.114V108.39C218.208 106.919 217.621 105.511 216.583 104.471C215.546 103.431 214.141 102.842 212.674 102.832Z" fill="black"/>
<path d="M214.855 100.238H90.9779C88.0693 100.238 85.7114 102.602 85.7114 105.519V201.236C85.7114 204.152 88.0693 206.516 90.9779 206.516H214.855C217.763 206.516 220.121 204.152 220.121 201.236V105.519C220.121 102.602 217.763 100.238 214.855 100.238Z" fill="white" stroke="black" stroke-width="0.516112" stroke-linecap="round" stroke-linejoin="round"/>
<path d="M173.721 113.065C173.721 117.192 172.5 121.225 170.213 124.656C167.927 128.087 164.677 130.761 160.874 132.339C157.072 133.918 152.888 134.331 148.852 133.525C144.815 132.72 141.108 130.733 138.198 127.814C135.288 124.896 133.307 121.179 132.505 117.131C131.703 113.084 132.116 108.889 133.692 105.078C135.267 101.266 137.935 98.0081 141.358 95.7166C144.78 93.425 148.804 92.2025 152.919 92.2038C155.655 92.1931 158.365 92.7255 160.894 93.7702C163.423 94.815 165.72 96.3513 167.654 98.2907C169.588 100.23 171.119 102.534 172.16 105.07C173.202 107.606 173.732 110.323 173.721 113.065Z" fill="white" stroke="black" stroke-width="0.516112" stroke-linecap="round" stroke-linejoin="round"/>
<path d="M161.605 109.798C161.606 108.074 161.097 106.389 160.143 104.955C159.188 103.521 157.831 102.403 156.242 101.743C154.654 101.083 152.906 100.909 151.219 101.246C149.533 101.582 147.984 102.412 146.768 103.631C145.552 104.85 144.724 106.403 144.389 108.094C144.054 109.785 144.226 111.537 144.885 113.13C145.544 114.722 146.658 116.083 148.089 117.04C149.519 117.997 151.2 118.507 152.92 118.506C155.223 118.506 157.432 117.589 159.061 115.956C160.69 114.323 161.605 112.108 161.605 109.798Z" fill="black" stroke="black" stroke-width="0.516112" stroke-linecap="round" stroke-linejoin="round"/>
<path d="M165.768 129.462C162.105 132.351 157.58 133.921 152.919 133.921C148.259 133.921 143.733 132.351 140.07 129.462C140.715 126.527 142.34 123.9 144.677 122.017C147.014 120.134 149.922 119.108 152.919 119.108C155.917 119.108 158.825 120.134 161.162 122.017C163.498 123.9 165.124 126.527 165.768 129.462Z" fill="black" stroke="black" stroke-width="0.516112" stroke-linecap="round" stroke-linejoin="round"/>
<path d="M188.522 157.154H117.317V168.381H188.522V157.154Z" stroke="black" stroke-width="0.516112" stroke-linecap="round" stroke-linejoin="round"/>
<path d="M188.522 179.102H117.317V190.329H188.522V179.102Z" stroke="black" stroke-width="0.516112" stroke-linecap="round" stroke-linejoin="round"/>
<path d="M141.425 165.553C141.113 165.569 140.804 165.49 140.538 165.324C140.329 165.162 140.181 164.933 140.12 164.676C140.041 164.354 140.004 164.024 140.009 163.694V160.161H140.717V163.731C140.715 163.937 140.73 164.144 140.76 164.348C140.781 164.514 140.852 164.669 140.963 164.793C141.095 164.901 141.259 164.96 141.429 164.96C141.598 164.96 141.763 164.901 141.894 164.793C142.001 164.667 142.07 164.513 142.091 164.348C142.121 164.144 142.136 163.937 142.134 163.731V160.161H142.836V163.694C142.841 164.024 142.804 164.354 142.725 164.676C142.663 164.933 142.516 165.162 142.306 165.324C142.044 165.492 141.736 165.572 141.425 165.553Z" fill="#B2B2B2"/>
<path d="M144.875 165.553C144.607 165.562 144.341 165.493 144.111 165.355C143.904 165.223 143.741 165.031 143.643 164.805C143.531 164.55 143.471 164.275 143.464 163.996L144.117 163.823C144.129 164.007 144.16 164.189 144.21 164.367C144.246 164.528 144.322 164.676 144.431 164.799C144.554 164.904 144.71 164.962 144.872 164.962C145.033 164.962 145.19 164.904 145.312 164.799C145.418 164.669 145.471 164.504 145.46 164.336C145.477 164.117 145.418 163.899 145.294 163.718C145.168 163.559 145.03 163.411 144.881 163.274L143.988 162.483C143.822 162.349 143.689 162.177 143.6 161.983C143.51 161.77 143.468 161.541 143.477 161.31C143.466 161.144 143.49 160.977 143.547 160.821C143.604 160.664 143.694 160.522 143.809 160.402C143.931 160.289 144.075 160.201 144.232 160.145C144.388 160.089 144.555 160.065 144.721 160.075C144.909 160.072 145.097 160.102 145.275 160.161C145.428 160.21 145.566 160.297 145.676 160.414C145.794 160.537 145.883 160.685 145.934 160.847C146.002 161.047 146.045 161.254 146.064 161.464L145.448 161.637C145.438 161.473 145.413 161.309 145.374 161.149C145.337 161.015 145.264 160.894 145.164 160.797C145.076 160.723 144.969 160.676 144.855 160.66C144.741 160.644 144.624 160.66 144.519 160.707C144.414 160.754 144.324 160.83 144.26 160.925C144.195 161.021 144.159 161.133 144.154 161.248C144.15 161.387 144.18 161.525 144.24 161.65C144.309 161.771 144.399 161.88 144.505 161.971L145.405 162.761C145.609 162.941 145.787 163.149 145.934 163.379C146.094 163.638 146.176 163.938 146.168 164.243C146.176 164.481 146.118 164.716 146.002 164.923C145.898 165.11 145.742 165.262 145.552 165.361C145.347 165.484 145.114 165.55 144.875 165.553Z" fill="#B2B2B2"/>
<path d="M146.723 165.491V160.161H148.761V160.711H147.468V162.477H148.54V163.002H147.468V164.96H148.798V165.491H146.723Z" fill="#B2B2B2"/>
<path d="M149.377 165.491V160.161H150.449C150.749 160.15 151.049 160.199 151.33 160.303C151.548 160.388 151.729 160.548 151.841 160.754C151.967 161.009 152.027 161.291 152.014 161.575C152.015 161.765 151.992 161.954 151.946 162.137C151.908 162.293 151.836 162.438 151.737 162.564C151.637 162.684 151.504 162.772 151.355 162.817L152.112 165.491H151.41L150.714 163.02H150.141V165.491H149.377ZM150.123 162.459H150.4C150.576 162.466 150.752 162.438 150.917 162.378C150.987 162.356 151.051 162.318 151.104 162.268C151.157 162.218 151.199 162.156 151.225 162.088C151.295 161.92 151.326 161.739 151.318 161.557C151.338 161.32 151.28 161.083 151.151 160.884C151.06 160.802 150.952 160.741 150.836 160.704C150.719 160.668 150.595 160.658 150.474 160.674H150.147L150.123 162.459Z" fill="#B2B2B2"/>
<path d="M152.802 165.491V160.161H153.314L154.823 163.7V160.161H155.439V165.491H154.964L153.437 161.853V165.491H152.802Z" fill="#B2B2B2"/>
<path d="M155.981 165.491L157.114 160.161H157.829L158.962 165.491H158.26L158.02 164.151H156.936L156.677 165.491H155.981ZM157.034 163.638H157.921L157.472 161.236L157.034 163.638Z" fill="#B2B2B2"/>
<path d="M159.492 165.491L159.59 160.161H160.317L161.253 164.484L162.202 160.161H162.929L163.027 165.491H162.411L162.35 161.619L161.45 165.491H161.032L160.138 161.619L160.083 165.491H159.492Z" fill="#B2B2B2"/>
<path d="M163.834 165.491V160.161H165.898V160.711H164.58V162.477H165.645V163.002H164.58V164.96H165.91V165.491H163.834Z" fill="#B2B2B2"/>
<path d="M139.522 187.556V182.221H140.84C141.106 182.207 141.37 182.267 141.604 182.394C141.796 182.51 141.944 182.689 142.023 182.9C142.116 183.155 142.16 183.425 142.152 183.697C142.158 183.948 142.108 184.197 142.004 184.425C141.912 184.626 141.759 184.792 141.567 184.901C141.347 185.025 141.098 185.084 140.846 185.074H140.23V187.544L139.522 187.556ZM140.261 184.537H140.6C140.773 184.542 140.946 184.519 141.111 184.469C141.227 184.422 141.32 184.331 141.37 184.215C141.431 184.052 141.458 183.877 141.45 183.703C141.456 183.506 141.437 183.309 141.394 183.116C141.38 183.054 141.351 182.996 141.31 182.947C141.27 182.898 141.218 182.858 141.16 182.832C140.984 182.771 140.798 182.744 140.612 182.752H140.261V184.537Z" fill="#B2B2B2"/>
<path d="M142.152 187.557L143.28 182.221H143.994L145.134 187.557H144.45L144.204 186.21H143.119L142.867 187.557H142.152ZM143.199 185.704H144.086L143.643 183.301L143.199 185.704Z" fill="#B2B2B2"/>
<path d="M146.914 187.612C146.646 187.621 146.38 187.553 146.15 187.414C145.946 187.283 145.785 187.094 145.688 186.871C145.575 186.614 145.512 186.337 145.503 186.056L146.156 185.883C146.168 186.067 146.199 186.249 146.249 186.426C146.283 186.588 146.36 186.737 146.47 186.859C146.593 186.964 146.749 187.022 146.911 187.022C147.072 187.022 147.229 186.964 147.351 186.859C147.458 186.729 147.511 186.563 147.499 186.395C147.51 186.189 147.451 185.984 147.333 185.815C147.21 185.653 147.072 185.504 146.92 185.37L146.027 184.58C145.864 184.439 145.732 184.267 145.639 184.073C145.552 183.86 145.51 183.631 145.516 183.4C145.507 183.234 145.533 183.068 145.59 182.912C145.647 182.756 145.735 182.614 145.848 182.492C145.971 182.38 146.115 182.294 146.271 182.239C146.428 182.183 146.594 182.16 146.76 182.171C146.948 182.167 147.135 182.194 147.314 182.252C147.467 182.3 147.605 182.387 147.715 182.505C147.832 182.628 147.92 182.776 147.973 182.937C148.041 183.137 148.084 183.344 148.103 183.555L147.487 183.728C147.476 183.565 147.451 183.404 147.413 183.246C147.377 183.109 147.305 182.985 147.203 182.888C147.084 182.791 146.932 182.742 146.778 182.752C146.694 182.736 146.607 182.742 146.526 182.767C146.444 182.793 146.37 182.838 146.309 182.899C146.249 182.96 146.204 183.034 146.178 183.116C146.153 183.198 146.147 183.285 146.162 183.369C146.158 183.508 146.188 183.646 146.249 183.771C146.316 183.894 146.406 184.003 146.514 184.092L147.413 184.882C147.617 185.063 147.796 185.27 147.943 185.5C148.102 185.76 148.183 186.06 148.177 186.365C148.183 186.604 148.126 186.841 148.01 187.05C147.904 187.236 147.749 187.387 147.561 187.489C147.358 187.58 147.136 187.622 146.914 187.612Z" fill="#B2B2B2"/>
<path d="M150.031 187.612C149.762 187.622 149.497 187.553 149.267 187.415C149.063 187.283 148.902 187.094 148.805 186.871C148.695 186.613 148.632 186.337 148.62 186.056L149.273 185.883C149.288 186.067 149.319 186.248 149.365 186.426C149.402 186.588 149.481 186.737 149.593 186.859C149.715 186.965 149.87 187.023 150.031 187.023C150.191 187.023 150.347 186.965 150.468 186.859C150.575 186.729 150.628 186.563 150.616 186.396C150.627 186.189 150.568 185.984 150.45 185.815C150.327 185.653 150.189 185.504 150.037 185.37L149.144 184.58C148.981 184.44 148.849 184.267 148.756 184.074C148.668 183.86 148.626 183.631 148.632 183.4C148.624 183.234 148.649 183.068 148.706 182.912C148.764 182.756 148.852 182.614 148.965 182.493C149.217 182.268 149.547 182.153 149.883 182.171C150.071 182.167 150.258 182.194 150.437 182.252C150.59 182.302 150.727 182.389 150.838 182.505C150.95 182.63 151.036 182.777 151.09 182.937C151.16 183.136 151.204 183.344 151.219 183.555L150.604 183.728C150.591 183.565 150.564 183.404 150.523 183.246C150.488 183.11 150.415 182.986 150.314 182.888C150.196 182.792 150.047 182.744 149.895 182.752C149.738 182.744 149.584 182.797 149.464 182.9C149.409 182.958 149.367 183.028 149.341 183.103C149.314 183.179 149.304 183.259 149.31 183.339C149.304 183.477 149.331 183.615 149.39 183.74C149.457 183.863 149.547 183.972 149.655 184.061L150.554 184.852C150.761 185.032 150.941 185.239 151.09 185.469C151.244 185.731 151.323 186.03 151.318 186.334C151.325 186.573 151.267 186.81 151.152 187.019C151.046 187.205 150.89 187.357 150.702 187.458C150.495 187.564 150.264 187.617 150.031 187.612Z" fill="#B2B2B2"/>
<path d="M152.575 187.557L151.706 182.221H152.322L152.895 186.05L153.609 182.239H154.133L154.86 186.074L155.414 182.221H156.03L155.18 187.557H154.638L153.899 183.604L153.147 187.557H152.575Z" fill="#B2B2B2"/>
<path d="M158.001 187.612C157.7 187.628 157.4 187.555 157.139 187.402C156.92 187.255 156.759 187.037 156.683 186.785C156.584 186.49 156.536 186.181 156.541 185.871V183.845C156.536 183.538 156.584 183.233 156.683 182.943C156.767 182.703 156.93 182.498 157.145 182.363C157.406 182.217 157.703 182.148 158.001 182.165C158.298 182.15 158.593 182.221 158.851 182.369C159.064 182.505 159.226 182.706 159.313 182.943C159.41 183.234 159.456 183.539 159.449 183.845V185.877C159.456 186.185 159.41 186.492 159.313 186.785C159.232 187.036 159.069 187.253 158.851 187.402C158.596 187.558 158.299 187.632 158.001 187.612ZM158.001 186.994C158.159 187.008 158.317 186.964 158.445 186.871C158.552 186.787 158.625 186.666 158.648 186.531C158.687 186.361 158.706 186.187 158.703 186.013V183.703C158.706 183.53 158.688 183.358 158.648 183.19C158.625 183.059 158.552 182.942 158.445 182.863C158.313 182.777 158.158 182.736 158.001 182.746C157.843 182.737 157.686 182.778 157.552 182.863C157.445 182.943 157.37 183.059 157.342 183.19C157.308 183.359 157.291 183.531 157.293 183.703V186.037C157.292 186.211 157.308 186.385 157.342 186.556C157.373 186.689 157.446 186.809 157.552 186.896C157.682 186.991 157.841 187.036 158.001 187.025V186.994Z" fill="#B2B2B2"/>
<path d="M160.157 187.556V182.221H161.229C161.526 182.212 161.823 182.26 162.103 182.363C162.326 182.446 162.51 182.609 162.621 182.82C162.742 183.074 162.799 183.354 162.787 183.635C162.79 183.824 162.769 184.013 162.725 184.197C162.687 184.354 162.616 184.502 162.516 184.629C162.413 184.746 162.282 184.834 162.134 184.882L162.885 187.556H162.171L161.475 185.049H160.896V187.556H160.157ZM160.896 184.518H161.179C161.353 184.525 161.527 184.498 161.69 184.438C161.754 184.415 161.812 184.379 161.862 184.334C161.911 184.288 161.952 184.233 161.98 184.172C162.049 184.002 162.081 183.819 162.072 183.635C162.094 183.397 162.033 183.16 161.9 182.962C161.809 182.881 161.702 182.821 161.587 182.784C161.471 182.748 161.349 182.737 161.229 182.752H160.896V184.518Z" fill="#B2B2B2"/>
<path d="M163.545 187.557V182.221H164.703C165.025 182.208 165.345 182.269 165.639 182.4C165.861 182.518 166.036 182.71 166.132 182.943C166.236 183.232 166.284 183.538 166.274 183.845V185.809C166.284 186.134 166.236 186.458 166.132 186.766C166.042 187.01 165.872 187.216 165.652 187.353C165.378 187.501 165.069 187.572 164.758 187.557H163.545ZM164.284 187.019H164.709C164.914 187.039 165.12 186.985 165.288 186.865C165.408 186.739 165.48 186.575 165.491 186.402C165.518 186.16 165.53 185.916 165.528 185.673V183.938C165.533 183.714 165.514 183.49 165.473 183.271C165.463 183.195 165.437 183.123 165.398 183.058C165.359 182.994 165.307 182.938 165.245 182.894C165.075 182.802 164.883 182.762 164.691 182.777H164.284V187.019Z" fill="#B2B2B2"/>
<path d="M141.672 148.755V140.109H142.873V147.884H145.066V148.742L141.672 148.755Z" fill="black"/>
<path d="M148.035 148.854C147.547 148.881 147.063 148.763 146.643 148.514C146.291 148.283 146.028 147.939 145.897 147.538C145.741 147.052 145.668 146.542 145.682 146.031V142.758C145.671 142.258 145.751 141.76 145.916 141.288C146.052 140.902 146.312 140.572 146.655 140.35C147.08 140.115 147.562 140.003 148.047 140.028C148.529 140.002 149.008 140.115 149.427 140.356C149.772 140.576 150.032 140.907 150.166 141.294C150.329 141.765 150.406 142.26 150.394 142.758V146.031C150.405 146.533 150.328 147.032 150.166 147.507C150.033 147.905 149.774 148.248 149.427 148.483C149.01 148.743 148.525 148.872 148.035 148.854ZM148.035 147.902C148.291 147.923 148.546 147.853 148.755 147.705C148.928 147.565 149.046 147.368 149.088 147.149C149.149 146.875 149.178 146.596 149.174 146.315V142.53C149.178 142.251 149.149 141.974 149.088 141.702C149.044 141.491 148.926 141.302 148.755 141.171C148.542 141.032 148.289 140.967 148.035 140.986C147.779 140.97 147.525 141.035 147.308 141.171C147.134 141.3 147.013 141.489 146.969 141.702C146.908 141.974 146.88 142.251 146.883 142.53V146.315C146.88 146.596 146.909 146.875 146.969 147.149C147.011 147.37 147.131 147.567 147.308 147.705C147.523 147.846 147.779 147.909 148.035 147.884V147.902Z" fill="black"/>
<path d="M153.622 148.866C153.165 148.889 152.713 148.768 152.328 148.52C151.989 148.269 151.742 147.913 151.626 147.507C151.467 146.994 151.392 146.458 151.404 145.92V143.03C151.394 142.484 151.46 141.939 151.601 141.412C151.713 141.004 151.961 140.646 152.303 140.399C152.728 140.142 153.219 140.019 153.714 140.047C154.165 140.026 154.614 140.119 155.02 140.319C155.349 140.5 155.602 140.794 155.734 141.146C155.895 141.6 155.97 142.079 155.956 142.561V142.882H154.829V142.616C154.834 142.306 154.81 141.995 154.755 141.69C154.723 141.482 154.615 141.293 154.453 141.159C154.239 141.026 153.989 140.965 153.739 140.986C153.458 140.96 153.179 141.047 152.962 141.227C152.794 141.411 152.69 141.645 152.667 141.894C152.625 142.211 152.605 142.531 152.605 142.851V146.031C152.599 146.377 152.63 146.723 152.698 147.063C152.737 147.302 152.859 147.521 153.042 147.68C153.255 147.828 153.511 147.9 153.769 147.884C154.029 147.901 154.285 147.822 154.49 147.662C154.677 147.486 154.8 147.254 154.841 147.001C154.914 146.643 154.947 146.279 154.94 145.914V145.296H153.843V144.444H156.024V148.718H155.266L155.149 147.73C155.046 148.036 154.863 148.309 154.619 148.52C154.34 148.753 153.985 148.876 153.622 148.866Z" fill="black"/>
<path d="M157.317 148.755V140.109H158.5V148.755H157.317Z" fill="black"/>
<path d="M159.892 148.755V140.109H160.711L163.175 145.846V140.109H164.161V148.755H163.391L160.927 142.857V148.755H159.892Z" fill="black"/>
<path d="M217.386 267.205C218.278 267.439 219.2 267.541 220.121 267.507C220.121 267.507 219.708 266.235 219.671 266.155C219.24 265.259 217.897 263.783 216.801 263.932C216.619 263.961 216.446 264.029 216.292 264.13C216.138 264.232 216.007 264.365 215.907 264.52C215.808 264.676 215.742 264.851 215.715 265.033C215.687 265.216 215.699 265.402 215.748 265.58C215.886 265.954 216.105 266.293 216.388 266.574C216.671 266.854 217.012 267.07 217.386 267.205Z" fill="black"/>
<path d="M218.057 272.843C218.971 272.839 219.878 272.697 220.749 272.423C221.037 273.416 221.389 274.39 221.803 275.338C222.043 275.894 222.301 276.443 222.566 276.993L222.24 276.524C221.593 275.776 219.905 274.708 218.883 275.14C218.718 275.218 218.572 275.33 218.453 275.467C218.333 275.605 218.243 275.766 218.189 275.94C218.135 276.114 218.117 276.297 218.137 276.478C218.156 276.66 218.213 276.835 218.304 276.993C218.536 277.317 218.836 277.586 219.183 277.781C219.53 277.976 219.915 278.093 220.312 278.123C221.2 278.123 222.082 277.988 222.93 277.722L223.244 278.339C223.743 279.346 224.248 280.34 224.716 281.335C224.882 281.687 225.03 282.039 225.178 282.391C225.036 282.181 224.919 282.008 224.895 281.983C224.248 281.236 222.56 280.167 221.544 280.606C221.378 280.682 221.23 280.793 221.11 280.93C220.989 281.068 220.899 281.229 220.844 281.403C220.79 281.578 220.772 281.762 220.793 281.944C220.814 282.126 220.872 282.301 220.965 282.459C221.197 282.782 221.497 283.051 221.844 283.246C222.191 283.442 222.576 283.558 222.973 283.589C223.838 283.594 224.698 283.465 225.523 283.206C225.665 283.57 225.806 283.935 225.93 284.293C226.01 284.54 226.102 284.774 226.164 285.022C226.225 285.269 226.299 285.522 226.367 285.763C226.484 286.238 226.601 286.726 226.699 287.189C226.773 287.516 226.835 287.807 226.897 288.134C226.743 287.782 226.41 287.103 226.379 287.053C225.856 286.213 224.347 284.898 223.299 285.201C223.122 285.25 222.958 285.337 222.817 285.455C222.675 285.573 222.561 285.72 222.48 285.885C222.399 286.051 222.354 286.232 222.348 286.416C222.341 286.6 222.374 286.784 222.443 286.954C222.624 287.31 222.879 287.621 223.192 287.868C223.505 288.114 223.867 288.289 224.254 288.381C225.155 288.515 226.07 288.515 226.971 288.381C227.069 288.894 227.168 289.394 227.248 289.869C227.432 290.919 227.574 291.864 227.679 292.661H228.406C228.276 291.833 228.11 290.851 227.894 289.752C227.79 289.227 227.673 288.671 227.543 288.097C228.062 287.891 228.568 287.654 229.059 287.387C229.726 287.96 230.468 288.44 231.264 288.813C231.067 289.295 230.87 289.771 230.648 290.209C230.247 291.135 229.866 291.957 229.533 292.679H230.315C230.605 292.031 230.931 291.296 231.251 290.487C231.455 289.993 231.664 289.462 231.867 288.912C232.753 289.119 233.665 289.189 234.572 289.122C234.965 289.061 235.34 288.915 235.671 288.693C236.002 288.471 236.281 288.179 236.487 287.838C236.568 287.672 236.614 287.491 236.621 287.307C236.628 287.122 236.596 286.939 236.527 286.767C236.459 286.596 236.355 286.441 236.223 286.313C236.091 286.184 235.933 286.085 235.76 286.022C234.713 285.67 233.112 286.862 232.527 287.665C232.49 287.708 232.169 288.282 231.978 288.616C232.058 288.387 232.145 288.171 232.225 287.943C232.391 287.486 232.545 287.022 232.711 286.522C232.785 286.281 232.859 286.04 232.933 285.787C233.007 285.534 233.062 285.281 233.13 285.022C233.272 284.404 233.389 283.786 233.494 283.169C234.312 283.509 235.179 283.718 236.062 283.786C236.46 283.786 236.852 283.698 237.212 283.528C237.572 283.358 237.89 283.111 238.144 282.804C238.25 282.654 238.323 282.483 238.359 282.302C238.394 282.121 238.391 281.935 238.35 281.755C238.308 281.576 238.23 281.407 238.119 281.26C238.008 281.113 237.868 280.991 237.707 280.902C236.721 280.396 234.96 281.335 234.257 282.032C234.214 282.076 233.765 282.65 233.531 282.946C233.586 282.57 233.648 282.193 233.697 281.816C233.832 280.717 233.937 279.599 234.042 278.481C234.079 278.142 234.116 277.802 234.146 277.462C234.997 277.797 235.891 278.005 236.801 278.08C237.199 278.077 237.592 277.988 237.953 277.819C238.313 277.649 238.633 277.403 238.889 277.098C238.995 276.948 239.068 276.776 239.104 276.596C239.139 276.415 239.136 276.228 239.095 276.049C239.054 275.869 238.975 275.701 238.864 275.554C238.754 275.407 238.613 275.285 238.452 275.196C237.467 274.683 235.705 275.622 235.003 276.32C234.947 276.376 234.307 277.178 234.153 277.388C234.233 276.641 234.319 275.894 234.436 275.165C234.578 274.175 234.783 273.195 235.052 272.232C235.907 272.57 236.808 272.778 237.725 272.849C238.123 272.849 238.516 272.76 238.875 272.591C239.235 272.421 239.553 272.174 239.807 271.867C239.913 271.717 239.986 271.545 240.022 271.365C240.057 271.184 240.054 270.998 240.013 270.818C239.972 270.639 239.893 270.47 239.782 270.323C239.671 270.176 239.531 270.054 239.37 269.965C238.384 269.459 236.623 270.397 235.92 271.095C235.865 271.151 235.175 272.015 235.064 272.182C235.064 272.127 235.064 272.065 235.107 272.009C235.409 271.052 235.796 270.124 236.265 269.236C236.518 268.742 236.783 268.285 237.054 267.847C237.848 268.269 238.702 268.569 239.585 268.736C239.981 268.779 240.381 268.736 240.757 268.608C241.134 268.48 241.478 268.27 241.766 267.995C241.888 267.857 241.979 267.694 242.034 267.517C242.089 267.341 242.107 267.155 242.085 266.971C242.064 266.788 242.004 266.611 241.91 266.452C241.815 266.293 241.689 266.156 241.538 266.05C240.614 265.432 238.76 266.173 237.984 266.791L237.276 267.501C237.399 267.303 237.528 267.1 237.651 266.914C238.113 266.216 238.581 265.605 239 265.062C239.241 264.753 239.462 264.487 239.672 264.234C240.566 264.244 241.458 264.117 242.314 263.857C242.684 263.712 243.018 263.487 243.292 263.199C243.567 262.911 243.775 262.567 243.903 262.19C243.948 262.011 243.955 261.825 243.924 261.643C243.892 261.462 243.822 261.289 243.719 261.136C243.616 260.984 243.483 260.854 243.326 260.757C243.17 260.66 242.995 260.597 242.813 260.572C241.711 260.455 240.405 261.968 239.998 262.869C239.967 262.95 239.561 264.234 239.585 264.234C239.382 264.475 239.16 264.728 238.926 265.012C238.495 265.543 238.009 266.149 237.534 266.865C237.007 267.604 236.524 268.373 236.087 269.168C235.594 270.058 235.182 270.99 234.855 271.954C234.855 271.954 234.855 271.954 234.855 271.985C234.855 271.663 234.855 270.749 234.855 270.682C234.725 269.7 233.906 267.878 232.816 267.674C232.635 267.646 232.449 267.657 232.272 267.705C232.095 267.754 231.93 267.839 231.788 267.955C231.645 268.072 231.529 268.217 231.446 268.381C231.363 268.545 231.316 268.725 231.307 268.909C231.321 269.308 231.423 269.698 231.603 270.054C231.784 270.409 232.041 270.72 232.354 270.966C233.115 271.465 233.945 271.848 234.818 272.102C234.509 273.089 234.266 274.096 234.091 275.116C233.986 275.733 233.9 276.314 233.814 276.919C233.814 276.635 233.814 276.382 233.814 276.351C233.685 275.363 232.865 273.541 231.775 273.337C231.594 273.309 231.408 273.32 231.231 273.368C231.054 273.417 230.889 273.502 230.747 273.618C230.604 273.735 230.488 273.88 230.405 274.044C230.322 274.208 230.275 274.388 230.266 274.572C230.282 274.971 230.384 275.362 230.566 275.717C230.748 276.072 231.005 276.384 231.319 276.629C232.062 277.12 232.874 277.497 233.728 277.747L233.635 278.438C233.506 279.556 233.377 280.668 233.216 281.755C233.161 282.137 233.093 282.508 233.025 282.885C233.025 282.638 233.025 282.428 233.025 282.391C232.896 281.409 232.077 279.587 230.987 279.383C230.805 279.355 230.62 279.366 230.443 279.414C230.265 279.463 230.1 279.548 229.958 279.664C229.816 279.781 229.7 279.926 229.617 280.09C229.534 280.254 229.487 280.434 229.477 280.618C229.493 281.017 229.595 281.408 229.777 281.763C229.959 282.118 230.216 282.43 230.531 282.675C231.25 283.155 232.037 283.524 232.865 283.768C232.785 284.151 232.705 284.534 232.613 284.898C232.539 285.151 232.49 285.392 232.403 285.639C232.317 285.886 232.249 286.127 232.169 286.368C232.003 286.825 231.837 287.3 231.658 287.745C231.541 288.054 231.424 288.363 231.307 288.64C231.362 288.258 231.467 287.51 231.467 287.449C231.456 286.58 231.22 285.729 230.783 284.978C230.793 284.882 230.793 284.785 230.783 284.688C230.76 284.505 230.698 284.329 230.602 284.171C230.506 284.013 230.379 283.877 230.227 283.773C230.075 283.668 229.903 283.596 229.722 283.562C229.541 283.528 229.355 283.533 229.176 283.576C228.11 283.86 227.432 285.744 227.377 286.732C227.377 286.794 227.414 287.43 227.445 287.831C227.389 287.597 227.34 287.368 227.285 287.127C227.174 286.658 227.044 286.183 226.915 285.682L226.693 284.947C226.619 284.7 226.521 284.447 226.435 284.194C226.219 283.613 225.979 283.039 225.72 282.465C226.584 282.281 227.414 281.966 228.184 281.532C228.516 281.312 228.795 281.021 229.003 280.681C229.21 280.34 229.341 279.959 229.385 279.562C229.39 279.378 229.356 279.195 229.286 279.024C229.215 278.854 229.11 278.701 228.976 278.574C228.842 278.448 228.683 278.351 228.51 278.29C228.336 278.23 228.152 278.206 227.968 278.222C226.866 278.339 225.911 280.075 225.714 281.069C225.714 281.131 225.634 281.841 225.609 282.23C225.449 281.89 225.295 281.545 225.123 281.199C224.636 280.204 224.106 279.216 223.583 278.228L223.108 277.314C224.003 277.131 224.865 276.813 225.665 276.369C225.996 276.147 226.275 275.855 226.482 275.514C226.69 275.173 226.821 274.79 226.866 274.393C226.871 274.209 226.837 274.026 226.766 273.855C226.696 273.685 226.59 273.532 226.457 273.405C226.323 273.279 226.164 273.182 225.99 273.121C225.817 273.061 225.632 273.037 225.449 273.053C224.353 273.17 223.398 274.906 223.195 275.9C223.195 275.974 223.09 276.999 223.078 277.259C222.733 276.592 222.394 275.919 222.086 275.245C221.665 274.337 221.303 273.403 221.002 272.448C221.903 272.264 222.771 271.943 223.577 271.497C223.908 271.276 224.187 270.985 224.394 270.645C224.601 270.304 224.732 269.923 224.778 269.527C224.783 269.343 224.749 269.16 224.679 268.99C224.609 268.82 224.504 268.666 224.371 268.539C224.238 268.412 224.08 268.315 223.907 268.253C223.734 268.191 223.55 268.166 223.367 268.18C222.265 268.304 221.31 270.033 221.113 271.027C221.113 271.108 220.996 272.207 220.989 272.411C220.989 272.355 220.953 272.3 220.934 272.244C220.66 271.279 220.473 270.291 220.374 269.292C220.312 268.736 220.287 268.211 220.269 267.692C221.164 267.609 222.04 267.388 222.868 267.038C223.224 266.851 223.534 266.588 223.778 266.268C224.022 265.948 224.193 265.578 224.279 265.185C224.303 265.002 224.289 264.816 224.237 264.639C224.185 264.462 224.097 264.298 223.978 264.157C223.859 264.016 223.712 263.902 223.546 263.822C223.381 263.741 223.2 263.697 223.016 263.691C221.913 263.691 220.768 265.333 220.466 266.278C220.466 266.328 220.337 266.865 220.263 267.26C220.263 267.026 220.263 266.785 220.263 266.562C220.263 265.722 220.318 264.957 220.374 264.277C220.404 263.888 220.441 263.542 220.478 263.215C221.228 262.728 221.901 262.13 222.474 261.443C222.702 261.116 222.857 260.744 222.928 260.352C222.999 259.959 222.985 259.556 222.887 259.17C222.825 258.996 222.727 258.836 222.599 258.703C222.472 258.569 222.317 258.463 222.146 258.393C221.976 258.323 221.792 258.29 221.607 258.297C221.423 258.303 221.242 258.348 221.076 258.429C220.09 258.942 219.844 260.899 219.998 261.9C219.998 261.986 220.38 263.283 220.398 263.271C220.355 263.586 220.312 263.888 220.275 264.29C220.207 264.969 220.139 265.735 220.121 266.581C220.087 267.487 220.108 268.394 220.183 269.298C220.259 270.314 220.428 271.321 220.688 272.306C220.688 272.306 220.688 272.306 220.688 272.337C220.515 272.065 220.004 271.311 219.961 271.262C219.314 270.509 217.62 269.446 216.604 269.879C216.439 269.956 216.292 270.067 216.172 270.204C216.052 270.342 215.962 270.503 215.907 270.677C215.853 270.851 215.835 271.035 215.855 271.217C215.876 271.398 215.933 271.573 216.025 271.731C216.262 272.055 216.566 272.322 216.918 272.514C217.269 272.706 217.658 272.818 218.057 272.843Z" fill="black"/>
<path d="M237.035 267.631C237.035 267.631 237.393 266.34 237.399 266.253C237.54 265.272 237.226 263.295 236.228 262.814C236.061 262.738 235.879 262.698 235.696 262.698C235.512 262.697 235.33 262.735 235.162 262.81C234.994 262.884 234.844 262.994 234.721 263.131C234.598 263.267 234.505 263.429 234.448 263.604C234.357 263.993 234.352 264.397 234.434 264.787C234.516 265.178 234.683 265.546 234.923 265.864C235.536 266.555 236.248 267.15 237.035 267.631Z" fill="black"/>
<path d="M233.038 291.277H224.796L225.622 310.403H232.219L233.038 291.277Z" fill="black"/>
<path d="M243.547 310.966H136.849V331.691H243.547V310.966Z" fill="white" stroke="black" stroke-width="0.516112" stroke-linecap="round" stroke-linejoin="round"/>
<path d="M243.547 310.966H136.849V317.882H243.547V310.966Z" fill="black" stroke="black" stroke-width="0.516112" stroke-linecap="round" stroke-linejoin="round"/>
<path d="M246.688 310.966H133.708V314.652H246.688V310.966Z" fill="white" stroke="black" stroke-width="0.516112" stroke-linecap="round" stroke-linejoin="round"/>
<path d="M207.5 303.956L194.177 270.706C194.149 270.573 194.092 270.448 194.011 270.34C193.929 270.231 193.825 270.142 193.705 270.079C193.585 270.015 193.453 269.979 193.318 269.972C193.182 269.966 193.047 269.989 192.922 270.04C192.797 270.092 192.684 270.171 192.593 270.271C192.501 270.371 192.432 270.489 192.392 270.619C192.351 270.749 192.339 270.885 192.357 271.02C192.375 271.155 192.422 271.284 192.495 271.398L205.812 304.648C205.977 305.073 206.057 305.526 206.046 305.982C206.045 306.925 205.671 307.83 205.006 308.498C204.341 309.165 203.44 309.542 202.498 309.545H191.842V311.398H202.498C203.93 311.396 205.303 310.825 206.314 309.809C207.326 308.794 207.894 307.417 207.894 305.982C207.895 305.287 207.761 304.599 207.5 303.956Z" fill="black"/>
<path d="M198.105 237.811L194.582 237.458L188.276 300.679L191.799 301.032L198.105 237.811Z" fill="white" stroke="black" stroke-width="0.518686" stroke-linecap="round" stroke-linejoin="round"/>
<path d="M180.028 307.557L145.614 309.076V310.811H180.028V307.557Z" fill="white" stroke="black" stroke-width="0.516112" stroke-linecap="round" stroke-linejoin="round"/>
<path d="M83.0997 304.883L79.8721 331.617H134.385L118.025 323.731C118.025 323.731 119.663 321.434 119.824 319.951C119.984 318.469 115.512 310.391 115.105 309.663L114.742 307.229C114.742 307.229 113.96 295.724 114.409 293.488C114.859 291.253 115.968 286.004 113.738 280.081C111.508 274.159 105.73 263.993 105.73 263.993L88.4833 258.966C88.4833 258.966 80.5743 269.916 82.0218 281.532C82.8986 289.283 83.2587 297.084 83.0997 304.883Z" fill="#B2B2B2" stroke="black" stroke-width="0.516112" stroke-linecap="round" stroke-linejoin="round"/>
<path d="M134.385 331.617L118.025 323.731L104.449 331.617H134.385Z" fill="black" stroke="black" stroke-width="0.516112" stroke-linecap="round" stroke-linejoin="round"/>
<path d="M118.025 323.731L96.0659 330.141" stroke="black" stroke-width="0.516112" stroke-linecap="round" stroke-linejoin="round"/>
<path d="M99.5093 327.35L94.9204 331.129" stroke="black" stroke-width="0.516112" stroke-linecap="round" stroke-linejoin="round"/>
<path d="M118.111 224.339C118.837 226.415 119.293 228.575 119.466 230.768C119.836 234.739 119.053 236.907 120.045 238.129C121.037 239.352 122.016 239.68 121.437 240.97C120.858 242.261 118.413 243.126 118.413 243.126C118.413 243.126 116.078 248.387 114.674 250.042C113.27 251.697 107.954 250.042 107.954 250.042L106.143 255.693L93.7681 249.69L95.3696 243.91L92.9058 236.351C92.9058 236.351 98.5603 219.522 118.111 224.339Z" fill="white" stroke="black" stroke-width="0.516112" stroke-linecap="round" stroke-linejoin="round"/>
<path d="M107.96 250.018L105.287 248.579L106.679 253.13L107.96 250.018Z" fill="black" stroke="black" stroke-width="0.516112" stroke-linecap="round" stroke-linejoin="round"/>
<path d="M112.518 242.743C112.518 242.743 113.898 244.595 115.69 244.527" stroke="black" stroke-width="0.516112" stroke-linecap="round" stroke-linejoin="round"/>
<path d="M117.964 235.443C117.871 236.301 117.477 236.968 117.083 236.925C116.688 236.882 116.43 236.153 116.522 235.295C116.615 234.436 117.003 233.775 117.403 233.813C117.803 233.85 118.062 234.584 117.964 235.443Z" fill="black"/>
<path d="M115.931 232.423C115.931 232.423 117.366 230.441 118.746 232.269" stroke="black" stroke-width="0.516112" stroke-linecap="round" stroke-linejoin="round"/>
<path d="M100.778 213.223C100.778 213.223 90.9964 212.432 88.3601 218.447C85.7237 224.463 85.6498 232.769 86.697 235.684C87.7441 238.599 91.0087 242.977 92.3084 244.237C93.6081 245.497 95.7824 246.399 97.6611 245.577C99.5398 244.756 101.813 241.18 102.386 238.883C102.958 236.585 102.62 234.412 103.186 234.362C104.545 234.462 105.91 234.377 107.246 234.109C109.987 233.603 115.506 231.145 118.512 226.964C121.517 222.783 120.975 218.126 119.836 216.323C118.696 214.52 106.494 209.882 100.778 213.223Z" fill="black" stroke="black" stroke-width="0.516112" stroke-linecap="round" stroke-linejoin="round"/>
<path d="M100.624 211.407C100.624 211.407 100.741 213.556 99.3923 214.872C98.0433 216.187 91.2369 218.966 91.2369 218.966C91.2369 218.966 89.001 224.351 88.1571 225.951C87.3132 227.55 86.3831 227.902 85.3237 227.34C84.2642 226.778 79.3796 224.141 79.7061 223.166C80.0325 222.19 81.1043 221.51 81.1351 220.17C81.1659 218.83 80.1988 217.262 80.9688 216.335C81.7329 215.501 82.5564 214.722 83.4326 214.007C83.4326 214.007 81.8927 209.357 83.2047 208.591C84.5167 207.825 87.6089 208.264 88.4096 208.122C89.2104 207.979 90.393 204.058 94.0642 204.33C95.0972 204.38 96.1011 204.689 96.9844 205.229C97.8677 205.768 98.6023 206.521 99.1213 207.418C99.5172 207.332 99.9308 207.396 100.282 207.598C100.634 207.799 100.898 208.125 101.025 208.511C101.238 209.493 101.096 210.52 100.624 211.407Z" fill="white" stroke="black" stroke-width="0.516112" stroke-linecap="round" stroke-linejoin="round"/>
<path d="M88.4219 208.122L91.1568 208.745" stroke="black" stroke-width="0.516112" stroke-linecap="round" stroke-linejoin="round"/>
<path d="M91.3413 206.967C91.3413 206.967 91.5138 208.554 90.1525 210.882C88.7912 213.21 84.1715 218.911 82.4468 220.417" stroke="black" stroke-width="0.516112" stroke-linecap="round" stroke-linejoin="round"/>
<path d="M83.4692 214.007C84.1494 213.314 84.9939 212.805 85.9236 212.529C86.8534 212.252 87.8379 212.217 88.785 212.426" stroke="black" stroke-width="0.516112" stroke-linecap="round" stroke-linejoin="round"/>
<path d="M98.61 208.165C98.61 208.165 94.52 213.025 91.6188 216.193C88.7176 219.361 84.9171 221.455 84.5537 223.888" stroke="black" stroke-width="0.516112" stroke-linecap="round" stroke-linejoin="round"/>
<path d="M95.4004 212.111C95.4004 212.111 98.702 209.419 100.624 211.413" stroke="black" stroke-width="0.516112" stroke-linecap="round" stroke-linejoin="round"/>
<path d="M106.494 237.061C106.494 237.061 104.338 231.898 102.072 233.232C99.805 234.566 100.452 240.254 101.524 241.823C102.595 243.391 104.634 242.033 104.634 242.033" fill="white"/>
<path d="M106.494 237.061C106.494 237.061 104.338 231.898 102.072 233.232C99.805 234.566 100.452 240.254 101.524 241.823C102.595 243.391 104.634 242.033 104.634 242.033" stroke="black" stroke-width="0.516112" stroke-linecap="round" stroke-linejoin="round"/>
<path d="M91.7417 248.43C91.7417 248.43 108.108 252.784 109.124 254.106C110.141 255.427 109.906 256.576 109.346 257.348C108.764 258.456 108.279 259.614 107.898 260.807C107.898 260.807 108.681 263.277 108.237 264.271C107.883 264.848 107.365 265.306 106.749 265.586C106.133 265.865 105.448 265.954 104.782 265.84C103.55 265.506 88.9575 260.479 88.4032 260.146C87.8488 259.812 87.6209 257.243 88.7358 256.44C89.8507 255.637 89.2901 256.551 89.8507 255.656C90.4112 254.761 88.6249 248.764 91.7417 248.43Z" fill="#B2B2B2" stroke="black" stroke-width="0.516112" stroke-linecap="round" stroke-linejoin="round"/>
<path d="M141.986 296.675C141.986 296.675 150.092 297.725 150.609 297.638C151.127 297.552 153.923 299.646 156.19 301.047C158.457 302.449 159.325 303.579 160.551 304.808C161.777 306.037 163.428 306.661 162.726 307.168C162.023 307.674 161.685 307.692 160.637 307.34C159.59 306.988 158.371 306.556 158.371 306.556C157.611 307.016 156.718 307.201 155.839 307.081C154.387 306.674 152.961 306.177 151.57 305.593C150.228 305.734 148.872 305.644 147.56 305.327C145.904 304.808 142.503 301.659 142.503 301.659L140.495 301.832L139.879 297.2L141.986 296.675Z" fill="white" stroke="black" stroke-width="0.516112" stroke-linecap="round" stroke-linejoin="round"/>
<path d="M151.909 302.097C152.403 302.374 152.871 302.694 153.307 303.054C154.613 304.018 159.319 304.808 158.364 306.556" stroke="black" stroke-width="0.516112" stroke-linecap="round" stroke-linejoin="round"/>
<path d="M165.701 302.845C165.701 302.845 165.849 304.253 165.627 304.623C165.405 304.994 164.598 304.994 164.155 304.104C163.853 303.348 163.678 302.547 163.637 301.733L165.701 302.845Z" fill="white" stroke="black" stroke-width="0.516112" stroke-miterlimit="10"/>
<path d="M164.247 302.671C164.06 303.238 163.774 303.767 163.403 304.234C163.04 304.469 162.313 304.11 162.301 303.116C162.363 302.305 162.558 301.51 162.88 300.763L164.247 302.671Z" fill="white" stroke="black" stroke-width="0.516112" stroke-miterlimit="10"/>
<path d="M165.627 301.437C165.627 301.437 167.105 302.77 166.957 304.104C166.809 305.438 165.775 305.142 165.485 304.253C165.196 303.363 164.869 302.326 164.869 302.326L165.627 301.437Z" fill="white" stroke="black" stroke-width="0.516112" stroke-miterlimit="10"/>
<path d="M140.101 291.438C140.101 291.438 148.571 289.876 150.911 290.098C153.252 290.32 159.824 293.112 160.6 293.556C161.376 294.001 165.953 297.262 166.064 298.139C166.085 299.074 166.009 300.01 165.836 300.93C165.836 300.93 168.066 301.381 167.29 302.381C166.514 303.382 164.826 303.166 163.834 302.832C162.842 302.499 159.596 300.362 158.82 300.041C158.044 299.72 155.254 300.374 153.135 299.701C151.016 299.028 147.677 295.903 147.677 295.903L140.754 297.916L140.101 291.438Z" fill="white" stroke="black" stroke-width="0.516112" stroke-miterlimit="10"/>
<path d="M159.356 294.186C160.28 294.416 161.107 294.935 161.716 295.668C162.948 296.996 165.836 300.93 165.836 300.93C162.652 300.424 159.8 297.367 159.8 297.367" fill="white"/>
<path d="M159.356 294.186C160.28 294.416 161.107 294.935 161.716 295.668C162.948 296.996 165.836 300.93 165.836 300.93C162.652 300.424 159.8 297.367 159.8 297.367" stroke="black" stroke-width="0.516112" stroke-miterlimit="10"/>
<path d="M91.5202 269.65C91.5202 269.65 88.2926 275.906 90.0727 291.549C91.8528 307.192 98.0802 316.351 101.659 316.462C105.238 316.573 131.964 308.866 134.644 307.297C137.323 305.729 142.651 304.172 142.996 304.061C143.341 303.95 144.228 300.708 143.446 296.354C143.146 294.432 142.734 292.528 142.214 290.654L131.743 292.556L115.814 295.236C115.867 294.926 115.82 294.607 115.68 294.326C115.539 294.044 115.312 293.816 115.032 293.674C113.991 293.2 112.908 292.825 111.798 292.556C111.798 292.556 108.903 272.794 102.885 267.643" fill="#B2B2B2"/>
<path d="M91.5202 269.65C91.5202 269.65 88.2926 275.906 90.0727 291.549C91.8528 307.192 98.0802 316.351 101.659 316.462C105.238 316.573 131.964 308.866 134.644 307.297C137.323 305.729 142.651 304.172 142.996 304.061C143.341 303.95 144.228 300.708 143.446 296.354C143.146 294.432 142.734 292.528 142.214 290.654L131.743 292.556L115.814 295.236C115.867 294.926 115.82 294.607 115.68 294.326C115.539 294.044 115.312 293.816 115.032 293.674C113.991 293.2 112.908 292.825 111.798 292.556C111.798 292.556 108.903 272.794 102.885 267.643" stroke="black" stroke-width="0.516112" stroke-linecap="round" stroke-linejoin="round"/>
<path d="M111.804 292.556C111.804 292.556 102.78 298.583 99.2134 299.257" stroke="black" stroke-width="0.516112" stroke-linecap="round" stroke-linejoin="round"/>
<path d="M100.458 304.537C99.6719 305.103 98.8487 305.614 97.9937 306.068" stroke="black" stroke-width="0.516112" stroke-linecap="round" stroke-linejoin="round"/>
<path d="M110.682 295.125C107.956 298.149 104.996 300.953 101.831 303.512" stroke="black" stroke-width="0.516112" stroke-linecap="round" stroke-linejoin="round"/>
<path d="M111.705 303.74C111.341 304.196 110.928 304.61 110.473 304.975" stroke="black" stroke-width="0.516112" stroke-linecap="round" stroke-linejoin="round"/>
<path d="M115.142 296.243C114.602 298.423 113.753 300.515 112.623 302.455" stroke="black" stroke-width="0.516112" stroke-linecap="round" stroke-linejoin="round"/>
<path d="M135.469 301.381C135.469 301.998 135.469 302.616 135.42 303.277" stroke="black" stroke-width="0.516112" stroke-linecap="round" stroke-linejoin="round"/>
<path d="M132.968 292.778C132.968 292.778 134.816 294.291 135.346 299.108" stroke="black" stroke-width="0.516112" stroke-linecap="round" stroke-linejoin="round"/>
<path d="M81.184 331.691H71.1499C71.1499 331.691 64.6453 305.691 67.2632 285.639C67.3873 284.707 67.845 283.853 68.5511 283.235C69.2571 282.617 70.1633 282.277 71.1006 282.279C71.6093 282.278 72.1131 282.379 72.5829 282.574C73.0527 282.77 73.4792 283.057 73.8378 283.419C74.1963 283.78 74.4798 284.21 74.6718 284.682C74.8639 285.154 74.9606 285.66 74.9566 286.17C74.9073 293.315 75.5602 309.823 81.184 331.691Z" fill="black" stroke="black" stroke-width="0.516112" stroke-linecap="round" stroke-linejoin="round"/>
<path d="M0.308105 331.691H290.729" stroke="black" stroke-width="0.516112" stroke-linecap="round" stroke-linejoin="round"/>
</g>
<path d="M94.4426 20V5.9H100.883C102.456 5.9 103.669 6.28 104.523 7.04C105.376 7.8 105.803 8.86 105.803 10.22C105.803 11.1 105.609 11.86 105.223 12.5C104.836 13.14 104.276 13.6333 103.543 13.98C102.823 14.3267 101.936 14.5 100.883 14.5L101.043 14.16H101.863C102.423 14.16 102.909 14.3 103.323 14.58C103.749 14.8467 104.116 15.26 104.423 15.82L106.703 20H103.283L100.843 15.5C100.709 15.26 100.556 15.0733 100.383 14.94C100.209 14.7933 100.009 14.6933 99.7826 14.64C99.5692 14.5733 99.3292 14.54 99.0626 14.54H97.5426V20H94.4426ZM97.5426 12.3H100.323C101.149 12.3 101.769 12.1333 102.183 11.8C102.609 11.4667 102.823 10.9667 102.823 10.3C102.823 9.64667 102.609 9.15333 102.183 8.82C101.769 8.48667 101.149 8.32 100.323 8.32H97.5426V12.3ZM111.292 20.22C110.572 20.22 109.925 20.08 109.352 19.8C108.778 19.52 108.332 19.14 108.012 18.66C107.692 18.18 107.532 17.64 107.532 17.04C107.532 16.32 107.718 15.7533 108.092 15.34C108.465 14.9133 109.072 14.6133 109.912 14.44C110.752 14.2533 111.865 14.16 113.252 14.16H114.312V15.72H113.272C112.752 15.72 112.312 15.74 111.952 15.78C111.605 15.82 111.318 15.8933 111.092 16C110.865 16.0933 110.698 16.2133 110.592 16.36C110.498 16.5067 110.452 16.6933 110.452 16.92C110.452 17.2933 110.578 17.6 110.832 17.84C111.098 18.08 111.478 18.2 111.972 18.2C112.358 18.2 112.698 18.1133 112.992 17.94C113.298 17.7533 113.538 17.5067 113.712 17.2C113.885 16.88 113.972 16.52 113.972 16.12V13.82C113.972 13.2333 113.838 12.82 113.572 12.58C113.305 12.3267 112.852 12.2 112.212 12.2C111.678 12.2 111.112 12.2867 110.512 12.46C109.925 12.62 109.338 12.8667 108.752 13.2L107.932 11.18C108.278 10.94 108.698 10.7333 109.192 10.56C109.698 10.3733 110.225 10.2333 110.772 10.14C111.318 10.0333 111.838 9.98 112.332 9.98C113.358 9.98 114.198 10.1333 114.852 10.44C115.518 10.7333 116.018 11.1933 116.352 11.82C116.685 12.4333 116.852 13.2267 116.852 14.2V20H114.032V18.02H114.172C114.092 18.4733 113.918 18.8667 113.652 19.2C113.398 19.52 113.072 19.7733 112.672 19.96C112.272 20.1333 111.812 20.22 111.292 20.22ZM122.424 20.22C121.704 20.22 121.058 20.08 120.484 19.8C119.911 19.52 119.464 19.14 119.144 18.66C118.824 18.18 118.664 17.64 118.664 17.04C118.664 16.32 118.851 15.7533 119.224 15.34C119.598 14.9133 120.204 14.6133 121.044 14.44C121.884 14.2533 122.998 14.16 124.384 14.16H125.444V15.72H124.404C123.884 15.72 123.444 15.74 123.084 15.78C122.738 15.82 122.451 15.8933 122.224 16C121.998 16.0933 121.831 16.2133 121.724 16.36C121.631 16.5067 121.584 16.6933 121.584 16.92C121.584 17.2933 121.711 17.6 121.964 17.84C122.231 18.08 122.611 18.2 123.104 18.2C123.491 18.2 123.831 18.1133 124.124 17.94C124.431 17.7533 124.671 17.5067 124.844 17.2C125.018 16.88 125.104 16.52 125.104 16.12V13.82C125.104 13.2333 124.971 12.82 124.704 12.58C124.438 12.3267 123.984 12.2 123.344 12.2C122.811 12.2 122.244 12.2867 121.644 12.46C121.058 12.62 120.471 12.8667 119.884 13.2L119.064 11.18C119.411 10.94 119.831 10.7333 120.324 10.56C120.831 10.3733 121.358 10.2333 121.904 10.14C122.451 10.0333 122.971 9.98 123.464 9.98C124.491 9.98 125.331 10.1333 125.984 10.44C126.651 10.7333 127.151 11.1933 127.484 11.82C127.818 12.4333 127.984 13.2267 127.984 14.2V20H125.164V18.02H125.304C125.224 18.4733 125.051 18.8667 124.784 19.2C124.531 19.52 124.204 19.7733 123.804 19.96C123.404 20.1333 122.944 20.22 122.424 20.22ZM136.297 20.22C135.511 20.22 134.811 20.0267 134.197 19.64C133.597 19.24 133.197 18.7133 132.997 18.06H133.197V20H130.237V5.9H133.257V12H133.017C133.231 11.4 133.637 10.9133 134.237 10.54C134.837 10.1667 135.524 9.98 136.297 9.98C137.164 9.98 137.917 10.1867 138.557 10.6C139.197 11.0133 139.697 11.6 140.057 12.36C140.417 13.12 140.597 14.0267 140.597 15.08C140.597 16.1333 140.417 17.0467 140.057 17.82C139.697 18.5933 139.191 19.1867 138.537 19.6C137.897 20.0133 137.151 20.22 136.297 20.22ZM135.397 17.96C136.037 17.96 136.557 17.7267 136.957 17.26C137.357 16.78 137.557 16.0533 137.557 15.08C137.557 14.1067 137.357 13.3933 136.957 12.94C136.557 12.4733 136.037 12.24 135.397 12.24C134.744 12.24 134.217 12.4733 133.817 12.94C133.417 13.3933 133.217 14.1067 133.217 15.08C133.217 16.0533 133.417 16.78 133.817 17.26C134.217 17.7267 134.744 17.96 135.397 17.96ZM142.324 8.28V5.46H145.584V8.28H142.324ZM142.444 20V10.18H145.464V20H142.444ZM152.896 20.22C151.736 20.22 150.736 20.0133 149.896 19.6C149.069 19.1733 148.429 18.58 147.976 17.82C147.536 17.0467 147.316 16.14 147.316 15.1C147.316 14.0867 147.529 13.2 147.956 12.44C148.383 11.6667 148.976 11.0667 149.736 10.64C150.509 10.2 151.383 9.98 152.356 9.98C153.316 9.98 154.143 10.1867 154.836 10.6C155.529 11 156.063 11.5733 156.436 12.32C156.823 13.0667 157.016 13.9533 157.016 14.98V15.74H149.796V14.18H154.836L154.516 14.46C154.516 13.6467 154.336 13.0333 153.976 12.62C153.629 12.1933 153.129 11.98 152.476 11.98C151.983 11.98 151.563 12.0933 151.216 12.32C150.869 12.5467 150.603 12.8733 150.416 13.3C150.229 13.7267 150.136 14.24 150.136 14.84V15C150.136 15.68 150.236 16.24 150.436 16.68C150.649 17.1067 150.963 17.4267 151.376 17.64C151.803 17.8533 152.329 17.96 152.956 17.96C153.489 17.96 154.029 17.88 154.576 17.72C155.123 17.56 155.616 17.3133 156.056 16.98L156.856 19C156.363 19.3733 155.756 19.6733 155.036 19.9C154.329 20.1133 153.616 20.22 152.896 20.22ZM163.534 20.22C162.134 20.22 161.094 19.88 160.414 19.2C159.734 18.52 159.394 17.52 159.394 16.2V12.44H157.534V10.18H159.394V7.3H162.414V10.18H165.314V12.44H162.414V16.08C162.414 16.64 162.54 17.06 162.794 17.34C163.06 17.62 163.48 17.76 164.054 17.76C164.227 17.76 164.407 17.74 164.594 17.7C164.794 17.66 165.007 17.6067 165.234 17.54L165.674 19.74C165.394 19.8867 165.06 20 164.674 20.08C164.287 20.1733 163.907 20.22 163.534 20.22Z" fill="#8085EF"/>
<path d="M171.3 20.22C170.646 20.22 170.006 20.1533 169.38 20.02C168.753 19.9 168.173 19.7267 167.64 19.5C167.12 19.26 166.666 18.98 166.28 18.66L167.26 16.32C167.873 16.76 168.5 17.0933 169.14 17.32C169.793 17.5333 170.473 17.64 171.18 17.64C171.713 17.64 172.16 17.5733 172.52 17.44C172.88 17.2933 173.153 17.0867 173.34 16.82C173.526 16.5533 173.62 16.22 173.62 15.82C173.62 15.26 173.426 14.84 173.04 14.56C172.653 14.28 172.086 14.14 171.34 14.14H168.98V11.64H171.04C171.493 11.64 171.873 11.5733 172.18 11.44C172.5 11.2933 172.746 11.0933 172.92 10.84C173.106 10.5867 173.2 10.2733 173.2 9.9C173.2 9.36667 173.013 8.96 172.64 8.68C172.28 8.4 171.753 8.26 171.06 8.26C170.393 8.26 169.766 8.37333 169.18 8.6C168.593 8.81333 168.033 9.14667 167.5 9.6L166.52 7.32C167.106 6.8 167.826 6.4 168.68 6.12C169.533 5.82667 170.42 5.68 171.34 5.68C172.353 5.68 173.22 5.83333 173.94 6.14C174.66 6.44667 175.213 6.88667 175.6 7.46C175.986 8.02 176.18 8.7 176.18 9.5C176.18 10.3267 175.946 11.04 175.48 11.64C175.026 12.2267 174.393 12.62 173.58 12.82V12.56C174.22 12.6667 174.76 12.88 175.2 13.2C175.653 13.52 176 13.9267 176.24 14.42C176.48 14.9133 176.6 15.4733 176.6 16.1C176.6 16.94 176.386 17.6733 175.96 18.3C175.533 18.9133 174.92 19.3867 174.12 19.72C173.333 20.0533 172.393 20.22 171.3 20.22ZM184.172 20.22C182.972 20.22 181.952 19.94 181.112 19.38C180.272 18.82 179.632 18.0133 179.192 16.96C178.752 15.9067 178.532 14.6333 178.532 13.14C178.532 11.5667 178.779 10.2267 179.272 9.12C179.779 8 180.499 7.14667 181.432 6.56C182.379 5.97333 183.499 5.68 184.792 5.68C185.299 5.68 185.805 5.74 186.312 5.86C186.819 5.98 187.299 6.15333 187.752 6.38C188.205 6.60667 188.619 6.88 188.992 7.2L187.992 9.5C187.512 9.08667 186.992 8.78 186.432 8.58C185.885 8.36667 185.325 8.26 184.752 8.26C184.219 8.26 183.745 8.35333 183.332 8.54C182.932 8.72667 182.592 9 182.312 9.36C182.032 9.72 181.819 10.1667 181.672 10.7C181.539 11.2333 181.472 11.8533 181.472 12.56V13.86H181.192C181.312 13.22 181.532 12.68 181.852 12.24C182.185 11.7867 182.605 11.44 183.112 11.2C183.619 10.96 184.179 10.84 184.792 10.84C185.592 10.84 186.305 11.04 186.932 11.44C187.559 11.8267 188.045 12.3667 188.392 13.06C188.752 13.74 188.932 14.52 188.932 15.4C188.932 16.3333 188.732 17.1667 188.332 17.9C187.932 18.62 187.372 19.1867 186.652 19.6C185.945 20.0133 185.119 20.22 184.172 20.22ZM184.012 17.8C184.425 17.8 184.785 17.7067 185.092 17.52C185.412 17.3333 185.652 17.0667 185.812 16.72C185.985 16.3733 186.072 15.9733 186.072 15.52C186.072 15.0667 185.985 14.6733 185.812 14.34C185.652 13.9933 185.412 13.7267 185.092 13.54C184.785 13.34 184.425 13.24 184.012 13.24C183.599 13.24 183.232 13.34 182.912 13.54C182.605 13.7267 182.365 13.9933 182.192 14.34C182.019 14.6733 181.932 15.0667 181.932 15.52C181.932 15.9733 182.019 16.3733 182.192 16.72C182.365 17.0667 182.605 17.3333 182.912 17.52C183.232 17.7067 183.599 17.8 184.012 17.8ZM195.624 20.22C194.491 20.22 193.531 19.9333 192.744 19.36C191.971 18.7867 191.377 17.96 190.964 16.88C190.564 15.8 190.364 14.4733 190.364 12.9C190.364 11.34 190.564 10.0267 190.964 8.96C191.364 7.88 191.957 7.06667 192.744 6.52C193.531 5.96 194.491 5.68 195.624 5.68C196.771 5.68 197.731 5.96 198.504 6.52C199.291 7.06667 199.884 7.87333 200.284 8.94C200.684 10.0067 200.884 11.3267 200.884 12.9C200.884 14.46 200.677 15.7867 200.264 16.88C199.864 17.96 199.277 18.7867 198.504 19.36C197.731 19.9333 196.771 20.22 195.624 20.22ZM195.624 17.7C196.397 17.7 196.971 17.32 197.344 16.56C197.717 15.7867 197.904 14.5667 197.904 12.9C197.904 11.2333 197.717 10.0333 197.344 9.3C196.984 8.56667 196.411 8.2 195.624 8.2C194.851 8.2 194.277 8.56667 193.904 9.3C193.531 10.0333 193.344 11.2333 193.344 12.9C193.344 14.5667 193.531 15.7867 193.904 16.56C194.277 17.32 194.851 17.7 195.624 17.7Z" fill="black"/>
<defs>
<clipPath id="clip0_10_1511">
<rect width="294" height="280" fill="white" transform="translate(0 52)"/>
</clipPath>
</defs>
</svg>
