<svg width="40" height="40" viewBox="0 0 40 40" fill="none" xmlns="http://www.w3.org/2000/svg">
<path d="M18.75 1.25V3.19434H3.19434V36.8057H18.75V38.75H4.44434C3.556 38.75 2.82726 38.4484 2.19043 37.8115C1.63327 37.2543 1.33202 36.6259 1.26465 35.8809L1.25 35.5537V4.44434C1.25002 3.5568 1.55153 2.82835 2.18945 2.19141C2.74874 1.63307 3.37763 1.33198 4.12012 1.26465L4.44629 1.25H18.75ZM38.2324 20L28.9121 29.3193L27.5771 27.9111L32.3838 23.1064L34.5176 20.9727H14.583V19.0273H34.5176L32.3838 16.8936L27.5771 12.0879L28.9121 10.6797L38.2324 20Z" stroke="currentColor" stroke-width="2.5"/>
</svg>
