<svg width="28" height="31" viewBox="0 0 28 31" fill="none" xmlns="http://www.w3.org/2000/svg">
<mask id="path-1-inside-1_19_83" fill="white">
<path d="M7.58567 20.4143C7.81517 20.4143 8.04243 20.3691 8.25447 20.2813C8.46651 20.1935 8.65917 20.0647 8.82145 19.9025C8.98374 19.7402 9.11247 19.5475 9.2003 19.3355C9.28813 19.1234 9.33333 18.8962 9.33333 18.6667C9.33333 18.4372 9.28813 18.2099 9.2003 17.9979C9.11247 17.7858 8.98374 17.5932 8.82145 17.4309C8.65917 17.2686 8.46651 17.1399 8.25447 17.052C8.04243 16.9642 7.81517 16.919 7.58567 16.919C7.12216 16.919 6.67763 17.1031 6.34988 17.4309C6.02213 17.7586 5.838 18.2032 5.838 18.6667C5.838 19.1302 6.02213 19.5747 6.34988 19.9025C6.67763 20.2302 7.12216 20.4143 7.58567 20.4143ZM22.162 18.6643C22.1623 19.1278 21.9785 19.5725 21.6509 19.9005C21.3234 20.2284 20.879 20.4129 20.4155 20.4132C19.952 20.4135 19.5073 20.2296 19.1794 19.9021C18.8514 19.5746 18.667 19.1302 18.6667 18.6667C18.6667 18.2032 18.8508 17.7586 19.1785 17.4309C19.5063 17.1031 19.9508 16.919 20.4143 16.919C20.8778 16.919 21.3224 17.1031 21.6501 17.4309C21.9779 17.7586 22.162 18.2032 22.162 18.6667M10.5 0C10.1906 0 9.89383 0.122916 9.67504 0.341709C9.45625 0.560501 9.33333 0.857247 9.33333 1.16667V2.33333H7.74433C6.60993 2.33308 5.51428 2.74604 4.66226 3.49499C3.81024 4.24394 3.2602 5.2776 3.115 6.40267L2.737 9.33333H1.16667C0.857247 9.33333 0.560501 9.45625 0.341709 9.67504C0.122917 9.89384 3.82204e-08 10.1906 3.82204e-08 10.5C3.82204e-08 10.8094 0.122917 11.1062 0.341709 11.325C0.560501 11.5438 0.857247 11.6667 1.16667 11.6667H2.436L2.41267 11.8393C1.71101 12.0687 1.09983 12.514 0.666505 13.1116C0.233177 13.7092 -0.000109021 14.4285 3.82204e-08 15.1667V22.1667C3.82204e-08 23.0949 0.368749 23.9852 1.02513 24.6415C1.6815 25.2979 2.57174 25.6667 3.5 25.6667V28.5833C3.5 29.0475 3.68437 29.4926 4.01256 29.8208C4.34075 30.149 4.78587 30.3333 5.25 30.3333C5.71413 30.3333 6.15925 30.149 6.48744 29.8208C6.81563 29.4926 7 29.0475 7 28.5833V25.6667H20.993V28.5833C20.993 29.0475 21.1774 29.4926 21.5056 29.8208C21.8338 30.149 22.2789 30.3333 22.743 30.3333C23.2071 30.3333 23.6522 30.149 23.9804 29.8208C24.3086 29.4926 24.493 29.0475 24.493 28.5833V25.6667H24.5C25.4283 25.6667 26.3185 25.2979 26.9749 24.6415C27.6313 23.9852 28 23.0949 28 22.1667V15.1667C28.0001 14.426 27.7653 13.7043 27.3292 13.1055C26.8931 12.5068 26.2784 12.0618 25.5733 11.8347L25.5523 11.6667H26.8333C27.1428 11.6667 27.4395 11.5438 27.6583 11.325C27.8771 11.1062 28 10.8094 28 10.5C28 10.1906 27.8771 9.89384 27.6583 9.67504C27.4395 9.45625 27.1428 9.33333 26.8333 9.33333H25.2537L24.8803 6.40967C24.7367 5.28373 24.1877 4.24871 23.336 3.49839C22.4843 2.74806 21.3884 2.33386 20.2533 2.33333H18.6667V1.16667C18.6667 0.857247 18.5438 0.560501 18.325 0.341709C18.1062 0.122916 17.8094 0 17.5 0H10.5ZM4.788 11.6667L5.42967 6.70133C5.50227 6.1388 5.77729 5.62197 6.2033 5.24749C6.62931 4.87302 7.17713 4.66654 7.74433 4.66667H20.251C20.8186 4.66661 21.3667 4.87342 21.7927 5.24837C22.2188 5.62332 22.4936 6.14071 22.5657 6.70367L23.2003 11.6667H4.788ZM25.6667 22.1667C25.6667 22.4761 25.5438 22.7728 25.325 22.9916C25.1062 23.2104 24.8094 23.3333 24.5 23.3333H3.5C3.19058 23.3333 2.89383 23.2104 2.67504 22.9916C2.45625 22.7728 2.33333 22.4761 2.33333 22.1667V15.1667C2.33333 14.8572 2.45625 14.5605 2.67504 14.3417C2.89383 14.1229 3.19058 14 3.5 14H24.5C24.8094 14 25.1062 14.1229 25.325 14.3417C25.5438 14.5605 25.6667 14.8572 25.6667 15.1667V22.1667Z"/>
</mask>
<path d="M7.58567 20.4143L7.58567 21.9143L7.58567 20.4143ZM9.33333 18.6667L7.83333 18.6667L9.33333 18.6667ZM7.58567 16.919L7.58567 15.419L7.58567 16.919ZM5.838 18.6667L4.338 18.6667L5.838 18.6667ZM18.6667 18.6667L17.1667 18.6667L17.1667 18.6677L18.6667 18.6667ZM10.5 0L10.5 -1.5L10.5 0ZM9.33333 2.33333V3.83333H10.8333V2.33333H9.33333ZM7.74433 2.33333L7.74399 3.83333H7.74433V2.33333ZM3.115 6.40267L1.62734 6.21067L1.62732 6.21079L3.115 6.40267ZM2.737 9.33333V10.8333H4.05595L4.22468 9.52522L2.737 9.33333ZM3.82204e-08 10.5L-1.5 10.5L3.82204e-08 10.5ZM2.436 11.6667L3.92249 11.8675L4.15234 10.1667H2.436V11.6667ZM2.41267 11.8393L2.87867 13.2651L3.77313 12.9728L3.89916 12.0402L2.41267 11.8393ZM3.82204e-08 15.1667L1.5 15.1667L1.5 15.1664L3.82204e-08 15.1667ZM3.5 25.6667H5V24.1667L3.5 24.1667L3.5 25.6667ZM7 28.5833H8.5H7ZM7 25.6667V24.1667H5.5V25.6667H7ZM20.993 25.6667H22.493V24.1667H20.993V25.6667ZM24.493 25.6667V24.1667H22.993V25.6667H24.493ZM24.5 25.6667L24.5 27.1667L24.5 25.6667ZM28 15.1667L26.5 15.1664V15.1667H28ZM25.5733 11.8347L24.0849 12.0207L24.2035 12.9692L25.1133 13.2624L25.5733 11.8347ZM25.5523 11.6667V10.1667H23.8532L24.0639 11.8527L25.5523 11.6667ZM25.2537 9.33333L23.7657 9.52333L23.933 10.8333H25.2537V9.33333ZM24.8803 6.40967L23.3924 6.59942L23.3924 6.59966L24.8803 6.40967ZM20.2533 2.33333L20.254 0.833333H20.2533V2.33333ZM18.6667 2.33333H17.1667V3.83333H18.6667V2.33333ZM17.5 0V-1.5V0ZM4.788 11.6667L3.30037 11.4744L3.08168 13.1667H4.788V11.6667ZM5.42967 6.70133L6.9173 6.89358L6.91733 6.89333L5.42967 6.70133ZM7.74433 4.66667L7.74399 6.16667H7.74433V4.66667ZM20.251 4.66667L20.251 6.16667L20.2511 6.16667L20.251 4.66667ZM22.5657 6.70367L24.0535 6.5134L24.0535 6.51317L22.5657 6.70367ZM23.2003 11.6667V13.1667H24.9044L24.6882 11.4764L23.2003 11.6667ZM7.58567 20.4143L7.58567 21.9143C8.01215 21.9143 8.43446 21.8303 8.8285 21.6671L8.25447 20.2813L7.68044 18.8955C7.6504 18.9079 7.6182 18.9143 7.58567 18.9143L7.58567 20.4143ZM8.25447 20.2813L8.8285 21.6671C9.22252 21.5039 9.58054 21.2647 9.88211 20.9631L8.82145 19.9025L7.76079 18.8418C7.73779 18.8648 7.71049 18.883 7.68044 18.8955L8.25447 20.2813ZM8.82145 19.9025L9.88211 20.9631C10.1837 20.6615 10.4229 20.3035 10.5861 19.9095L9.2003 19.3355L7.81448 18.7614C7.80203 18.7915 7.78379 18.8188 7.76079 18.8418L8.82145 19.9025ZM9.2003 19.3355L10.5861 19.9095C10.7493 19.5155 10.8333 19.0932 10.8333 18.6667L9.33333 18.6667L7.83333 18.6667C7.83333 18.6992 7.82693 18.7314 7.81448 18.7614L9.2003 19.3355ZM9.33333 18.6667L10.8333 18.6667C10.8333 18.2402 10.7493 17.8179 10.5861 17.4238L9.2003 17.9979L7.81448 18.5719C7.82693 18.6019 7.83333 18.6341 7.83333 18.6667L9.33333 18.6667ZM9.2003 17.9979L10.5861 17.4238C10.4229 17.0298 10.1837 16.6718 9.88211 16.3702L8.82145 17.4309L7.76079 18.4915C7.78379 18.5145 7.80203 18.5418 7.81448 18.5719L9.2003 17.9979ZM8.82145 17.4309L9.88211 16.3702C9.58054 16.0686 9.22252 15.8294 8.8285 15.6662L8.25447 17.052L7.68044 18.4379C7.71049 18.4503 7.73779 18.4685 7.76079 18.4915L8.82145 17.4309ZM8.25447 17.052L8.8285 15.6662C8.43446 15.503 8.01215 15.419 7.58567 15.419L7.58567 16.919L7.58567 18.419C7.6182 18.419 7.6504 18.4254 7.68044 18.4379L8.25447 17.052ZM7.58567 16.919L7.58567 15.419C6.72433 15.419 5.89828 15.7612 5.28922 16.3702L6.34988 17.4309L7.41054 18.4915C7.45698 18.4451 7.51998 18.419 7.58567 18.419L7.58567 16.919ZM6.34988 17.4309L5.28922 16.3702C4.68016 16.9793 4.338 17.8053 4.338 18.6667L5.838 18.6667L7.338 18.6667C7.338 18.601 7.36409 18.538 7.41054 18.4915L6.34988 17.4309ZM5.838 18.6667L4.338 18.6667C4.338 19.528 4.68016 20.3541 5.28922 20.9631L6.34988 19.9025L7.41054 18.8418C7.36409 18.7953 7.338 18.7324 7.338 18.6667L5.838 18.6667ZM6.34988 19.9025L5.28922 20.9631C5.89828 21.5722 6.72433 21.9143 7.58567 21.9143L7.58567 20.4143L7.58567 18.9143C7.51998 18.9143 7.45698 18.8882 7.41054 18.8418L6.34988 19.9025ZM22.162 18.6643L20.662 18.6653C20.662 18.731 20.636 18.794 20.5896 18.8405L21.6509 19.9005L22.7123 20.9604C23.321 20.351 23.6626 19.5247 23.662 18.6633L22.162 18.6643ZM21.6509 19.9005L20.5896 18.8405C20.5432 18.887 20.4802 18.9131 20.4145 18.9132L20.4155 20.4132L20.4165 21.9132C21.2778 21.9126 22.1037 21.5699 22.7123 20.9604L21.6509 19.9005ZM20.4155 20.4132L20.4145 18.9132C20.3488 18.9132 20.2858 18.8872 20.2393 18.8407L19.1794 19.9021L18.1194 20.9635C18.7289 21.5721 19.5552 21.9137 20.4165 21.9132L20.4155 20.4132ZM19.1794 19.9021L20.2393 18.8407C20.1928 18.7943 20.1667 18.7314 20.1667 18.6657L18.6667 18.6667L17.1667 18.6677C17.1672 19.529 17.51 20.3548 18.1194 20.9635L19.1794 19.9021ZM18.6667 18.6667H20.1667C20.1667 18.601 20.1928 18.538 20.2392 18.4915L19.1785 17.4309L18.1179 16.3702C17.5088 16.9793 17.1667 17.8053 17.1667 18.6667H18.6667ZM19.1785 17.4309L20.2392 18.4915C20.2856 18.4451 20.3486 18.419 20.4143 18.419V16.919V15.419C19.553 15.419 18.7269 15.7612 18.1179 16.3702L19.1785 17.4309ZM20.4143 16.919V18.419C20.48 18.419 20.543 18.4451 20.5895 18.4915L21.6501 17.4309L22.7108 16.3702C22.1017 15.7612 21.2757 15.419 20.4143 15.419V16.919ZM21.6501 17.4309L20.5895 18.4915C20.6359 18.538 20.662 18.601 20.662 18.6667L22.162 18.6667L23.662 18.6667C23.662 17.8053 23.3198 16.9793 22.7108 16.3702L21.6501 17.4309ZM10.5 0L10.5 -1.5C9.79276 -1.5 9.11448 -1.21905 8.61438 -0.718951L9.67504 0.341709L10.7357 1.40237C10.6732 1.46488 10.5884 1.5 10.5 1.5L10.5 0ZM9.67504 0.341709L8.61438 -0.718951C8.11429 -0.218855 7.83333 0.459422 7.83333 1.16667H9.33333H10.8333C10.8333 1.25507 10.7982 1.33986 10.7357 1.40237L9.67504 0.341709ZM9.33333 1.16667H7.83333V2.33333H9.33333H10.8333V1.16667H9.33333ZM9.33333 2.33333V0.833333H7.74433V2.33333V3.83333H9.33333V2.33333ZM7.74433 2.33333L7.74467 0.833334C6.24564 0.832995 4.79782 1.37869 3.67193 2.36838L4.66226 3.49499L5.65259 4.6216C6.23074 4.11338 6.97422 3.83316 7.74399 3.83333L7.74433 2.33333ZM4.66226 3.49499L3.67193 2.36838C2.54605 3.35806 1.81921 4.72397 1.62734 6.21067L3.115 6.40267L4.60266 6.59467C4.70119 5.83123 5.07443 5.12982 5.65259 4.6216L4.66226 3.49499ZM3.115 6.40267L1.62732 6.21079L1.24932 9.14145L2.737 9.33333L4.22468 9.52522L4.60268 6.59455L3.115 6.40267ZM2.737 9.33333V7.83333H1.16667V9.33333V10.8333H2.737V9.33333ZM1.16667 9.33333V7.83333C0.459422 7.83333 -0.218855 8.11429 -0.718951 8.61438L0.341709 9.67504L1.40237 10.7357C1.33986 10.7982 1.25507 10.8333 1.16667 10.8333V9.33333ZM0.341709 9.67504L-0.718951 8.61438C-1.21905 9.11448 -1.5 9.79276 -1.5 10.5L3.82204e-08 10.5L1.5 10.5C1.5 10.5884 1.46488 10.6732 1.40237 10.7357L0.341709 9.67504ZM3.82204e-08 10.5L-1.5 10.5C-1.5 11.2072 -1.21905 11.8855 -0.718951 12.3856L0.341709 11.325L1.40237 10.2643C1.46488 10.3268 1.5 10.4116 1.5 10.5L3.82204e-08 10.5ZM0.341709 11.325L-0.718951 12.3856C-0.218855 12.8857 0.459422 13.1667 1.16667 13.1667V11.6667V10.1667C1.25507 10.1667 1.33986 10.2018 1.40237 10.2643L0.341709 11.325ZM1.16667 11.6667V13.1667H2.436V11.6667V10.1667H1.16667V11.6667ZM2.436 11.6667L0.949511 11.4658L0.926178 11.6385L2.41267 11.8393L3.89916 12.0402L3.92249 11.8675L2.436 11.6667ZM2.41267 11.8393L1.94667 10.4136C0.944306 10.7412 0.0711899 11.3773 -0.54785 12.231L0.666505 13.1116L1.88086 13.9921C2.12848 13.6506 2.47772 13.3962 2.87867 13.2651L2.41267 11.8393ZM0.666505 13.1116L-0.54785 12.231C-1.16689 13.0848 -1.50016 14.1123 -1.5 15.1669L3.82204e-08 15.1667L1.5 15.1664C1.49994 14.7446 1.63324 14.3336 1.88086 13.9921L0.666505 13.1116ZM3.82204e-08 15.1667H-1.5V22.1667H3.82204e-08H1.5V15.1667H3.82204e-08ZM3.82204e-08 22.1667H-1.5C-1.5 23.4928 -0.973216 24.7645 -0.0355338 25.7022L1.02513 24.6415L2.08579 23.5809C1.71071 23.2058 1.5 22.6971 1.5 22.1667H3.82204e-08ZM1.02513 24.6415L-0.0355338 25.7022C0.902148 26.6399 2.17392 27.1667 3.5 27.1667L3.5 25.6667L3.5 24.1667C2.96957 24.1667 2.46086 23.956 2.08579 23.5809L1.02513 24.6415ZM3.5 25.6667H2V28.5833H3.5H5V25.6667H3.5ZM3.5 28.5833H2C2 29.4453 2.34241 30.2719 2.9519 30.8814L4.01256 29.8208L5.07322 28.7601C5.02634 28.7132 5 28.6496 5 28.5833H3.5ZM4.01256 29.8208L2.9519 30.8814C3.56139 31.4909 4.38804 31.8333 5.25 31.8333V30.3333V28.8333C5.1837 28.8333 5.12011 28.807 5.07322 28.7601L4.01256 29.8208ZM5.25 30.3333V31.8333C6.11196 31.8333 6.93861 31.4909 7.5481 30.8814L6.48744 29.8208L5.42678 28.7601C5.37989 28.807 5.3163 28.8333 5.25 28.8333V30.3333ZM6.48744 29.8208L7.5481 30.8814C8.15759 30.2719 8.5 29.4453 8.5 28.5833L7 28.5833L5.5 28.5833C5.5 28.6496 5.47366 28.7132 5.42678 28.7601L6.48744 29.8208ZM7 28.5833H8.5V25.6667H7H5.5V28.5833H7ZM7 25.6667V27.1667H20.993V25.6667V24.1667H7V25.6667ZM20.993 25.6667H19.493V28.5833H20.993H22.493V25.6667H20.993ZM20.993 28.5833H19.493C19.493 29.4453 19.8354 30.2719 20.4449 30.8814L21.5056 29.8208L22.5662 28.7601C22.5193 28.7132 22.493 28.6496 22.493 28.5833H20.993ZM21.5056 29.8208L20.4449 30.8814C21.0544 31.4909 21.881 31.8333 22.743 31.8333V30.3333V28.8333C22.6767 28.8333 22.6131 28.807 22.5662 28.7601L21.5056 29.8208ZM22.743 30.3333V31.8333C23.605 31.8333 24.4316 31.4909 25.0411 30.8814L23.9804 29.8208L22.9198 28.7601C22.8729 28.807 22.8093 28.8333 22.743 28.8333V30.3333ZM23.9804 29.8208L25.0411 30.8814C25.6506 30.2719 25.993 29.4453 25.993 28.5833H24.493H22.993C22.993 28.6496 22.9667 28.7132 22.9198 28.7601L23.9804 29.8208ZM24.493 28.5833H25.993V25.6667H24.493H22.993V28.5833H24.493ZM24.493 25.6667V27.1667H24.5V25.6667V24.1667H24.493V25.6667ZM24.5 25.6667L24.5 27.1667C25.8261 27.1667 27.0979 26.6399 28.0355 25.7022L26.9749 24.6415L25.9142 23.5809C25.5391 23.956 25.0304 24.1667 24.5 24.1667L24.5 25.6667ZM26.9749 24.6415L28.0355 25.7022C28.9732 24.7645 29.5 23.4927 29.5 22.1667H28H26.5C26.5 22.6971 26.2893 23.2058 25.9142 23.5809L26.9749 24.6415ZM28 22.1667H29.5V15.1667H28H26.5V22.1667H28ZM28 15.1667L29.5 15.1669C29.5002 14.1088 29.1647 13.0778 28.5417 12.2225L27.3292 13.1055L26.1167 13.9886C26.3659 14.3307 26.5001 14.7431 26.5 15.1664L28 15.1667ZM27.3292 13.1055L28.5417 12.2225C27.9188 11.3671 27.0405 10.7314 26.0333 10.4069L25.5733 11.8347L25.1133 13.2624C25.5162 13.3922 25.8675 13.6465 26.1167 13.9886L27.3292 13.1055ZM25.5733 11.8347L27.0617 11.6486L27.0408 11.4806L25.5523 11.6667L24.0639 11.8527L24.0849 12.0207L25.5733 11.8347ZM25.5523 11.6667V13.1667H26.8333V11.6667V10.1667H25.5523V11.6667ZM26.8333 11.6667V13.1667C27.5406 13.1667 28.2189 12.8857 28.719 12.3856L27.6583 11.325L26.5976 10.2643C26.6601 10.2018 26.7449 10.1667 26.8333 10.1667V11.6667ZM27.6583 11.325L28.719 12.3856C29.2191 11.8855 29.5 11.2072 29.5 10.5H28H26.5C26.5 10.4116 26.5351 10.3268 26.5976 10.2643L27.6583 11.325ZM28 10.5H29.5C29.5 9.79276 29.2191 9.11448 28.719 8.61438L27.6583 9.67504L26.5976 10.7357C26.5351 10.6732 26.5 10.5884 26.5 10.5H28ZM27.6583 9.67504L28.719 8.61438C28.2189 8.11429 27.5406 7.83333 26.8333 7.83333V9.33333V10.8333C26.7449 10.8333 26.6601 10.7982 26.5976 10.7357L27.6583 9.67504ZM26.8333 9.33333V7.83333H25.2537V9.33333V10.8333H26.8333V9.33333ZM25.2537 9.33333L26.7416 9.14334L26.3683 6.21967L24.8803 6.40967L23.3924 6.59966L23.7657 9.52333L25.2537 9.33333ZM24.8803 6.40967L26.3683 6.21992C26.1785 4.73207 25.453 3.36437 24.3276 2.37287L23.336 3.49839L22.3445 4.62391C22.9224 5.13305 23.295 5.83538 23.3924 6.59942L24.8803 6.40967ZM23.336 3.49839L24.3276 2.37287C23.2022 1.38137 21.7539 0.834034 20.254 0.833334L20.2533 2.33333L20.2526 3.83333C21.0229 3.83369 21.7665 4.11476 22.3445 4.62391L23.336 3.49839ZM20.2533 2.33333V0.833333H18.6667V2.33333V3.83333H20.2533V2.33333ZM18.6667 2.33333H20.1667V1.16667H18.6667H17.1667V2.33333H18.6667ZM18.6667 1.16667H20.1667C20.1667 0.459426 19.8857 -0.218852 19.3856 -0.718951L18.325 0.341709L17.2643 1.40237C17.2018 1.33985 17.1667 1.25507 17.1667 1.16667H18.6667ZM18.325 0.341709L19.3856 -0.718951C18.8855 -1.21905 18.2072 -1.5 17.5 -1.5L17.5 0L17.5 1.5C17.4116 1.5 17.3268 1.46488 17.2643 1.40237L18.325 0.341709ZM17.5 0V-1.5H10.5V0V1.5H17.5V0ZM4.788 11.6667L6.27563 11.8589L6.9173 6.89358L5.42967 6.70133L3.94204 6.50909L3.30037 11.4744L4.788 11.6667ZM5.42967 6.70133L6.91733 6.89333C6.94326 6.69243 7.04148 6.50785 7.19362 6.37411L6.2033 5.24749L5.21297 4.12088C4.5131 4.73609 4.06128 5.58517 3.94201 6.50933L5.42967 6.70133ZM6.2033 5.24749L7.19362 6.37411C7.34577 6.24036 7.54142 6.16662 7.74399 6.16667L7.74433 4.66667L7.74467 3.16667C6.81284 3.16646 5.91284 3.50567 5.21297 4.12088L6.2033 5.24749ZM7.74433 4.66667V6.16667H20.251V4.66667V3.16667H7.74433V4.66667ZM20.251 4.66667L20.2511 6.16667C20.4538 6.16665 20.6496 6.24051 20.8018 6.37442L21.7927 5.24837L22.7837 4.12232C22.0837 3.50633 21.1833 3.16658 20.2509 3.16667L20.251 4.66667ZM21.7927 5.24837L20.8018 6.37442C20.9539 6.50833 21.0521 6.69311 21.0778 6.89417L22.5657 6.70367L24.0535 6.51317C23.9351 5.58831 23.4837 4.73832 22.7837 4.12232L21.7927 5.24837ZM22.5657 6.70367L21.0778 6.89394L21.7124 11.8569L23.2003 11.6667L24.6882 11.4764L24.0535 6.5134L22.5657 6.70367ZM23.2003 11.6667V10.1667H4.788V11.6667V13.1667H23.2003V11.6667ZM25.6667 22.1667H24.1667C24.1667 22.0783 24.2018 21.9935 24.2643 21.931L25.325 22.9916L26.3856 24.0523C26.8857 23.5522 27.1667 22.8739 27.1667 22.1667H25.6667ZM25.325 22.9916L24.2643 21.931C24.3268 21.8685 24.4116 21.8333 24.5 21.8333V23.3333V24.8333C25.2072 24.8333 25.8855 24.5524 26.3856 24.0523L25.325 22.9916ZM24.5 23.3333V21.8333H3.5V23.3333V24.8333H24.5V23.3333ZM3.5 23.3333V21.8333C3.5884 21.8333 3.67319 21.8685 3.7357 21.931L2.67504 22.9916L1.61438 24.0523C2.11448 24.5524 2.79276 24.8333 3.5 24.8333V23.3333ZM2.67504 22.9916L3.7357 21.931C3.79821 21.9935 3.83333 22.0783 3.83333 22.1667H2.33333H0.833333C0.833333 22.8739 1.11428 23.5522 1.61438 24.0523L2.67504 22.9916ZM2.33333 22.1667H3.83333V15.1667H2.33333H0.833333V22.1667H2.33333ZM2.33333 15.1667H3.83333C3.83333 15.2551 3.79821 15.3399 3.7357 15.4024L2.67504 14.3417L1.61438 13.281C1.11429 13.7811 0.833333 14.4594 0.833333 15.1667H2.33333ZM2.67504 14.3417L3.7357 15.4024C3.67319 15.4649 3.58841 15.5 3.5 15.5V14V12.5C2.79275 12.5 2.11448 12.781 1.61438 13.281L2.67504 14.3417ZM3.5 14V15.5H24.5V14V12.5H3.5V14ZM24.5 14V15.5C24.4116 15.5 24.3268 15.4649 24.2643 15.4024L25.325 14.3417L26.3856 13.281C25.8855 12.781 25.2072 12.5 24.5 12.5V14ZM25.325 14.3417L24.2643 15.4024C24.2018 15.3399 24.1667 15.2551 24.1667 15.1667H25.6667H27.1667C27.1667 14.4594 26.8857 13.7811 26.3856 13.281L25.325 14.3417ZM25.6667 15.1667H24.1667V22.1667H25.6667H27.1667V15.1667H25.6667Z" fill="currentColor" mask="url(#path-1-inside-1_19_83)"/>
</svg>
