<svg width="38" height="29" viewBox="0 0 38 29" fill="none" xmlns="http://www.w3.org/2000/svg">
<path d="M31.6005 24.3999C34.1637 24.3999 35.3121 24.3999 36.1257 23.5233C36.1617 23.4849 36.1959 23.4459 36.2283 23.4063C37.0005 22.4829 37.0005 21.0303 37.0005 18.1215C37.0005 15.9165 37.0005 14.8149 36.5685 13.8843C36.1185 12.9123 35.3049 12.3057 33.5949 11.0673C31.8957 9.83615 30.6898 8.45376 29.5396 6.54937C27.898 3.83139 27.0772 2.47239 25.8478 1.7362C24.6166 1 23.1658 1 20.2642 1H19.0042L21.0184 7.26397C22.0048 10.3329 22.498 11.8665 23.5258 12.7341C24.5536 13.5999 25.882 13.5999 28.537 13.5999H35.2005M19.006 1V24.3999M13.606 24.3999H24.4042M37.0005 18.9999H35.2005M19.006 13.5999H2.80971C2.80971 13.5999 2.23191 13.6071 1.72971 13.5999C0.899915 13.5873 1.00971 13.5639 1.00971 13.6719V15.3999C1.00971 15.3999 0.973715 21.3399 1.04031 22.0473C1.04031 22.5135 1.40571 22.8933 2.05371 23.2839C2.47851 23.5665 3.1445 24.0147 3.6737 24.2271C4.3217 24.4719 6.40969 24.3999 6.40969 24.3999" stroke="currentColor" stroke-width="1.5" stroke-linecap="round" stroke-linejoin="round"/>
<path d="M28.0024 27.9998C28.9572 27.9998 29.8728 27.6205 30.5479 26.9454C31.2231 26.2703 31.6024 25.3546 31.6024 24.3998C31.6024 23.4451 31.2231 22.5294 30.5479 21.8543C29.8728 21.1791 28.9572 20.7999 28.0024 20.7999C27.0476 20.7999 26.1319 21.1791 25.4568 21.8543C24.7817 22.5294 24.4024 23.4451 24.4024 24.3998C24.4024 25.3546 24.7817 26.2703 25.4568 26.9454C26.1319 27.6205 27.0476 27.9998 28.0024 27.9998ZM10.0079 27.9998C10.9627 27.9998 11.8783 27.6205 12.5534 26.9454C13.2286 26.2703 13.6079 25.3546 13.6079 24.3998C13.6079 23.4451 13.2286 22.5294 12.5534 21.8543C11.8783 21.1791 10.9627 20.7999 10.0079 20.7999C9.0531 20.7999 8.13743 21.1791 7.46231 21.8543C6.78718 22.5294 6.4079 23.4451 6.4079 24.3998C6.4079 25.3546 6.78718 26.2703 7.46231 26.9454C8.13743 27.6205 9.0531 27.9998 10.0079 27.9998Z" stroke="currentColor" stroke-width="1.5" stroke-linecap="round" stroke-linejoin="round"/>
</svg>
