<svg width="34" height="38" viewBox="0 0 34 38" fill="none" xmlns="http://www.w3.org/2000/svg">
<path d="M28.4311 20.44C29.0658 18.7209 29.4444 16.9645 29.4444 15.2223C29.4444 11.4503 27.946 7.83281 25.2789 5.16562C22.6117 2.49844 18.9942 1.00003 15.2222 1.00003C11.4503 1.00003 7.83278 2.49844 5.16559 5.16562C2.49841 7.83281 1 11.4503 1 15.2223C1 24.0987 10.8471 33.3431 14.1538 36.1983C14.4618 36.4299 14.8368 36.5551 15.2222 36.5551C15.6076 36.5551 15.9826 36.4299 16.2907 36.1983C16.7798 35.7751 17.2616 35.3436 17.736 34.904" stroke="currentColor" stroke-width="2" stroke-linecap="round" stroke-linejoin="round"/>
<path d="M15.2222 20.5556C18.1677 20.5556 20.5556 18.1678 20.5556 15.2223C20.5556 12.2768 18.1677 9.88895 15.2222 9.88895C12.2767 9.88895 9.88889 12.2768 9.88889 15.2223C9.88889 18.1678 12.2767 20.5556 15.2222 20.5556Z" stroke="currentColor" stroke-width="2" stroke-linecap="round" stroke-linejoin="round"/>
<path d="M22.3333 29.4445L25.8889 33.0001L33 25.8889" stroke="currentColor" stroke-width="2" stroke-linecap="round" stroke-linejoin="round"/>
</svg>
