<svg width="28" height="28" viewBox="0 0 28 28" fill="none" xmlns="http://www.w3.org/2000/svg">
<path d="M13.9999 5.84088C15.0794 5.84088 16.1177 6.24274 16.914 6.96393L17.0693 7.11237C17.8833 7.92642 18.3407 9.03045 18.3408 10.1817C18.3408 11.2612 17.939 12.2994 17.2177 13.0958L17.0693 13.251C16.2552 14.0651 15.1512 14.5225 13.9999 14.5225C12.9207 14.5225 11.8831 14.1204 11.0869 13.3995L10.9306 13.251C10.1166 12.437 9.65912 11.3329 9.65912 10.1817L9.664 9.96686C9.7136 8.96542 10.1092 8.01189 10.7822 7.26862L10.9306 7.11237C11.6939 6.34909 12.7121 5.89891 13.7851 5.84576L13.9999 5.84088ZM13.9999 6.88678C13.1804 6.8868 12.3926 7.19178 11.788 7.73932L11.6699 7.85162C11.0519 8.46962 10.705 9.30772 10.705 10.1817C10.705 11.0557 11.0519 11.8938 11.6699 12.5118C12.2879 13.1298 13.126 13.4776 13.9999 13.4776C14.8739 13.4776 15.712 13.1298 16.33 12.5118C16.948 11.8938 17.2958 11.0557 17.2958 10.1817C17.2958 9.36238 16.9906 8.57428 16.4433 7.96979L16.33 7.85162C15.712 7.23366 14.8739 6.88678 13.9999 6.88678Z" stroke="currentColor" stroke-width="1.5"/>
<path d="M14 0.75C21.3176 0.75 27.25 6.6824 27.25 14C27.25 21.3176 21.3176 27.25 14 27.25C6.6824 27.25 0.75 21.3176 0.75 14C0.75 6.6824 6.6824 0.75 14 0.75ZM14.082 18.3408C12.5283 18.3397 10.9972 18.7139 9.61914 19.4316C8.24066 20.1496 7.05587 21.1905 6.16602 22.4648L5.76758 23.0352L6.30762 23.4756C8.48073 25.245 11.1986 26.2086 14.001 26.2041L14 26.2031C16.8517 26.2073 19.614 25.2097 21.8037 23.3828L22.3389 22.9365L21.9326 22.3701C21.039 21.1225 19.8604 20.106 18.4951 19.4053C17.1297 18.7045 15.6168 18.3395 14.082 18.3408ZM17.9062 2.43848C16.0703 1.81829 14.1128 1.64428 12.1963 1.93066C10.2798 2.21706 8.45915 2.95618 6.88477 4.08594C5.31047 5.21567 4.02751 6.70391 3.14258 8.42773C2.25764 10.1517 1.79614 12.0621 1.7959 14L1.80664 14.5283C1.91879 17.1575 2.86375 19.5732 4.38281 21.5156L4.98145 22.2812L5.57031 21.5078C6.56866 20.1974 7.85652 19.135 9.33301 18.4043C10.7171 17.7194 12.2322 17.3433 13.7734 17.2998L14.082 17.2959H14.084C15.71 17.2941 17.3149 17.6634 18.7764 18.376C20.2379 19.0886 21.5177 20.1259 22.5176 21.4082L23.1152 22.1748L23.7051 21.4014C24.88 19.8604 25.6719 18.0617 26.0137 16.1543C26.3555 14.2468 26.2376 12.2848 25.6709 10.4316C25.1041 8.57868 24.1041 6.88694 22.7539 5.49707C21.4037 4.10726 19.742 3.05864 17.9062 2.43848Z" stroke="currentColor" stroke-width="1.5"/>
</svg>
